playfair-display_italic.sfdir
StartChar: exclam
Encoding: 33 33 677
Width: 539
Flags: W
LayerCount: 2
Back
Fore
SplineSet
265.5 730 m 128,-1,1
 296 891 296 891 332 1107 c 0,2,3
 385 1423 385 1423 412 1522 c 0,4,5
 422 1560 422 1560 446.5 1581 c 128,-1,6
 471 1602 471 1602 504 1602 c 0,7,8
 551 1602 551 1602 574.5 1579 c 128,-1,9
 598 1556 598 1556 598 1519 c 0,10,11
 598 1499 598 1499 590 1475 c 0,12,13
 566 1393 566 1393 475 1147 c 0,14,15
 393 926 393 926 334 753 c 128,-1,16
 275 580 275 580 229 401 c 1,17,-1
 193 408 l 1,18,0
 235 569 235 569 265.5 730 c 128,-1,1
35 152.5 m 128,-1,20
 57 189 57 189 92.5 211 c 128,-1,21
 128 233 128 233 166 233 c 0,22,23
 212 233 212 233 241 202.5 c 128,-1,24
 270 172 270 172 270 126 c 0,25,26
 270 86 270 86 248.5 50.5 c 128,-1,27
 227 15 227 15 191 -7 c 128,-1,28
 155 -29 155 -29 116 -29 c 0,29,30
 71 -29 71 -29 42 1 c 128,-1,31
 13 31 13 31 13 76 c 0,32,19
 13 116 13 116 35 152.5 c 128,-1,20
EndSplineSet
Substitution2: "'smcp' Lowercase to Small Capitals lookup 24 subtable" exclam.smcp
Substitution2: "'c2sc' Capitals to Small Capitals lookup 23 subtable" exclam.smcp
Substitution2: "'aalt' Access All Alternates lookup 0 subtable" exclam.smcp
EndChar
StartChar: numbersign
Encoding: 35 35 679
Width: 1309
Flags: W
LayerCount: 2
Back
Fore
SplineSet
826 547 m 1,0,-1
 1119 547 l 1,1,-1
 1099 506 l 1,2,-1
 807 506 l 1,3,-1
 669 207 l 1,4,-1
 620 207 l 1,5,-1
 758 506 l 1,6,-1
 424 506 l 1,7,-1
 286 207 l 1,8,-1
 237 207 l 1,9,-1
 375 506 l 1,10,-1
 75 506 l 1,11,-1
 93 547 l 1,12,-1
 394 547 l 1,13,-1
 553 889 l 1,14,-1
 253 889 l 1,15,-1
 269 930 l 1,16,-1
 572 930 l 1,17,-1
 712 1233 l 1,18,-1
 761 1233 l 1,19,-1
 621 930 l 1,20,-1
 955 930 l 1,21,-1
 1095 1233 l 1,22,-1
 1144 1233 l 1,23,-1
 1004 930 l 1,24,-1
 1295 930 l 1,25,-1
 1279 889 l 1,26,-1
 985 889 l 1,27,-1
 826 547 l 1,0,-1
602 889 m 1,28,-1
 443 547 l 1,29,-1
 777 547 l 1,30,-1
 936 889 l 1,31,-1
 602 889 l 1,28,-1
EndSplineSet
EndChar
StartChar: dollar
Encoding: 36 36 719
Width: 1128
Flags: W
LayerCount: 2
Back
Fore
SplineSet
1134 1269.5 m 128,-1,1
 1167 1210 1167 1210 1167 1145 c 0,2,3
 1167 1079 1167 1079 1133.5 1031 c 128,-1,4
 1100 983 1100 983 1044 983 c 0,5,6
 993 983 993 983 966.5 1022 c 128,-1,7
 940 1061 940 1061 940 1116 c 0,8,9
 940 1176 940 1176 961.5 1226 c 128,-1,10
 983 1276 983 1276 1020 1333 c 1,11,12
 975 1380 975 1380 902 1408 c 1,13,-1
 724 767 l 1,14,15
 798 698 798 698 847.5 640.5 c 128,-1,16
 897 583 897 583 929 515.5 c 128,-1,17
 961 448 961 448 961 373 c 0,18,19
 961 250 961 250 895.5 163.5 c 128,-1,20
 830 77 830 77 726.5 30.5 c 128,-1,21
 623 -16 623 -16 504 -26 c 1,22,-1
 436 -270 l 1,23,-1
 391 -270 l 1,24,-1
 458 -29 l 1,25,-1
 442 -29 l 2,26,27
 362 -29 362 -29 295 -11 c 1,28,-1
 223 -270 l 1,29,-1
 178 -270 l 1,30,-1
 254 2 l 1,31,32
 210 18 210 18 178.5 38.5 c 128,-1,33
 147 59 147 59 109 90 c 0,34,35
 63 125 63 125 32.5 182 c 128,-1,36
 2 239 2 239 2 305 c 256,37,38
 2 371 2 371 35.5 419 c 128,-1,39
 69 467 69 467 125 467 c 0,40,41
 177 467 177 467 203 428.5 c 128,-1,42
 229 390 229 390 229 334 c 0,43,44
 229 274 229 274 208 225 c 128,-1,45
 187 176 187 176 150 117 c 1,46,47
 194 71 194 71 265 44 c 1,48,-1
 453 719 l 1,49,50
 369 803 369 803 322.5 887 c 128,-1,51
 276 971 276 971 276 1079 c 0,52,53
 276 1194 276 1194 329.5 1279 c 128,-1,54
 383 1364 383 1364 471 1413.5 c 128,-1,55
 559 1463 559 1463 663 1475 c 1,56,-1
 731 1720 l 1,57,-1
 776 1720 l 1,58,-1
 709 1479 l 1,59,-1
 727 1479 l 2,60,61
 804 1479 804 1479 872 1462 c 1,62,-1
 944 1720 l 1,63,-1
 989 1720 l 1,64,-1
 914 1449 l 1,65,66
 959 1433 959 1433 990.5 1412 c 128,-1,67
 1022 1391 1022 1391 1061 1360 c 0,68,0
 1101 1329 1101 1329 1134 1269.5 c 128,-1,1
729 1440 m 0,70,71
 708 1440 708 1440 698 1439 c 1,72,-1
 557 930 l 1,73,74
 596 886 596 886 688 800 c 1,75,-1
 861 1422 l 1,76,69
 796 1440 796 1440 729 1440 c 0,70,71
523 971 m 1,78,-1
 651 1433 l 1,79,80
 554 1415 554 1415 498 1351.5 c 128,-1,81
 442 1288 442 1288 442 1180 c 0,82,77
 442 1077 442 1077 523 971 c 1,78,-1
469 12 m 1,83,-1
 620 555 l 1,84,85
 581 596 581 596 522 652 c 2,86,-1
 488 684 l 1,87,-1
 306 30 l 1,88,89
 376 12 376 12 449 12 c 2,90,-1
 469 12 l 1,83,-1
654 515 m 1,92,-1
 515 16 l 1,93,94
 626 30 626 30 688 92.5 c 128,-1,95
 750 155 750 155 750 268 c 0,96,91
 750 395 750 395 654 515 c 1,92,-1
EndSplineSet
Substitution2: "'smcp' Lowercase to Small Capitals lookup 24 subtable" dollar.smcp
Substitution2: "'c2sc' Capitals to Small Capitals lookup 23 subtable" dollar.smcp
Substitution2: "'aalt' Access All Alternates lookup 0 subtable" dollar.smcp
EndChar
StartChar: percent
Encoding: 37 37 739
Width: 1569
Flags: W
LayerCount: 2
Back
Fore
SplineSet
12 -113 m 1,0,-1
 -19 -86 l 1,1,-1
 1687 1688 l 1,2,-1
 1718 1661 l 1,3,-1
 12 -113 l 1,0,-1
285.5 1311 m 128,-1,5
 342 1419 342 1419 439.5 1489 c 128,-1,6
 537 1559 537 1559 653 1559 c 0,7,8
 761 1559 761 1559 821 1503 c 128,-1,9
 881 1447 881 1447 881 1346 c 0,10,11
 881 1237 881 1237 825 1128.5 c 128,-1,12
 769 1020 769 1020 672 950.5 c 128,-1,13
 575 881 575 881 459 881 c 0,14,15
 350 881 350 881 289.5 936 c 128,-1,16
 229 991 229 991 229 1094 c 0,17,4
 229 1203 229 1203 285.5 1311 c 128,-1,5
494.5 1440.5 m 128,-1,19
 433 1359 433 1359 400 1247.5 c 128,-1,20
 367 1136 367 1136 367 1055 c 0,21,22
 367 918 367 918 473 918 c 0,23,24
 554 918 554 918 615.5 999.5 c 128,-1,25
 677 1081 677 1081 710 1192.5 c 128,-1,26
 743 1304 743 1304 743 1386 c 0,27,28
 743 1522 743 1522 637 1522 c 0,29,18
 556 1522 556 1522 494.5 1440.5 c 128,-1,19
826 401 m 128,-1,31
 882 509 882 509 979.5 579 c 128,-1,32
 1077 649 1077 649 1194 649 c 0,33,34
 1301 649 1301 649 1361 593 c 128,-1,35
 1421 537 1421 537 1421 436 c 0,36,37
 1421 327 1421 327 1365.5 219 c 128,-1,38
 1310 111 1310 111 1213 41 c 128,-1,39
 1116 -29 1116 -29 999 -29 c 0,40,41
 891 -29 891 -29 830.5 26.5 c 128,-1,42
 770 82 770 82 770 184 c 0,43,30
 770 293 770 293 826 401 c 128,-1,31
1034.5 530.5 m 128,-1,45
 973 449 973 449 940 337.5 c 128,-1,46
 907 226 907 226 907 145 c 0,47,48
 907 8 907 8 1014 8 c 0,49,50
 1095 8 1095 8 1156.5 89.5 c 128,-1,51
 1218 171 1218 171 1251 283 c 128,-1,52
 1284 395 1284 395 1284 477 c 0,53,54
 1284 544 1284 544 1256.5 578 c 128,-1,55
 1229 612 1229 612 1178 612 c 0,56,44
 1096 612 1096 612 1034.5 530.5 c 128,-1,45
EndSplineSet
EndChar
StartChar: ampersand
Encoding: 38 38 760
Width: 1673
Flags: W
LayerCount: 2
Back
Fore
SplineSet
1708 1421 m 128,-1,1
 1777 1363 1777 1363 1777 1245 c 0,2,3
 1777 1141 1777 1141 1717.5 1061 c 128,-1,4
 1658 981 1658 981 1527 915 c 0,5,6
 1434 869 1434 869 1200 784 c 1,7,8
 1349 657 1349 657 1349 477 c 0,9,10
 1349 341 1349 341 1267.5 225 c 128,-1,11
 1186 109 1186 109 1031.5 40 c 128,-1,12
 877 -29 877 -29 667 -29 c 0,13,14
 487 -29 487 -29 354 23 c 128,-1,15
 221 75 221 75 149 172 c 128,-1,16
 77 269 77 269 77 403 c 0,17,18
 77 523 77 523 134 628 c 128,-1,19
 191 733 191 733 291 808 c 128,-1,20
 391 883 391 883 517 918 c 1,21,22
 448 955 448 955 411 1016.5 c 128,-1,23
 374 1078 374 1078 374 1147 c 0,24,25
 374 1236 374 1236 434.5 1302 c 128,-1,26
 495 1368 495 1368 589 1403 c 128,-1,27
 683 1438 683 1438 779 1438 c 0,28,29
 855 1438 855 1438 912 1415.5 c 128,-1,30
 969 1393 969 1393 1000 1353 c 128,-1,31
 1031 1313 1031 1313 1031 1260 c 0,32,33
 1031 1210 1031 1210 1005.5 1175.5 c 128,-1,34
 980 1141 980 1141 940 1123.5 c 128,-1,35
 900 1106 900 1106 857 1106 c 1,36,-1
 861 1143 l 1,37,38
 918 1143 918 1143 953 1173 c 128,-1,39
 988 1203 988 1203 988 1255 c 0,40,41
 988 1323 988 1323 932 1364 c 128,-1,42
 876 1405 876 1405 790 1405 c 0,43,44
 707 1405 707 1405 641 1365.5 c 128,-1,45
 575 1326 575 1326 538 1256.5 c 128,-1,46
 501 1187 501 1187 501 1100 c 0,47,48
 501 1005 501 1005 546 930 c 1,49,50
 619 942 619 942 675 942 c 0,51,52
 749 942 749 942 749 899 c 0,53,54
 749 877 749 877 730 866.5 c 128,-1,55
 711 856 711 856 685 856 c 0,56,57
 634 856 634 856 544 901 c 1,58,59
 451 874 451 874 380 814 c 128,-1,60
 309 754 309 754 269.5 672 c 128,-1,61
 230 590 230 590 230 498 c 0,62,63
 230 378 230 378 296 293.5 c 128,-1,64
 362 209 362 209 478 166 c 128,-1,65
 594 123 594 123 744 123 c 0,66,67
 903 123 903 123 1031.5 170 c 128,-1,68
 1160 217 1160 217 1234 304 c 128,-1,69
 1308 391 1308 391 1308 504 c 0,70,71
 1308 579 1308 579 1273.5 651 c 128,-1,72
 1239 723 1239 723 1170 773 c 1,73,-1
 1118 754 l 2,74,75
 931 684 931 684 910 676 c 0,76,77
 818 640 818 640 756.5 593.5 c 128,-1,78
 695 547 695 547 695 473 c 0,79,80
 695 410 695 410 745.5 373 c 128,-1,81
 796 336 796 336 869 336 c 0,82,83
 950 336 950 336 1001 376 c 128,-1,84
 1052 416 1052 416 1078 457 c 1,85,-1
 1105 438 l 1,86,87
 1023 303 1023 303 861 303 c 0,88,89
 766 303 766 303 703 350 c 128,-1,90
 640 397 640 397 640 504 c 0,91,92
 640 623 640 623 725 701 c 128,-1,93
 810 779 810 779 980 842 c 0,94,95
 1001 850 1001 850 1088 881 c 0,96,97
 1401 992 1401 992 1510 1044 c 0,98,99
 1611 1093 1611 1093 1666 1146.5 c 128,-1,100
 1721 1200 1721 1200 1721 1272 c 0,101,102
 1721 1321 1721 1321 1694.5 1361.5 c 128,-1,103
 1668 1402 1668 1402 1621.5 1425 c 128,-1,104
 1575 1448 1575 1448 1519 1448 c 0,105,106
 1465 1448 1465 1448 1453 1430 c 1,107,108
 1474 1418 1474 1418 1485 1397 c 128,-1,109
 1496 1376 1496 1376 1496 1352 c 0,110,111
 1496 1321 1496 1321 1477 1294 c 128,-1,112
 1458 1267 1458 1267 1427 1251 c 128,-1,113
 1396 1235 1396 1235 1361 1235 c 0,114,115
 1320 1235 1320 1235 1294.5 1258 c 128,-1,116
 1269 1281 1269 1281 1269 1321 c 0,117,118
 1269 1363 1269 1363 1297.5 1396.5 c 128,-1,119
 1326 1430 1326 1430 1371 1450 c 0,120,121
 1439 1479 1439 1479 1521 1479 c 0,122,0
 1639 1479 1639 1479 1708 1421 c 128,-1,1
EndSplineSet
Substitution2: "'smcp' Lowercase to Small Capitals lookup 24 subtable" ampersand.smcp
Substitution2: "'c2sc' Capitals to Small Capitals lookup 23 subtable" ampersand.smcp
Substitution2: "'aalt' Access All Alternates lookup 0 subtable" ampersand.smcp
EndChar
StartChar: quotesingle
Encoding: 39 39 685
Width: 383
Flags: W
LayerCount: 2
Back
Fore
SplineSet
460.5 1352.5 m 128,-1,1
 445 1315 445 1315 408 1249 c 0,2,3
 349 1143 349 1143 314 1061 c 1,4,-1
 286 1061 l 1,5,6
 298 1150 298 1150 307 1262 c 0,7,8
 315 1364 315 1364 327 1409 c 0,9,10
 337 1452 337 1452 360.5 1473.5 c 128,-1,11
 384 1495 384 1495 413 1495 c 0,12,13
 476 1495 476 1495 476 1427 c 0,14,0
 476 1390 476 1390 460.5 1352.5 c 128,-1,1
EndSplineSet
EndChar
StartChar: parenright
Encoding: 41 41 643
Width: 739
Flags: W
LayerCount: 2
Back
Fore
SplineSet
522 1402 m 128,-1,1
 597 1281 597 1281 638.5 1138 c 128,-1,2
 680 995 680 995 680 821 c 0,3,4
 680 599 680 599 565 377.5 c 128,-1,5
 450 156 450 156 249.5 -36.5 c 128,-1,6
 49 -229 49 -229 -207 -373 c 1,7,-1
 -227 -346 l 1,8,9
 133 -103 133 -103 327.5 186.5 c 128,-1,10
 522 476 522 476 522 844 c 0,11,12
 522 1308 522 1308 297 1624 c 1,13,-1
 334 1651 l 1,14,0
 447 1523 447 1523 522 1402 c 128,-1,1
EndSplineSet
Substitution2: "'case' Case-Sensitive Forms lookup 25 subtable" parenright.case
Substitution2: "'smcp' Lowercase to Small Capitals lookup 24 subtable" parenright.smcp
Substitution2: "'c2sc' Capitals to Small Capitals lookup 23 subtable" parenright.smcp
AlternateSubs2: "'aalt' Access All Alternates lookup 1 subtable" parenright.smcp parenright.case
EndChar
StartChar: asterisk
Encoding: 42 42 671
Width: 1014
Flags: W
LayerCount: 2
Back
Fore
SplineSet
1047 1257 m 0,1,2
 1047 1203 1047 1203 960 1157 c 0,3,4
 924 1139 924 1139 882 1127 c 128,-1,5
 840 1115 840 1115 764 1096 c 0,6,7
 712 1084 712 1084 634 1063 c 1,8,9
 581 1080 581 1080 754 1027 c 0,10,11
 822 1008 822 1008 858.5 995.5 c 128,-1,12
 895 983 895 983 919 967 c 0,13,14
 968 936 968 936 968 894 c 0,15,16
 968 866 968 866 949 844 c 0,17,18
 926 812 926 812 886 812 c 0,19,20
 853 812 853 812 818 836 c 0,21,22
 792 852 792 852 770 876 c 128,-1,23
 748 900 748 900 705 953 c 0,24,25
 668 1001 668 1001 631 1044 c 1,26,27
 632 995 632 995 636 930 c 0,28,29
 640 838 640 838 640 809 c 0,30,31
 640 767 640 767 636 739 c 0,32,33
 621 682 621 682 592.5 655.5 c 128,-1,34
 564 629 564 629 531 629 c 0,35,36
 508 629 508 629 493.5 645 c 128,-1,37
 479 661 479 661 479 695 c 0,38,39
 479 718 479 718 484 739 c 0,40,41
 491 779 491 779 510 824 c 128,-1,42
 529 869 529 869 574 960 c 0,43,44
 588 987 588 987 621 1055 c 1,45,-1
 620 1055 l 1,46,47
 588 1030 588 1030 563 1009 c 128,-1,48
 538 988 538 988 519 972 c 0,49,50
 451 914 451 914 411.5 883 c 128,-1,51
 372 852 372 852 337 834 c 0,52,53
 290 811 290 811 257 811 c 0,54,55
 214 811 214 811 202 846 c 0,56,57
 198 858 198 858 198 865 c 0,58,59
 198 916 198 916 286 965 c 0,60,61
 322 983 322 983 364 995.5 c 128,-1,62
 406 1008 406 1008 481 1026 c 0,63,64
 538 1040 538 1040 610 1059 c 1,65,66
 564 1074 564 1074 492 1094 c 0,67,68
 421 1115 421 1115 386 1127 c 128,-1,69
 351 1139 351 1139 327 1155 c 0,70,71
 277 1186 277 1186 277 1229 c 0,72,73
 277 1256 277 1256 296 1278 c 0,74,75
 319 1310 319 1310 360 1310 c 0,76,77
 393 1310 393 1310 427 1286 c 0,78,79
 454 1269 454 1269 478 1242.5 c 128,-1,80
 502 1216 502 1216 540 1167 c 0,81,82
 591 1103 591 1103 621 1068 c 1,83,84
 620 1093 620 1093 616 1134 c 0,85,86
 606 1270 606 1270 606 1307 c 0,87,88
 606 1353 606 1353 611 1382 c 0,89,90
 624 1439 624 1439 652.5 1466 c 128,-1,91
 681 1493 681 1493 712 1493 c 0,92,93
 736 1493 736 1493 751 1477 c 128,-1,94
 766 1461 766 1461 766 1426 c 0,95,96
 766 1403 766 1403 761 1382 c 0,97,98
 756 1346 756 1346 739 1305 c 128,-1,99
 722 1264 722 1264 686 1188 c 0,100,101
 651 1113 651 1113 633 1072 c 1,102,-1
 735 1156 l 2,103,104
 804 1214 804 1214 840 1242.5 c 128,-1,105
 876 1271 876 1271 908 1288 c 0,106,107
 955 1311 955 1311 988 1311 c 0,108,109
 1031 1311 1031 1311 1043 1276 c 0,110,0
 1047 1264 1047 1264 1047 1257 c 0,1,2
EndSplineSet
EndChar
StartChar: plus
Encoding: 43 43 741
Width: 1198
Flags: W
LayerCount: 2
Back
Fore
SplineSet
742 1241 m 1,0,-1
 816 1241 l 1,1,-1
 679 758 l 1,2,-1
 1154 758 l 1,3,-1
 1136 696 l 1,4,-1
 661 696 l 1,5,-1
 523 215 l 1,6,-1
 450 215 l 1,7,-1
 587 696 l 1,8,-1
 110 696 l 1,9,-1
 128 758 l 1,10,-1
 605 758 l 1,11,-1
 742 1241 l 1,0,-1
EndSplineSet
EndChar
StartChar: comma
Encoding: 44 44 675
Width: 516
Flags: W
LayerCount: 2
Back
Fore
SplineSet
228 -30 m 128,-1,1
 192 -102 192 -102 124 -165.5 c 128,-1,2
 56 -229 56 -229 -37 -274 c 1,3,-1
 -47 -246 l 1,4,5
 50 -187 50 -187 107 -117 c 128,-1,6
 164 -47 164 -47 170 23 c 1,7,8
 111 -29 111 -29 63 -29 c 0,9,10
 27 -29 27 -29 6.5 -9.5 c 128,-1,11
 -14 10 -14 10 -14 43 c 0,12,13
 -14 86 -14 86 13.5 130.5 c 128,-1,14
 41 175 41 175 85 204 c 128,-1,15
 129 233 129 233 174 233 c 256,16,17
 219 233 219 233 241.5 198 c 128,-1,18
 264 163 264 163 264 113 c 0,19,0
 264 42 264 42 228 -30 c 128,-1,1
EndSplineSet
EndChar
StartChar: hyphen
Encoding: 45 45 652
Width: 1032
Flags: W
LayerCount: 2
Back
Fore
SplineSet
847 461 m 1,0,-1
 108 461 l 1,1,-1
 138 580 l 1,2,-1
 878 580 l 1,3,-1
 847 461 l 1,0,-1
EndSplineSet
Substitution2: "'case' Case-Sensitive Forms lookup 25 subtable" hyphen.case
Substitution2: "'smcp' Lowercase to Small Capitals lookup 24 subtable" hyphen.smcp
Substitution2: "'c2sc' Capitals to Small Capitals lookup 23 subtable" hyphen.smcp
AlternateSubs2: "'aalt' Access All Alternates lookup 1 subtable" hyphen.smcp hyphen.case
EndChar
StartChar: period
Encoding: 46 46 680
Width: 500
Flags: W
LayerCount: 2
Back
Fore
SplineSet
19 152.5 m 128,-1,1
 41 189 41 189 76.5 211 c 128,-1,2
 112 233 112 233 150 233 c 0,3,4
 196 233 196 233 225 202.5 c 128,-1,5
 254 172 254 172 254 126 c 0,6,7
 254 86 254 86 232.5 50.5 c 128,-1,8
 211 15 211 15 175 -7 c 128,-1,9
 139 -29 139 -29 100 -29 c 0,10,11
 55 -29 55 -29 26 1 c 128,-1,12
 -3 31 -3 31 -3 76 c 0,13,0
 -3 116 -3 116 19 152.5 c 128,-1,1
EndSplineSet
EndChar
StartChar: zero
Encoding: 48 48 572
Width: 1157
Flags: W
LayerCount: 2
Back
Fore
SplineSet
967.5 988 m 128,-1,1
 1050 893 1050 893 1050 721 c 0,2,3
 1050 538 1050 538 961 363.5 c 128,-1,4
 872 189 872 189 721.5 80 c 128,-1,5
 571 -29 571 -29 398 -29 c 0,6,7
 295 -29 295 -29 219 13 c 128,-1,8
 143 55 143 55 102.5 137 c 128,-1,9
 62 219 62 219 62 336 c 0,10,11
 62 518 62 518 155 692 c 128,-1,12
 248 866 248 866 402 974.5 c 128,-1,13
 556 1083 556 1083 728 1083 c 0,14,0
 885 1083 885 1083 967.5 988 c 128,-1,1
477.5 943.5 m 128,-1,16
 376 840 376 840 313.5 671 c 128,-1,17
 251 502 251 502 251 317 c 0,18,19
 251 8 251 8 437 8 c 0,20,21
 552 8 552 8 649.5 116.5 c 128,-1,22
 747 225 747 225 804 398 c 128,-1,23
 861 571 861 571 861 752 c 0,24,25
 861 910 861 910 816 978.5 c 128,-1,26
 771 1047 771 1047 689 1047 c 0,27,15
 579 1047 579 1047 477.5 943.5 c 128,-1,16
EndSplineSet
Substitution2: "'case' Case-Sensitive Forms lookup 25 subtable" zero.lf
Substitution2: "'lnum' Lining Figures lookup 20 subtable" zero.lf
Substitution2: "'frac' Diagonal Fractions lookup 17 subtable" zero.numr
Substitution2: "'dnom' Denominators lookup 15 subtable" zero.dnom
Substitution2: "'numr' Numerators lookup 14 subtable" zero.numr
Substitution2: "'sups' Superscript lookup 13 subtable" zero.sups
Substitution2: "'sinf' Scientific Inferiors lookup 12 subtable" zero.subs
Substitution2: "'subs' Subscript lookup 11 subtable" zero.subs
AlternateSubs2: "'aalt' Access All Alternates lookup 1 subtable" zero.subs zero.sups zero.numr zero.dnom zero.lf
EndChar
StartChar: one
Encoding: 49 49 573
Width: 700
Flags: W
LayerCount: 2
Back
Fore
SplineSet
146 0 m 1,0,-1
 409 887 l 1,1,2
 288 819 288 819 101 762 c 1,3,-1
 108 805 l 1,4,5
 227 841 227 841 316.5 885.5 c 128,-1,6
 406 930 406 930 466 972.5 c 128,-1,7
 526 1015 526 1015 601 1077 c 1,8,-1
 642 1077 l 1,9,-1
 325 0 l 1,10,-1
 146 0 l 1,0,-1
EndSplineSet
Substitution2: "'case' Case-Sensitive Forms lookup 25 subtable" one.lf
Substitution2: "'lnum' Lining Figures lookup 20 subtable" one.lf
Substitution2: "'frac' Diagonal Fractions lookup 17 subtable" one.numr
Substitution2: "'dnom' Denominators lookup 15 subtable" one.dnom
Substitution2: "'numr' Numerators lookup 14 subtable" one.numr
Substitution2: "'sups' Superscript lookup 13 subtable" onesuperior
Substitution2: "'sinf' Scientific Inferiors lookup 12 subtable" one.subs
Substitution2: "'subs' Subscript lookup 11 subtable" one.subs
AlternateSubs2: "'aalt' Access All Alternates lookup 1 subtable" one.subs onesuperior one.numr one.dnom one.lf
EndChar
StartChar: two
Encoding: 50 50 574
Width: 1030
Flags: W
LayerCount: 2
Back
Fore
SplineSet
824 1028 m 128,-1,1
 899 975 899 975 899 879 c 0,2,3
 899 779 899 779 817.5 674.5 c 128,-1,4
 736 570 736 570 628 483.5 c 128,-1,5
 520 397 520 397 364 289 c 0,6,7
 245 206 245 206 211 178 c 1,8,9
 267 178 267 178 423 150 c 0,10,11
 589 121 589 121 645 121 c 0,12,13
 786 121 786 121 786 219 c 0,14,15
 786 294 786 294 696 336 c 1,16,-1
 723 362 l 1,17,18
 836 310 836 310 836 201 c 0,19,20
 836 144 836 144 809 96 c 128,-1,21
 782 48 782 48 724.5 18 c 128,-1,22
 667 -12 667 -12 580 -12 c 0,23,24
 513 -12 513 -12 395 17 c 0,25,26
 327 33 327 33 279.5 41.5 c 128,-1,27
 232 50 232 50 176 50 c 0,28,29
 115 50 115 50 67.5 38.5 c 128,-1,30
 20 27 20 27 -43 0 c 1,31,-1
 -33 43 l 1,32,33
 -23 51 -23 51 100 140 c 0,34,35
 277 265 277 265 400.5 366.5 c 128,-1,36
 524 468 524 468 618.5 596.5 c 128,-1,37
 713 725 713 725 713 856 c 0,38,39
 713 940 713 940 672.5 988 c 128,-1,40
 632 1036 632 1036 555 1036 c 0,41,42
 481 1036 481 1036 398.5 987 c 128,-1,43
 316 938 316 938 260.5 861.5 c 128,-1,44
 205 785 205 785 205 707 c 0,45,46
 205 656 205 656 233 632 c 128,-1,47
 261 608 261 608 324 608 c 0,48,49
 377 608 377 608 419 628 c 128,-1,50
 461 648 461 648 512 692 c 1,51,-1
 537 664 l 1,52,53
 483 613 483 613 423.5 589 c 128,-1,54
 364 565 364 565 309 565 c 0,55,56
 246 565 246 565 201 596 c 128,-1,57
 156 627 156 627 156 705 c 0,58,59
 156 795 156 795 220 882.5 c 128,-1,60
 284 970 284 970 392 1025.5 c 128,-1,61
 500 1081 500 1081 623 1081 c 0,62,0
 749 1081 749 1081 824 1028 c 128,-1,1
EndSplineSet
Substitution2: "'case' Case-Sensitive Forms lookup 25 subtable" two.lf
Substitution2: "'lnum' Lining Figures lookup 20 subtable" two.lf
Substitution2: "'frac' Diagonal Fractions lookup 17 subtable" two.numr
Substitution2: "'dnom' Denominators lookup 15 subtable" two.dnom
Substitution2: "'numr' Numerators lookup 14 subtable" two.numr
Substitution2: "'sups' Superscript lookup 13 subtable" twosuperior
Substitution2: "'sinf' Scientific Inferiors lookup 12 subtable" two.subs
Substitution2: "'subs' Subscript lookup 11 subtable" two.subs
AlternateSubs2: "'aalt' Access All Alternates lookup 1 subtable" two.subs twosuperior two.numr two.dnom two.lf
EndChar
StartChar: three
Encoding: 51 51 575
Width: 993
Flags: W
LayerCount: 2
Back
Fore
SplineSet
822 1034 m 128,-1,1
 897 981 897 981 897 885 c 0,2,3
 897 797 897 797 832 721 c 128,-1,4
 767 645 767 645 669.5 591.5 c 128,-1,5
 572 538 572 538 473 512 c 1,6,7
 566 510 566 510 640.5 483 c 128,-1,8
 715 456 715 456 758 404 c 128,-1,9
 801 352 801 352 801 279 c 0,10,11
 801 103 801 103 646 -30 c 128,-1,12
 491 -163 491 -163 265 -234.5 c 128,-1,13
 39 -306 39 -306 -164 -309 c 1,14,-1
 -154 -272 l 1,15,16
 22 -261 22 -261 198.5 -192.5 c 128,-1,17
 375 -124 375 -124 492.5 0 c 128,-1,18
 610 124 610 124 610 293 c 0,19,20
 610 375 610 375 564 425 c 128,-1,21
 518 475 518 475 436 479 c 1,22,23
 388 460 388 460 364 452 c 128,-1,24
 340 444 340 444 317 444 c 0,25,26
 281 444 281 444 281 465 c 0,27,28
 281 467 281 467 283 475 c 0,29,30
 291 513 291 513 380 513 c 0,31,32
 406 513 406 513 420 512 c 1,33,34
 502 543 502 543 570.5 596 c 128,-1,35
 639 649 639 649 680 716.5 c 128,-1,36
 721 784 721 784 721 858 c 0,37,38
 721 944 721 944 676 993 c 128,-1,39
 631 1042 631 1042 553 1042 c 0,40,41
 483 1042 483 1042 405 1002.5 c 128,-1,42
 327 963 327 963 275 900.5 c 128,-1,43
 223 838 223 838 223 774 c 0,44,45
 223 724 223 724 251 700 c 128,-1,46
 279 676 279 676 342 676 c 0,47,48
 411 676 411 676 469 707 c 1,49,-1
 492 676 l 1,50,51
 412 633 412 633 328 633 c 0,52,53
 264 633 264 633 219 663.5 c 128,-1,54
 174 694 174 694 174 772 c 0,55,56
 174 847 174 847 235 920.5 c 128,-1,57
 296 994 296 994 399 1040.5 c 128,-1,58
 502 1087 502 1087 621 1087 c 0,59,0
 747 1087 747 1087 822 1034 c 128,-1,1
EndSplineSet
Substitution2: "'case' Case-Sensitive Forms lookup 25 subtable" three.lf
Substitution2: "'lnum' Lining Figures lookup 20 subtable" three.lf
Substitution2: "'frac' Diagonal Fractions lookup 17 subtable" three.numr
Substitution2: "'dnom' Denominators lookup 15 subtable" three.dnom
Substitution2: "'numr' Numerators lookup 14 subtable" three.numr
Substitution2: "'sups' Superscript lookup 13 subtable" threesuperior
Substitution2: "'sinf' Scientific Inferiors lookup 12 subtable" three.subs
Substitution2: "'subs' Subscript lookup 11 subtable" three.subs
AlternateSubs2: "'aalt' Access All Alternates lookup 1 subtable" three.subs threesuperior three.numr three.dnom three.lf
EndChar
StartChar: four
Encoding: 52 52 576
Width: 1055
Flags: W
LayerCount: 2
Back
Fore
SplineSet
583 70 m 1,0,-1
 487 -289 l 1,1,-1
 309 -289 l 1,2,-1
 405 70 l 1,3,-1
 -104 70 l 1,4,-1
 -92 113 l 1,5,-1
 801 1083 l 1,6,-1
 854 1083 l 1,7,-1
 614 186 l 1,8,-1
 889 186 l 1,9,-1
 856 70 l 1,10,-1
 583 70 l 1,0,-1
603 813 m 1,11,-1
 29 186 l 1,12,-1
 436 186 l 1,13,-1
 603 813 l 1,11,-1
EndSplineSet
Substitution2: "'case' Case-Sensitive Forms lookup 25 subtable" four.lf
Substitution2: "'lnum' Lining Figures lookup 20 subtable" four.lf
Substitution2: "'frac' Diagonal Fractions lookup 17 subtable" four.numr
Substitution2: "'dnom' Denominators lookup 15 subtable" four.dnom
Substitution2: "'numr' Numerators lookup 14 subtable" four.numr
Substitution2: "'sups' Superscript lookup 13 subtable" four.sups
Substitution2: "'sinf' Scientific Inferiors lookup 12 subtable" four.subs
Substitution2: "'subs' Subscript lookup 11 subtable" four.subs
AlternateSubs2: "'aalt' Access All Alternates lookup 1 subtable" four.subs four.sups four.numr four.dnom four.lf
EndChar
StartChar: five
Encoding: 53 53 577
Width: 940
Flags: W
LayerCount: 2
Back
Fore
SplineSet
618 862 m 0,1,2
 580 862 580 862 504 900 c 0,3,4
 469 918 469 918 446.5 926.5 c 128,-1,5
 424 935 424 935 403 935 c 0,6,7
 395 935 395 935 391 934 c 2,8,-1
 162 465 l 1,9,10
 228 500 228 500 296 517.5 c 128,-1,11
 364 535 364 535 449 535 c 0,12,13
 606 535 606 535 684 471 c 128,-1,14
 762 407 762 407 762 301 c 0,15,16
 762 113 762 113 612 -21.5 c 128,-1,17
 462 -156 462 -156 245.5 -226 c 128,-1,18
 29 -296 29 -296 -166 -303 c 1,19,-1
 -156 -266 l 1,20,21
 10 -265 10 -265 177.5 -198 c 128,-1,22
 345 -131 345 -131 456 -3.5 c 128,-1,23
 567 124 567 124 567 297 c 0,24,25
 567 379 567 379 514.5 426 c 128,-1,26
 462 473 462 473 352 473 c 0,27,28
 244 473 244 473 125 418 c 1,29,-1
 104 428 l 1,30,-1
 412 1061 l 1,31,32
 448 1063 448 1063 476 1057.5 c 128,-1,33
 504 1052 504 1052 543 1039 c 0,34,35
 587 1025 587 1025 621.5 1017.5 c 128,-1,36
 656 1010 656 1010 705 1010 c 0,37,38
 821 1010 821 1010 874 1102 c 1,39,-1
 899 1087 l 1,40,0
 796 862 796 862 618 862 c 0,1,2
EndSplineSet
Substitution2: "'case' Case-Sensitive Forms lookup 25 subtable" five.lf
Substitution2: "'lnum' Lining Figures lookup 20 subtable" five.lf
Substitution2: "'frac' Diagonal Fractions lookup 17 subtable" five.numr
Substitution2: "'dnom' Denominators lookup 15 subtable" five.dnom
Substitution2: "'numr' Numerators lookup 14 subtable" five.numr
Substitution2: "'sups' Superscript lookup 13 subtable" five.sups
Substitution2: "'sinf' Scientific Inferiors lookup 12 subtable" five.subs
Substitution2: "'subs' Subscript lookup 11 subtable" five.subs
AlternateSubs2: "'aalt' Access All Alternates lookup 1 subtable" five.subs five.sups five.numr five.dnom five.lf
EndChar
StartChar: six
Encoding: 54 54 578
Width: 1079
Flags: W
LayerCount: 2
Back
Fore
SplineSet
695.5 1223 m 128,-1,1
 504 1055 504 1055 381.5 806.5 c 128,-1,2
 259 558 259 558 259 281 c 0,3,4
 259 131 259 131 296.5 71.5 c 128,-1,5
 334 12 334 12 407 12 c 0,6,7
 515 12 515 12 599 112 c 128,-1,8
 683 212 683 212 729 358 c 128,-1,9
 775 504 775 504 775 631 c 0,10,11
 775 838 775 838 642 838 c 0,12,13
 575 838 575 838 511 779.5 c 128,-1,14
 447 721 447 721 400 588 c 1,15,-1
 368 600 l 1,16,17
 418 759 418 759 511.5 828 c 128,-1,18
 605 897 605 897 710 897 c 0,19,20
 787 897 787 897 845 861 c 128,-1,21
 903 825 903 825 935.5 756 c 128,-1,22
 968 687 968 687 968 590 c 0,23,24
 968 431 968 431 886 288 c 128,-1,25
 804 145 804 145 667 58 c 128,-1,26
 530 -29 530 -29 374 -29 c 0,27,28
 220 -29 220 -29 146.5 63 c 128,-1,29
 73 155 73 155 73 338 c 0,30,31
 73 628 73 628 237.5 876 c 128,-1,32
 402 1124 402 1124 637.5 1282.5 c 128,-1,33
 873 1441 873 1441 1072 1479 c 1,34,-1
 1084 1438 l 1,35,0
 887 1391 887 1391 695.5 1223 c 128,-1,1
EndSplineSet
Substitution2: "'case' Case-Sensitive Forms lookup 25 subtable" six.lf
Substitution2: "'lnum' Lining Figures lookup 20 subtable" six.lf
Substitution2: "'frac' Diagonal Fractions lookup 17 subtable" six.numr
Substitution2: "'dnom' Denominators lookup 15 subtable" six.dnom
Substitution2: "'numr' Numerators lookup 14 subtable" six.numr
Substitution2: "'sups' Superscript lookup 13 subtable" six.sups
Substitution2: "'sinf' Scientific Inferiors lookup 12 subtable" six.subs
Substitution2: "'subs' Subscript lookup 11 subtable" six.subs
AlternateSubs2: "'aalt' Access All Alternates lookup 1 subtable" six.subs six.sups six.numr six.dnom six.lf
EndChar
StartChar: seven
Encoding: 55 55 579
Width: 997
Flags: W
LayerCount: 2
Back
Fore
SplineSet
915 821 m 0,1,2
 777 662 777 662 687 545.5 c 128,-1,3
 597 429 597 429 515 280 c 128,-1,4
 433 131 433 131 388 -37 c 0,5,6
 379 -69 379 -69 365 -140 c 0,7,8
 355 -190 355 -190 353 -199 c 0,9,10
 340 -243 340 -243 306.5 -273 c 128,-1,11
 273 -303 273 -303 226 -303 c 0,12,13
 162 -303 162 -303 162 -234 c 0,14,15
 162 -216 162 -216 167 -188 c 0,16,17
 190 -57 190 -57 286.5 101.5 c 128,-1,18
 383 260 383 260 502 405 c 128,-1,19
 621 550 621 550 796 746 c 0,20,21
 935 902 935 902 982 960 c 1,22,23
 853 872 853 872 681 872 c 0,24,25
 624 872 624 872 579.5 880.5 c 128,-1,26
 535 889 535 889 476 905 c 0,27,28
 381 932 381 932 325 932 c 0,29,30
 245 932 245 932 197 897 c 128,-1,31
 149 862 149 862 149 795 c 0,32,33
 149 709 149 709 218 651.5 c 128,-1,34
 287 594 287 594 433 559 c 1,35,-1
 421 528 l 1,36,37
 99 590 99 590 99 817 c 0,38,39
 99 879 99 879 130.5 936 c 128,-1,40
 162 993 162 993 227 1029 c 128,-1,41
 292 1065 292 1065 388 1065 c 0,42,43
 451 1065 451 1065 505 1052 c 128,-1,44
 559 1039 559 1039 632 1013 c 0,45,46
 703 988 703 988 754.5 975 c 128,-1,47
 806 962 806 962 864 962 c 0,48,49
 925 962 925 962 971 982.5 c 128,-1,50
 1017 1003 1017 1003 1054 1053 c 1,51,-1
 1107 1053 l 1,52,0
 1043 967 1043 967 915 821 c 0,1,2
EndSplineSet
Substitution2: "'case' Case-Sensitive Forms lookup 25 subtable" seven.lf
Substitution2: "'lnum' Lining Figures lookup 20 subtable" seven.lf
Substitution2: "'frac' Diagonal Fractions lookup 17 subtable" seven.numr
Substitution2: "'dnom' Denominators lookup 15 subtable" seven.dnom
Substitution2: "'numr' Numerators lookup 14 subtable" seven.numr
Substitution2: "'sups' Superscript lookup 13 subtable" seven.sups
Substitution2: "'sinf' Scientific Inferiors lookup 12 subtable" seven.subs
Substitution2: "'subs' Subscript lookup 11 subtable" seven.subs
AlternateSubs2: "'aalt' Access All Alternates lookup 1 subtable" seven.subs seven.sups seven.numr seven.dnom seven.lf
EndChar
StartChar: eight
Encoding: 56 56 580
Width: 1114
Flags: W
LayerCount: 2
Back
Fore
SplineSet
693 811 m 1,1,2
 774 733 774 733 821.5 679 c 128,-1,3
 869 625 869 625 903 553 c 128,-1,4
 937 481 937 481 937 395 c 0,5,6
 937 268 937 268 863 172 c 128,-1,7
 789 76 789 76 662 23.5 c 128,-1,8
 535 -29 535 -29 382 -29 c 0,9,10
 216 -29 216 -29 117.5 36.5 c 128,-1,11
 19 102 19 102 19 236 c 0,12,13
 19 403 19 403 163 536.5 c 128,-1,14
 307 670 307 670 510 758 c 1,15,16
 450 817 450 817 410.5 865 c 128,-1,17
 371 913 371 913 346 972.5 c 128,-1,18
 321 1032 321 1032 321 1102 c 0,19,20
 321 1212 321 1212 391 1298 c 128,-1,21
 461 1384 461 1384 574 1431.5 c 128,-1,22
 687 1479 687 1479 810 1479 c 0,23,24
 940 1479 940 1479 1019.5 1424 c 128,-1,25
 1099 1369 1099 1369 1099 1262 c 0,26,0
 1099 1028 1099 1028 693 811 c 1,1,2
801 950.5 m 128,-1,28
 861 1020 861 1020 897 1102 c 128,-1,29
 933 1184 933 1184 933 1268 c 0,30,31
 933 1442 933 1442 773 1442 c 0,32,33
 697 1442 697 1442 632 1404.5 c 128,-1,34
 567 1367 567 1367 529 1299.5 c 128,-1,35
 491 1232 491 1232 491 1147 c 0,36,37
 491 1087 491 1087 514.5 1033.5 c 128,-1,38
 538 980 538 980 575.5 934.5 c 128,-1,39
 613 889 613 889 670 833 c 1,40,27
 741 881 741 881 801 950.5 c 128,-1,28
725 497 m 128,-1,42
 695 563 695 563 651 613.5 c 128,-1,43
 607 664 607 664 534 735 c 1,44,45
 436 681 436 681 360.5 599.5 c 128,-1,46
 285 518 285 518 242.5 419 c 128,-1,47
 200 320 200 320 200 217 c 0,48,49
 200 118 200 118 246.5 63 c 128,-1,50
 293 8 293 8 400 8 c 0,51,52
 493 8 493 8 574.5 49 c 128,-1,53
 656 90 656 90 705.5 168.5 c 128,-1,54
 755 247 755 247 755 352 c 0,55,41
 755 431 755 431 725 497 c 128,-1,42
EndSplineSet
Substitution2: "'case' Case-Sensitive Forms lookup 25 subtable" eight.lf
Substitution2: "'lnum' Lining Figures lookup 20 subtable" eight.lf
Substitution2: "'frac' Diagonal Fractions lookup 17 subtable" eight.numr
Substitution2: "'dnom' Denominators lookup 15 subtable" eight.dnom
Substitution2: "'numr' Numerators lookup 14 subtable" eight.numr
Substitution2: "'sups' Superscript lookup 13 subtable" eight.sups
Substitution2: "'sinf' Scientific Inferiors lookup 12 subtable" eight.subs
Substitution2: "'subs' Subscript lookup 11 subtable" eight.subs
AlternateSubs2: "'aalt' Access All Alternates lookup 1 subtable" eight.subs eight.sups eight.numr eight.dnom eight.lf
EndChar
StartChar: nine
Encoding: 57 57 581
Width: 1051
Flags: W
LayerCount: 2
Back
Fore
SplineSet
880.5 989.5 m 128,-1,1
 954 898 954 898 954 715 c 0,2,3
 954 434 954 434 793 195 c 128,-1,4
 632 -44 632 -44 401 -196.5 c 128,-1,5
 170 -349 170 -349 -25 -385 c 1,6,-1
 -37 -344 l 1,7,8
 155 -299 155 -299 342 -137.5 c 128,-1,9
 529 24 529 24 648.5 264.5 c 128,-1,10
 768 505 768 505 768 772 c 0,11,12
 768 922 768 922 731 981 c 128,-1,13
 694 1040 694 1040 621 1040 c 0,14,15
 512 1040 512 1040 428 940 c 128,-1,16
 344 840 344 840 298 694.5 c 128,-1,17
 252 549 252 549 252 422 c 0,18,19
 252 215 252 215 385 215 c 0,20,21
 452 215 452 215 516 273.5 c 128,-1,22
 580 332 580 332 627 465 c 1,23,-1
 659 453 l 1,24,25
 609 293 609 293 516 224.5 c 128,-1,26
 423 156 423 156 317 156 c 0,27,28
 240 156 240 156 182 191.5 c 128,-1,29
 124 227 124 227 91.5 296 c 128,-1,30
 59 365 59 365 59 463 c 0,31,32
 59 621 59 621 141 764 c 128,-1,33
 223 907 223 907 360 994 c 128,-1,34
 497 1081 497 1081 653 1081 c 0,35,0
 807 1081 807 1081 880.5 989.5 c 128,-1,1
EndSplineSet
Substitution2: "'case' Case-Sensitive Forms lookup 25 subtable" nine.lf
Substitution2: "'lnum' Lining Figures lookup 20 subtable" nine.lf
Substitution2: "'frac' Diagonal Fractions lookup 17 subtable" nine.numr
Substitution2: "'dnom' Denominators lookup 15 subtable" nine.dnom
Substitution2: "'numr' Numerators lookup 14 subtable" nine.numr
Substitution2: "'sups' Superscript lookup 13 subtable" nine.sups
Substitution2: "'sinf' Scientific Inferiors lookup 12 subtable" nine.subs
Substitution2: "'subs' Subscript lookup 11 subtable" nine.subs
AlternateSubs2: "'aalt' Access All Alternates lookup 1 subtable" nine.subs nine.sups nine.numr nine.dnom nine.lf
EndChar
StartChar: less
Encoding: 60 60 732
Width: 1233
Flags: W
LayerCount: 2
Back
Fore
SplineSet
257 719 m 1,0,-1
 935 362 l 1,1,-1
 902 297 l 1,2,-1
 103 727 l 1,3,-1
 1234 1192 l 1,4,-1
 1254 1133 l 1,5,-1
 257 719 l 1,0,-1
EndSplineSet
EndChar
StartChar: equal
Encoding: 61 61 727
Width: 1358
Flags: W
LayerCount: 2
Back
Fore
SplineSet
1269 901 m 1,0,-1
 1250 840 l 1,1,-1
 224 840 l 1,2,-1
 243 901 l 1,3,-1
 1269 901 l 1,0,-1
1187 614 m 1,4,-1
 1168 553 l 1,5,-1
 142 553 l 1,6,-1
 161 614 l 1,7,-1
 1187 614 l 1,4,-1
EndSplineSet
EndChar
StartChar: greater
Encoding: 62 62 728
Width: 1233
Flags: W
LayerCount: 2
Back
Fore
SplineSet
1048 770 m 1,0,-1
 290 1176 l 1,1,-1
 323 1235 l 1,2,-1
 1201 762 l 1,3,-1
 126 317 l 1,4,-1
 105 377 l 1,5,-1
 1048 770 l 1,0,-1
EndSplineSet
EndChar
StartChar: question
Encoding: 63 63 682
Width: 897
Flags: W
LayerCount: 2
Back
Fore
SplineSet
503 1540.5 m 128,-1,1
 438 1514 438 1514 423 1466 c 1,2,3
 442 1461 442 1461 458 1437.5 c 128,-1,4
 474 1414 474 1414 474 1384 c 0,5,6
 474 1340 474 1340 443 1312 c 128,-1,7
 412 1284 412 1284 366 1284 c 0,8,9
 325 1284 325 1284 304.5 1307 c 128,-1,10
 284 1330 284 1330 284 1370 c 0,11,12
 284 1436 284 1436 339.5 1489 c 128,-1,13
 395 1542 395 1542 484.5 1572 c 128,-1,14
 574 1602 574 1602 669 1602 c 0,15,16
 806 1602 806 1602 889 1539 c 128,-1,17
 972 1476 972 1476 972 1360 c 0,18,19
 972 1295 972 1295 940.5 1230 c 128,-1,20
 909 1165 909 1165 835 1088.5 c 128,-1,21
 761 1012 761 1012 634 913 c 0,22,23
 582 873 582 873 527 833 c 0,24,25
 437 767 437 767 394.5 730 c 128,-1,26
 352 693 352 693 328 652.5 c 128,-1,27
 304 612 304 612 304 561 c 0,28,29
 304 499 304 499 339.5 459.5 c 128,-1,30
 375 420 375 420 450 420 c 0,31,32
 510 420 510 420 567.5 444.5 c 128,-1,33
 625 469 625 469 646 510 c 1,34,35
 627 512 627 512 609.5 534 c 128,-1,36
 592 556 592 556 593 582 c 0,37,38
 593 614 593 614 619 640 c 128,-1,39
 645 666 645 666 685 666 c 0,40,41
 716 666 716 666 735.5 648.5 c 128,-1,42
 755 631 755 631 755 594 c 0,43,44
 755 533 755 533 702 485 c 128,-1,45
 649 437 649 437 568.5 411 c 128,-1,46
 488 385 488 385 411 385 c 0,47,48
 303 385 303 385 239 436.5 c 128,-1,49
 175 488 175 488 175 584 c 0,50,51
 175 658 175 658 214.5 721 c 128,-1,52
 254 784 254 784 315.5 837.5 c 128,-1,53
 377 891 377 891 491 976 c 0,54,55
 529 1003 529 1003 556 1024 c 0,56,57
 658 1102 658 1102 713.5 1154.5 c 128,-1,58
 769 1207 769 1207 795.5 1258.5 c 128,-1,59
 822 1310 822 1310 822 1374 c 0,60,61
 822 1462 822 1462 775.5 1514.5 c 128,-1,62
 729 1567 729 1567 636 1567 c 0,63,0
 568 1567 568 1567 503 1540.5 c 128,-1,1
239 152.5 m 128,-1,65
 261 189 261 189 296.5 211 c 128,-1,66
 332 233 332 233 370 233 c 0,67,68
 416 233 416 233 445 202.5 c 128,-1,69
 474 172 474 172 474 126 c 0,70,71
 474 86 474 86 452.5 50.5 c 128,-1,72
 431 15 431 15 395 -7 c 128,-1,73
 359 -29 359 -29 320 -29 c 0,74,75
 275 -29 275 -29 246 1 c 128,-1,76
 217 31 217 31 217 76 c 0,77,64
 217 116 217 116 239 152.5 c 128,-1,65
EndSplineSet
Substitution2: "'smcp' Lowercase to Small Capitals lookup 24 subtable" question.smcp
Substitution2: "'c2sc' Capitals to Small Capitals lookup 23 subtable" question.smcp
Substitution2: "'aalt' Access All Alternates lookup 0 subtable" question.smcp
EndChar
StartChar: at
Encoding: 64 64 762
Width: 1737
Flags: W
LayerCount: 2
Back
Fore
SplineSet
945 186 m 0,1,2
 945 232 945 232 964 300 c 1,3,4
 903 173 903 173 831.5 113 c 128,-1,5
 760 53 760 53 661 53 c 0,6,7
 551 53 551 53 500.5 120.5 c 128,-1,8
 450 188 450 188 450 301 c 0,9,10
 450 453 450 453 530 612 c 128,-1,11
 610 771 610 771 734.5 875 c 128,-1,12
 859 979 859 979 982 979 c 0,13,14
 1044 979 1044 979 1078 947.5 c 128,-1,15
 1112 916 1112 916 1117 846 c 1,16,-1
 1146 950 l 1,17,18
 1263 950 1263 950 1330 979 c 1,19,-1
 1113 227 l 2,20,21
 1100 185 1100 185 1100 157 c 0,22,23
 1100 128 1100 128 1114.5 116 c 128,-1,24
 1129 104 1129 104 1160 104 c 0,25,26
 1238 104 1238 104 1355 191.5 c 128,-1,27
 1472 279 1472 279 1559 439 c 128,-1,28
 1646 599 1646 599 1646 807 c 0,29,30
 1646 989 1646 989 1566.5 1106 c 128,-1,31
 1487 1223 1487 1223 1353 1277 c 128,-1,32
 1219 1331 1219 1331 1050 1331 c 0,33,34
 803 1331 803 1331 583.5 1188.5 c 128,-1,35
 364 1046 364 1046 231.5 807.5 c 128,-1,36
 99 569 99 569 99 297 c 0,37,38
 99 93 99 93 177 -39 c 128,-1,39
 255 -171 255 -171 393 -232 c 128,-1,40
 531 -293 531 -293 714 -293 c 0,41,42
 951 -293 951 -293 1136 -182 c 1,43,-1
 1150 -209 l 1,44,45
 1071 -265 1071 -265 957.5 -297.5 c 128,-1,46
 844 -330 844 -330 712 -330 c 0,47,48
 516 -330 516 -330 369.5 -263.5 c 128,-1,49
 223 -197 223 -197 140.5 -57.5 c 128,-1,50
 58 82 58 82 58 293 c 0,51,52
 58 566 58 566 191.5 815 c 128,-1,53
 325 1064 325 1064 552.5 1216 c 128,-1,54
 780 1368 780 1368 1048 1368 c 0,55,56
 1233 1368 1233 1368 1376.5 1308.5 c 128,-1,57
 1520 1249 1520 1249 1603.5 1123 c 128,-1,58
 1687 997 1687 997 1687 805 c 0,59,60
 1687 588 1687 588 1592 416 c 128,-1,61
 1497 244 1497 244 1357.5 148.5 c 128,-1,62
 1218 53 1218 53 1093 53 c 0,63,0
 945 53 945 53 945 186 c 0,1,2
879.5 221 m 128,-1,65
 952 327 952 327 1033 546 c 1,66,-1
 1101 788 l 1,67,68
 1100 932 1100 932 990 932 c 0,69,70
 895 932 895 932 810.5 838.5 c 128,-1,71
 726 745 726 745 675 600.5 c 128,-1,72
 624 456 624 456 624 313 c 0,73,74
 624 115 624 115 730 115 c 0,75,64
 807 115 807 115 879.5 221 c 128,-1,65
EndSplineSet
Substitution2: "'case' Case-Sensitive Forms lookup 25 subtable" at.case
Substitution2: "'smcp' Lowercase to Small Capitals lookup 24 subtable" at.smcp
Substitution2: "'c2sc' Capitals to Small Capitals lookup 23 subtable" at.smcp
AlternateSubs2: "'aalt' Access All Alternates lookup 1 subtable" at.smcp at.case
EndChar
StartChar: A
Encoding: 65 65 2
Width: 1288
GlyphClass: 2
Flags: W
AnchorPoint: "Anchor-5" 0 0 basechar 0
AnchorPoint: "Anchor-4" 932 1450 basechar 0
AnchorPoint: "Anchor-3" 1102 0 basechar 0
LayerCount: 2
Back
Fore
SplineSet
1066.5 74 m 128,-1,1
 1096 43 1096 43 1133 41 c 1,2,-1
 1124 0 l 1,3,4
 1042 6 1042 6 901 6 c 0,5,6
 736 6 736 6 655 0 c 1,7,-1
 664 41 l 1,8,9
 734 44 734 44 772 58.5 c 128,-1,10
 810 73 810 73 826.5 108.5 c 128,-1,11
 843 144 843 144 840 213 c 2,12,-1
 821 549 l 1,13,-1
 318 549 l 1,14,-1
 164 332 l 2,15,16
 68 196 68 196 68 128 c 0,17,18
 68 44 68 44 219 41 c 1,19,-1
 209 0 l 1,20,21
 95 6 95 6 -25 6 c 0,22,23
 -114 6 -114 6 -178 0 c 1,24,-1
 -168 41 l 1,25,26
 -74 61 -74 61 37 219 c 2,27,-1
 920 1460 l 1,28,-1
 950 1460 l 1,29,-1
 1032 172 l 2,30,0
 1037 105 1037 105 1066.5 74 c 128,-1,1
785 1209 m 1,31,-1
 347 590 l 1,32,-1
 819 590 l 1,33,-1
 785 1209 l 1,31,-1
EndSplineSet
Substitution2: "Single Substitution lookup 29 subtable" ordfeminine
Substitution2: "'c2sc' Capitals to Small Capitals lookup 23 subtable" a.smcp
AlternateSubs2: "'aalt' Access All Alternates lookup 1 subtable" ordfeminine a.smcp
Position2: "'cpsp' Capital Spacing lookup 0 subtable" dx=20 dy=0 dh=20 dv=0
EndChar
StartChar: B
Encoding: 66 66 13
Width: 1294
GlyphClass: 2
Flags: W
AnchorPoint: "Anchor-5" 0 0 basechar 0
AnchorPoint: "Anchor-4" 825 1450 basechar 0
AnchorPoint: "Anchor-3" 0 0 basechar 0
LayerCount: 2
Back
Fore
SplineSet
1145 432 m 0,1,2
 1145 293 1145 293 1057 195 c 128,-1,3
 969 97 969 97 829 48.5 c 128,-1,4
 689 0 689 0 535 0 c 0,5,6
 465 0 465 0 385 3 c 0,7,8
 202 6 202 6 182 6 c 0,9,10
 19 6 19 6 -68 0 c 1,11,-1
 -59 41 l 1,12,13
 15 44 15 44 51.5 57 c 128,-1,14
 88 70 88 70 110 105 c 128,-1,15
 132 140 132 140 152 217 c 2,16,-1
 422 1233 l 2,17,18
 439 1301 439 1301 439 1331 c 0,19,20
 439 1372 439 1372 409 1390 c 128,-1,21
 379 1408 379 1408 301 1409 c 1,22,-1
 311 1450 l 1,23,24
 395 1444 395 1444 555 1444 c 0,25,26
 599 1444 599 1444 693 1446 c 0,27,28
 791 1448 791 1448 844 1448 c 0,29,30
 1034 1448 1034 1448 1131.5 1378 c 128,-1,31
 1229 1308 1229 1308 1229 1186 c 0,32,33
 1229 1086 1229 1086 1170 1002.5 c 128,-1,34
 1111 919 1111 919 1016 860 c 128,-1,35
 921 801 921 801 809 766 c 1,36,0
 1145 711 1145 711 1145 432 c 0,1,2
623 770 m 2,37,38
 742 770 742 770 834 825.5 c 128,-1,39
 926 881 926 881 976 973 c 128,-1,40
 1026 1065 1026 1065 1026 1171 c 0,41,42
 1026 1293 1026 1293 973.5 1351 c 128,-1,43
 921 1409 921 1409 805 1409 c 0,44,45
 743 1409 743 1409 708.5 1397 c 128,-1,46
 674 1385 674 1385 654 1355 c 128,-1,47
 634 1325 634 1325 618 1264 c 2,48,-1
 488 770 l 1,49,-1
 623 770 l 2,37,38
823.5 152 m 128,-1,51
 940 257 940 257 940 463 c 0,52,53
 940 735 940 735 647 735 c 2,54,-1
 479 735 l 1,55,-1
 342 217 l 2,56,57
 323 144 323 144 323 117 c 0,58,59
 323 79 323 79 350 63 c 128,-1,60
 377 47 377 47 446 47 c 0,61,50
 707 47 707 47 823.5 152 c 128,-1,51
EndSplineSet
Substitution2: "'c2sc' Capitals to Small Capitals lookup 23 subtable" b.smcp
Substitution2: "'aalt' Access All Alternates lookup 0 subtable" b.smcp
Position2: "'cpsp' Capital Spacing lookup 0 subtable" dx=20 dy=0 dh=20 dv=0
EndChar
StartChar: C
Encoding: 67 67 14
Width: 1372
GlyphClass: 2
Flags: W
AnchorPoint: "Anchor-5" 590 0 basechar 0
AnchorPoint: "Anchor-4" 1006 1450 basechar 0
AnchorPoint: "Anchor-3" 0 0 basechar 0
LayerCount: 2
Back
Fore
SplineSet
1326 979 m 1,1,-1
 1281 979 l 1,2,3
 1293 1059 1293 1059 1293 1119 c 0,4,5
 1293 1215 1293 1215 1261 1282 c 0,6,7
 1223 1358 1223 1358 1150.5 1400 c 128,-1,8
 1078 1442 1078 1442 992 1442 c 0,9,10
 822 1442 822 1442 663.5 1282 c 128,-1,11
 505 1122 505 1122 406.5 879.5 c 128,-1,12
 308 637 308 637 308 410 c 0,13,14
 308 212 308 212 385.5 110 c 128,-1,15
 463 8 463 8 601 8 c 0,16,17
 691 8 691 8 791.5 50 c 128,-1,18
 892 92 892 92 966 168 c 0,19,20
 1018 221 1018 221 1057.5 292 c 128,-1,21
 1097 363 1097 363 1150 492 c 1,22,-1
 1195 492 l 1,23,24
 1102 152 1102 152 1074 0 c 1,25,-1
 1029 0 l 1,26,27
 1035 44 1035 44 1035 70 c 0,28,29
 1035 122 1035 122 1011 122 c 0,30,31
 995 122 995 122 968 104 c 0,32,33
 895 57 895 57 845.5 31 c 128,-1,34
 796 5 796 5 731 -12 c 128,-1,35
 666 -29 666 -29 581 -29 c 0,36,37
 353 -29 353 -29 228 94 c 128,-1,38
 103 217 103 217 103 453 c 256,39,40
 103 689 103 689 221 928.5 c 128,-1,41
 339 1168 339 1168 544.5 1323.5 c 128,-1,42
 750 1479 750 1479 996 1479 c 0,43,44
 1079 1479 1079 1479 1135 1461 c 128,-1,45
 1191 1443 1191 1443 1225.5 1416.5 c 128,-1,46
 1260 1390 1260 1390 1302 1346 c 0,47,48
 1320 1328 1320 1328 1333 1328 c 0,49,50
 1369 1328 1369 1328 1414 1450 c 1,51,-1
 1457 1450 l 1,52,0
 1389 1273 1389 1273 1326 979 c 1,1,-1
EndSplineSet
Substitution2: "'c2sc' Capitals to Small Capitals lookup 23 subtable" c.smcp
Substitution2: "'aalt' Access All Alternates lookup 0 subtable" c.smcp
Position2: "'cpsp' Capital Spacing lookup 0 subtable" dx=20 dy=0 dh=20 dv=0
EndChar
StartChar: D
Encoding: 68 68 20
Width: 1485
GlyphClass: 2
Flags: W
AnchorPoint: "Anchor-5" 0 0 basechar 0
AnchorPoint: "Anchor-4" 840 1450 basechar 0
AnchorPoint: "Anchor-3" 0 0 basechar 0
LayerCount: 2
Back
Fore
SplineSet
1315.5 511 m 128,-1,1
 1189 281 1189 281 966.5 140.5 c 128,-1,2
 744 0 744 0 471 0 c 0,3,4
 424 0 424 0 352 3 c 0,5,6
 181 6 181 6 184 6 c 1,7,8
 19 6 19 6 -61 0 c 1,9,-1
 -55 41 l 1,10,11
 15 44 15 44 50.5 57 c 128,-1,12
 86 70 86 70 108 105.5 c 128,-1,13
 130 141 130 141 150 217 c 2,14,-1
 418 1233 l 2,15,16
 437 1307 437 1307 437 1334 c 0,17,18
 437 1374 437 1374 407 1390.5 c 128,-1,19
 377 1407 377 1407 299 1409 c 1,20,-1
 305 1450 l 1,21,22
 415 1443 415 1443 505 1443 c 2,23,-1
 555 1444 l 1,24,-1
 639 1446 l 2,25,26
 799 1450 799 1450 864 1450 c 0,27,28
 1152 1450 1152 1450 1297 1335 c 128,-1,29
 1442 1220 1442 1220 1442 997 c 0,30,0
 1442 741 1442 741 1315.5 511 c 128,-1,1
880.5 175.5 m 128,-1,32
 1061 314 1061 314 1153 544.5 c 128,-1,33
 1245 775 1245 775 1245 1049 c 0,34,35
 1245 1234 1245 1234 1141 1323.5 c 128,-1,36
 1037 1413 1037 1413 807 1413 c 0,37,38
 743 1413 743 1413 707 1398.5 c 128,-1,39
 671 1384 671 1384 649 1347 c 128,-1,40
 627 1310 627 1310 608 1237 c 2,41,-1
 340 213 l 2,42,43
 321 142 321 142 321 112 c 0,44,45
 321 73 321 73 349 55 c 128,-1,46
 377 37 377 37 446 37 c 0,47,31
 700 37 700 37 880.5 175.5 c 128,-1,32
EndSplineSet
Substitution2: "'c2sc' Capitals to Small Capitals lookup 23 subtable" d.smcp
Substitution2: "'aalt' Access All Alternates lookup 0 subtable" d.smcp
Position2: "'cpsp' Capital Spacing lookup 0 subtable" dx=20 dy=0 dh=20 dv=0
EndChar
StartChar: F
Encoding: 70 70 34
Width: 1159
GlyphClass: 2
Flags: W
LayerCount: 2
Back
Fore
SplineSet
1315 1450 m 1,1,2
 1262 1301 1262 1301 1231 1188 c 0,3,4
 1209 1112 1209 1112 1192 1020 c 1,5,-1
 1145 1020 l 1,6,7
 1168 1156 1168 1156 1168 1224 c 0,8,9
 1168 1291 1168 1291 1146.5 1329.5 c 128,-1,10
 1125 1368 1125 1368 1074 1385.5 c 128,-1,11
 1023 1403 1023 1403 932 1403 c 2,12,-1
 823 1403 l 2,13,14
 750 1403 750 1403 713.5 1391 c 128,-1,15
 677 1379 677 1379 655 1344.5 c 128,-1,16
 633 1310 633 1310 612 1233 c 2,17,-1
 477 729 l 1,18,-1
 627 729 l 2,19,20
 700 729 700 729 747.5 764 c 128,-1,21
 795 799 795 799 821 845.5 c 128,-1,22
 847 892 847 892 874 962 c 0,23,24
 884 988 884 988 889 999 c 1,25,-1
 936 999 l 1,26,27
 894 872 894 872 862 749 c 0,28,29
 857 724 857 724 852 709 c 2,30,-1
 843 673 l 1,31,32
 768 331 768 331 786 418 c 1,33,-1
 739 418 l 1,34,-1
 744 449 l 2,35,36
 756 527 756 527 756 560 c 0,37,38
 756 621 756 621 725 654.5 c 128,-1,39
 694 688 694 688 616 688 c 2,40,-1
 466 688 l 1,41,-1
 340 217 l 2,42,43
 324 156 324 156 324 126 c 0,44,45
 324 92 324 92 341 74.5 c 128,-1,46
 358 57 358 57 395 50 c 128,-1,47
 432 43 432 43 500 41 c 1,48,-1
 489 0 l 1,49,50
 383 6 383 6 188 6 c 0,51,52
 15 6 15 6 -72 0 c 1,53,-1
 -61 41 l 1,54,55
 13 44 13 44 49 57 c 128,-1,56
 85 70 85 70 107 105 c 128,-1,57
 129 140 129 140 150 217 c 2,58,-1
 422 1233 l 2,59,60
 440 1298 440 1298 440 1333 c 0,61,62
 440 1363 440 1363 426.5 1378.5 c 128,-1,63
 413 1394 413 1394 384.5 1400.5 c 128,-1,64
 356 1407 356 1407 303 1409 c 1,65,-1
 313 1450 l 1,66,67
 514 1444 514 1444 907 1444 c 0,68,0
 1194 1444 1194 1444 1315 1450 c 1,1,2
EndSplineSet
Substitution2: "'c2sc' Capitals to Small Capitals lookup 23 subtable" f.smcp
Substitution2: "'aalt' Access All Alternates lookup 0 subtable" f.smcp
Position2: "'cpsp' Capital Spacing lookup 0 subtable" dx=20 dy=0 dh=20 dv=0
EndChar
StartChar: G
Encoding: 71 71 35
Width: 1444
GlyphClass: 2
Flags: W
AnchorPoint: "Anchor-5" 635 0 basechar 0
AnchorPoint: "Anchor-4" 999 1450 basechar 0
AnchorPoint: "Anchor-3" 0 0 basechar 0
LayerCount: 2
Back
Fore
SplineSet
774 31 m 128,-1,1
 835 50 835 50 880 76 c 0,2,3
 921 100 921 100 941.5 131 c 128,-1,4
 962 162 962 162 974 205 c 2,5,-1
 1021 385 l 2,6,7
 1039 453 1039 453 1039 491 c 0,8,9
 1039 527 1039 527 1022 545.5 c 128,-1,10
 1005 564 1005 564 969.5 571.5 c 128,-1,11
 934 579 934 579 867 582 c 1,12,-1
 878 623 l 1,13,14
 977 616 977 616 1164 616 c 0,15,16
 1310 616 1310 616 1379 623 c 1,17,-1
 1369 582 l 1,18,19
 1320 578 1320 578 1296 565.5 c 128,-1,20
 1272 553 1272 553 1255.5 519 c 128,-1,21
 1239 485 1239 485 1218 406 c 2,22,-1
 1109 0 l 1,23,-1
 1068 0 l 1,24,25
 1074 32 1074 32 1074 54 c 0,26,27
 1074 117 1074 117 1043 117 c 0,28,29
 1030 117 1030 117 1015.5 110.5 c 128,-1,30
 1001 104 1001 104 966 82 c 0,31,32
 880 27 880 27 796.5 -1 c 128,-1,33
 713 -29 713 -29 617 -29 c 0,34,35
 367 -29 367 -29 234 93 c 128,-1,36
 101 215 101 215 101 440 c 0,37,38
 101 677 101 677 217 919.5 c 128,-1,39
 333 1162 333 1162 538.5 1320.5 c 128,-1,40
 744 1479 744 1479 998 1479 c 0,41,42
 1083 1479 1083 1479 1144 1462 c 128,-1,43
 1205 1445 1205 1445 1247.5 1417 c 128,-1,44
 1290 1389 1290 1389 1334 1346 c 0,45,46
 1353 1327 1353 1327 1370 1327 c 0,47,48
 1409 1327 1409 1327 1451 1450 c 1,49,-1
 1496 1450 l 1,50,51
 1428 1273 1428 1273 1365 979 c 1,52,-1
 1320 979 l 1,53,54
 1330 1067 1330 1067 1330 1133 c 0,55,56
 1330 1227 1330 1227 1302 1282 c 0,57,58
 1259 1357 1259 1357 1174 1399.5 c 128,-1,59
 1089 1442 1089 1442 986 1442 c 0,60,61
 774 1442 774 1442 616.5 1264 c 128,-1,62
 459 1086 459 1086 375.5 834 c 128,-1,63
 292 582 292 582 292 373 c 0,64,65
 292 189 292 189 379 100.5 c 128,-1,66
 466 12 466 12 646 12 c 0,67,0
 713 12 713 12 774 31 c 128,-1,1
EndSplineSet
Substitution2: "'c2sc' Capitals to Small Capitals lookup 23 subtable" g.smcp
Substitution2: "'aalt' Access All Alternates lookup 0 subtable" g.smcp
Position2: "'cpsp' Capital Spacing lookup 0 subtable" dx=20 dy=0 dh=20 dv=0
EndChar
StartChar: H
Encoding: 72 72 41
Width: 1546
GlyphClass: 2
Flags: W
AnchorPoint: "Anchor-5" 0 0 basechar 0
AnchorPoint: "Anchor-4" 997 1450 basechar 0
AnchorPoint: "Anchor-3" 0 0 basechar 0
LayerCount: 2
Back
Fore
SplineSet
1679 1450 m 1,1,-1
 1669 1409 l 1,2,3
 1594 1406 1594 1406 1557.5 1393 c 128,-1,4
 1521 1380 1521 1380 1499.5 1345 c 128,-1,5
 1478 1310 1478 1310 1458 1233 c 2,6,-1
 1188 217 l 2,7,8
 1170 147 1170 147 1170 117 c 256,9,10
 1170 87 1170 87 1183.5 71.5 c 128,-1,11
 1197 56 1197 56 1226 49.5 c 128,-1,12
 1255 43 1255 43 1309 41 c 1,13,-1
 1300 0 l 1,14,15
 1214 6 1214 6 1038 6 c 0,16,17
 874 6 874 6 778 0 c 1,18,-1
 786 41 l 1,19,20
 860 44 860 44 897 57 c 128,-1,21
 934 70 934 70 955.5 105 c 128,-1,22
 977 140 977 140 997 217 c 2,23,-1
 1128 709 l 1,24,-1
 471 709 l 1,25,-1
 340 217 l 2,26,27
 323 151 323 151 323 118 c 0,28,29
 323 88 323 88 336.5 72 c 128,-1,30
 350 56 350 56 379 49.5 c 128,-1,31
 408 43 408 43 461 41 c 1,32,-1
 453 0 l 1,33,34
 357 6 357 6 193 6 c 0,35,36
 22 6 22 6 -68 0 c 1,37,-1
 -57 41 l 1,38,39
 15 44 15 44 51 57 c 128,-1,40
 87 70 87 70 108.5 105.5 c 128,-1,41
 130 141 130 141 150 217 c 2,42,-1
 420 1233 l 2,43,44
 437 1298 437 1298 437 1331 c 0,45,46
 437 1362 437 1362 423 1378 c 128,-1,47
 409 1394 409 1394 380.5 1400.5 c 128,-1,48
 352 1407 352 1407 299 1409 c 1,49,-1
 309 1450 l 1,50,51
 393 1444 393 1444 569 1444 c 0,52,53
 733 1444 733 1444 831 1450 c 1,54,-1
 821 1409 l 1,55,56
 746 1406 746 1406 709.5 1393 c 128,-1,57
 673 1380 673 1380 651.5 1345 c 128,-1,58
 630 1310 630 1310 610 1233 c 2,59,-1
 482 750 l 1,60,-1
 1139 750 l 1,61,-1
 1268 1233 l 2,62,63
 1286 1296 1286 1296 1286 1331 c 0,64,65
 1286 1362 1286 1362 1272 1378 c 128,-1,66
 1258 1394 1258 1394 1229 1400.5 c 128,-1,67
 1200 1407 1200 1407 1147 1409 c 1,68,-1
 1157 1450 l 1,69,70
 1250 1444 1250 1444 1415 1444 c 0,71,0
 1590 1444 1590 1444 1679 1450 c 1,1,-1
EndSplineSet
Substitution2: "'c2sc' Capitals to Small Capitals lookup 23 subtable" h.smcp
Substitution2: "'aalt' Access All Alternates lookup 0 subtable" h.smcp
Position2: "'cpsp' Capital Spacing lookup 0 subtable" dx=20 dy=0 dh=20 dv=0
EndChar
StartChar: I
Encoding: 73 73 44
Width: 698
GlyphClass: 2
Flags: W
AnchorPoint: "Anchor-5" 193 0 basechar 0
AnchorPoint: "Anchor-4" 610 1450 basechar 0
AnchorPoint: "Anchor-3" 453 0 basechar 0
LayerCount: 2
Back
Fore
SplineSet
323 118 m 0,1,2
 323 88 323 88 336.5 72 c 128,-1,3
 350 56 350 56 379 49.5 c 128,-1,4
 408 43 408 43 461 41 c 1,5,-1
 453 0 l 1,6,7
 357 6 357 6 193 6 c 0,8,9
 22 6 22 6 -68 0 c 1,10,-1
 -57 41 l 1,11,12
 15 44 15 44 51 57 c 128,-1,13
 87 70 87 70 108.5 105.5 c 128,-1,14
 130 141 130 141 150 217 c 2,15,-1
 420 1233 l 2,16,17
 437 1298 437 1298 437 1331 c 0,18,19
 437 1362 437 1362 423 1378 c 128,-1,20
 409 1394 409 1394 380.5 1400.5 c 128,-1,21
 352 1407 352 1407 299 1409 c 1,22,-1
 309 1450 l 1,23,24
 393 1444 393 1444 569 1444 c 0,25,26
 734 1444 734 1444 831 1450 c 1,27,-1
 821 1409 l 1,28,29
 746 1406 746 1406 709.5 1393 c 128,-1,30
 673 1380 673 1380 651.5 1345 c 128,-1,31
 630 1310 630 1310 610 1233 c 2,32,-1
 340 217 l 2,33,0
 323 151 323 151 323 118 c 0,1,2
EndSplineSet
Substitution2: "'c2sc' Capitals to Small Capitals lookup 23 subtable" i.smcp
Substitution2: "'aalt' Access All Alternates lookup 0 subtable" i.smcp
Position2: "'cpsp' Capital Spacing lookup 0 subtable" dx=20 dy=0 dh=20 dv=0
EndChar
StartChar: J
Encoding: 74 74 55
Width: 1303
GlyphClass: 2
Flags: W
AnchorPoint: "Anchor-5" 0 0 basechar 0
AnchorPoint: "Anchor-4" 983 1450 basechar 0
AnchorPoint: "Anchor-3" 0 0 basechar 0
LayerCount: 2
Back
Fore
SplineSet
1521 1470 m 0,1,2
 1521 1420 1521 1420 1371 1364 c 1,3,4
 1085 1173 1085 1173 945 750 c 1,5,-1
 1148 750 l 1,6,-1
 1142 709 l 1,7,-1
 932 709 l 1,8,9
 924 683 924 683 910 629 c 2,10,-1
 783 133 l 2,11,12
 725 -96 725 -96 603.5 -240.5 c 128,-1,13
 482 -385 482 -385 300 -385 c 0,14,15
 204 -385 204 -385 147.5 -355 c 128,-1,16
 91 -325 91 -325 91 -268 c 0,17,18
 91 -239 91 -239 105.5 -212.5 c 128,-1,19
 120 -186 120 -186 146 -169 c 128,-1,20
 172 -152 172 -152 204 -152 c 0,21,22
 241 -152 241 -152 265.5 -176.5 c 128,-1,23
 290 -201 290 -201 290 -237 c 0,24,25
 290 -271 290 -271 267 -298.5 c 128,-1,26
 244 -326 244 -326 208 -342 c 1,27,28
 238 -352 238 -352 280 -352 c 0,29,30
 373 -352 373 -352 433 -282.5 c 128,-1,31
 493 -213 493 -213 528.5 -108.5 c 128,-1,32
 564 -4 564 -4 609 180 c 0,33,34
 618 219 618 219 638 297 c 2,35,-1
 699 537 l 2,36,37
 723 629 723 629 756 709 c 1,38,-1
 484 709 l 1,39,-1
 491 750 l 1,40,-1
 774 750 l 1,41,42
 833 879 833 879 917.5 984.5 c 128,-1,43
 1002 1090 1002 1090 1101.5 1175.5 c 128,-1,44
 1201 1261 1201 1261 1336 1358 c 1,45,46
 1099 1235 1099 1235 931 1235 c 0,47,48
 865 1235 865 1235 811.5 1249 c 128,-1,49
 758 1263 758 1263 680 1292 c 0,50,51
 604 1321 604 1321 549 1335.5 c 128,-1,52
 494 1350 494 1350 427 1350 c 0,53,54
 359 1350 359 1350 325 1314 c 128,-1,55
 291 1278 291 1278 294 1214 c 0,56,57
 295 1154 295 1154 334 1116.5 c 128,-1,58
 373 1079 373 1079 445 1065 c 1,59,-1
 439 1024 l 1,60,61
 346 1040 346 1040 281.5 1097 c 128,-1,62
 217 1154 217 1154 214 1262 c 0,63,64
 211 1335 211 1335 239 1392 c 128,-1,65
 267 1449 267 1449 322 1481 c 128,-1,66
 377 1513 377 1513 452 1513 c 0,67,68
 505 1513 505 1513 551 1498 c 128,-1,69
 597 1483 597 1483 635 1461 c 128,-1,70
 673 1439 673 1439 725 1402 c 0,71,72
 777 1366 777 1366 813 1344.5 c 128,-1,73
 849 1323 849 1323 894 1308.5 c 128,-1,74
 939 1294 939 1294 990 1294 c 0,75,76
 1056 1294 1056 1294 1112.5 1305 c 128,-1,77
 1169 1316 1169 1316 1219.5 1334 c 128,-1,78
 1270 1352 1270 1352 1353 1386 c 1,79,80
 1430 1506 1430 1506 1480 1506 c 0,81,82
 1494 1506 1494 1506 1508 1495 c 0,83,0
 1521 1484 1521 1484 1521 1470 c 0,1,2
EndSplineSet
Substitution2: "'c2sc' Capitals to Small Capitals lookup 23 subtable" j.smcp
Substitution2: "'aalt' Access All Alternates lookup 0 subtable" j.smcp
Position2: "'cpsp' Capital Spacing lookup 0 subtable" dx=20 dy=0 dh=20 dv=0
EndChar
StartChar: K
Encoding: 75 75 57
Width: 1382
GlyphClass: 2
Flags: W
AnchorPoint: "Anchor-5" 537 0 basechar 0
AnchorPoint: "Anchor-4" 922 1450 basechar 0
AnchorPoint: "Anchor-3" 0 0 basechar 0
LayerCount: 2
Back
Fore
SplineSet
1419 1448.5 m 128,-1,1
 1448 1418 1448 1418 1448 1369 c 0,2,3
 1448 1342 1448 1342 1435.5 1308.5 c 128,-1,4
 1423 1275 1423 1275 1396.5 1251 c 128,-1,5
 1370 1227 1370 1227 1329 1227 c 256,6,7
 1288 1227 1288 1227 1268.5 1251 c 128,-1,8
 1249 1275 1249 1275 1249 1309 c 0,9,10
 1249 1338 1249 1338 1268 1373.5 c 128,-1,11
 1287 1409 1287 1409 1315 1436 c 1,12,-1
 1309 1436 l 2,13,14
 1268 1434 1268 1434 1235 1407 c 0,15,16
 1200 1375 1200 1375 1174.5 1320.5 c 128,-1,17
 1149 1266 1149 1266 1115 1169 c 0,18,19
 1072 1047 1072 1047 1034 968.5 c 128,-1,20
 996 890 996 890 928 829.5 c 128,-1,21
 860 769 860 769 756 757 c 1,22,23
 830 741 830 741 874 715 c 128,-1,24
 918 689 918 689 944 628 c 128,-1,25
 970 567 970 567 970 455 c 2,26,-1
 969 420 l 1,27,-1
 961 188 l 1,28,-1
 960 164 l 2,29,30
 960 124 960 124 973 104 c 128,-1,31
 986 84 986 84 1022 84 c 0,32,33
 1074 84 1074 84 1109 122 c 128,-1,34
 1144 160 1144 160 1174 244 c 2,35,-1
 1208 348 l 1,36,-1
 1249 348 l 1,37,-1
 1196 190 l 2,38,39
 1158 78 1158 78 1096.5 24.5 c 128,-1,40
 1035 -29 1035 -29 946 -29 c 0,41,42
 773 -29 773 -29 773 174 c 0,43,44
 773 197 773 197 774 209 c 2,45,-1
 788 440 l 2,46,47
 791 483 791 483 791 519 c 0,48,49
 791 610 791 610 773 655.5 c 128,-1,50
 755 701 755 701 716 734 c 1,51,52
 644 715 644 715 598 715 c 0,53,54
 535 715 535 715 535 756 c 256,55,56
 535 797 535 797 596 797 c 0,57,58
 637 797 637 797 721 776 c 1,59,60
 825 789 825 789 891.5 847.5 c 128,-1,61
 958 906 958 906 994.5 981.5 c 128,-1,62
 1031 1057 1031 1057 1073 1178 c 0,63,64
 1108 1280 1108 1280 1135.5 1338.5 c 128,-1,65
 1163 1397 1163 1397 1204 1432 c 0,66,67
 1265 1479 1265 1479 1327 1479 c 0,68,0
 1390 1479 1390 1479 1419 1448.5 c 128,-1,1
323 118 m 0,70,71
 323 88 323 88 336.5 72 c 128,-1,72
 350 56 350 56 379 49.5 c 128,-1,73
 408 43 408 43 461 41 c 1,74,-1
 453 0 l 1,75,76
 357 6 357 6 193 6 c 0,77,78
 22 6 22 6 -68 0 c 1,79,-1
 -57 41 l 1,80,81
 15 44 15 44 51 57 c 128,-1,82
 87 70 87 70 108.5 105.5 c 128,-1,83
 130 141 130 141 150 217 c 2,84,-1
 420 1233 l 2,85,86
 437 1298 437 1298 437 1331 c 0,87,88
 437 1362 437 1362 423 1378 c 128,-1,89
 409 1394 409 1394 380.5 1400.5 c 128,-1,90
 352 1407 352 1407 299 1409 c 1,91,-1
 309 1450 l 1,92,93
 393 1444 393 1444 569 1444 c 0,94,95
 733 1444 733 1444 831 1450 c 1,96,-1
 821 1409 l 1,97,98
 746 1406 746 1406 709.5 1393 c 128,-1,99
 673 1380 673 1380 651.5 1345 c 128,-1,100
 630 1310 630 1310 610 1233 c 2,101,-1
 340 217 l 2,102,69
 323 151 323 151 323 118 c 0,70,71
EndSplineSet
Substitution2: "'c2sc' Capitals to Small Capitals lookup 23 subtable" k.smcp
Substitution2: "'aalt' Access All Alternates lookup 0 subtable" k.smcp
Position2: "'cpsp' Capital Spacing lookup 0 subtable" dx=20 dy=0 dh=20 dv=0
EndChar
StartChar: L
Encoding: 76 76 59
Width: 1200
GlyphClass: 2
Flags: W
AnchorPoint: "Anchor-5" 528 0 basechar 0
AnchorPoint: "Anchor-4" 575 1450 basechar 0
AnchorPoint: "Anchor-3" 0 0 basechar 0
LayerCount: 2
Back
Fore
SplineSet
1052 292 m 0,1,2
 1050 282 1050 282 1044 262 c 0,3,4
 1014 152 1014 152 989 0 c 1,5,6
 850 6 850 6 520 6 c 0,7,8
 127 6 127 6 -72 0 c 1,9,-1
 -61 41 l 1,10,11
 13 44 13 44 49 57 c 128,-1,12
 85 70 85 70 107 105 c 128,-1,13
 129 140 129 140 150 217 c 2,14,-1
 422 1233 l 2,15,16
 440 1298 440 1298 440 1333 c 0,17,18
 440 1363 440 1363 426.5 1378.5 c 128,-1,19
 413 1394 413 1394 384.5 1400.5 c 128,-1,20
 356 1407 356 1407 303 1409 c 1,21,-1
 313 1450 l 1,22,23
 400 1444 400 1444 575 1444 c 0,24,25
 740 1444 740 1444 836 1450 c 1,26,-1
 825 1409 l 1,27,28
 750 1406 750 1406 713.5 1393 c 128,-1,29
 677 1380 677 1380 655 1345 c 128,-1,30
 633 1310 633 1310 612 1233 c 2,31,-1
 340 217 l 2,32,33
 322 153 322 153 322 118 c 0,34,35
 322 88 322 88 336 73 c 128,-1,36
 350 58 350 58 379 52.5 c 128,-1,37
 408 47 408 47 461 47 c 2,38,-1
 610 47 l 2,39,40
 738 47 738 47 814 83 c 128,-1,41
 890 119 890 119 941.5 198.5 c 128,-1,42
 993 278 993 278 1049 430 c 1,43,-1
 1096 430 l 1,44,0
 1083 396 1083 396 1052 292 c 0,1,2
EndSplineSet
Substitution2: "'c2sc' Capitals to Small Capitals lookup 23 subtable" l.smcp
Substitution2: "'aalt' Access All Alternates lookup 0 subtable" l.smcp
Position2: "'cpsp' Capital Spacing lookup 0 subtable" dx=20 dy=0 dh=20 dv=0
EndChar
StartChar: M
Encoding: 77 77 65
Width: 1778
GlyphClass: 2
Flags: W
LayerCount: 2
Back
Fore
SplineSet
1911 1450 m 1,1,-1
 1901 1409 l 1,2,3
 1826 1406 1826 1406 1789.5 1393 c 128,-1,4
 1753 1380 1753 1380 1731.5 1345 c 128,-1,5
 1710 1310 1710 1310 1690 1233 c 2,6,-1
 1419 217 l 2,7,8
 1402 152 1402 152 1402 119 c 0,9,10
 1402 88 1402 88 1416 72 c 128,-1,11
 1430 56 1430 56 1458.5 49.5 c 128,-1,12
 1487 43 1487 43 1540 41 c 1,13,-1
 1532 0 l 1,14,15
 1436 6 1436 6 1278 6 c 0,16,17
 1098 6 1098 6 1012 0 c 1,18,-1
 1020 41 l 1,19,20
 1095 44 1095 44 1131.5 57 c 128,-1,21
 1168 70 1168 70 1189.5 105 c 128,-1,22
 1211 140 1211 140 1231 217 c 2,23,-1
 1528 1321 l 1,24,-1
 678 -10 l 1,25,-1
 633 -10 l 1,26,-1
 494 1337 l 1,27,-1
 203 238 l 2,28,29
 185 168 185 168 185 135 c 0,30,31
 185 85 185 85 219.5 64.5 c 128,-1,32
 254 44 254 44 340 41 c 1,33,-1
 330 0 l 1,34,35
 260 6 260 6 123 6 c 0,36,37
 1 6 1 6 -70 0 c 1,38,-1
 -59 41 l 1,39,40
 13 44 13 44 51.5 61.5 c 128,-1,41
 90 79 90 79 112.5 119 c 128,-1,42
 135 159 135 159 156 238 c 2,43,-1
 422 1233 l 2,44,45
 439 1298 439 1298 439 1331 c 0,46,47
 439 1362 439 1362 425 1378 c 128,-1,48
 411 1394 411 1394 382.5 1400.5 c 128,-1,49
 354 1407 354 1407 301 1409 c 1,50,-1
 311 1450 l 1,51,52
 376 1444 376 1444 494 1444 c 0,53,54
 603 1444 603 1444 674 1450 c 1,55,-1
 786 236 l 1,56,-1
 1556 1444 l 1,57,-1
 1655 1444 l 2,58,0
 1812 1444 1812 1444 1911 1450 c 1,1,-1
EndSplineSet
Substitution2: "'c2sc' Capitals to Small Capitals lookup 23 subtable" m.smcp
Substitution2: "'aalt' Access All Alternates lookup 0 subtable" m.smcp
Position2: "'cpsp' Capital Spacing lookup 0 subtable" dx=20 dy=0 dh=20 dv=0
EndChar
StartChar: N
Encoding: 78 78 66
Width: 1577
GlyphClass: 2
Flags: W
AnchorPoint: "Anchor-5" 592 0 basechar 0
AnchorPoint: "Anchor-4" 1061 1450 basechar 0
AnchorPoint: "Anchor-3" 0 0 basechar 0
LayerCount: 2
Back
Fore
SplineSet
1757.5 1515 m 128,-1,1
 1786 1486 1786 1486 1786 1440 c 0,2,3
 1786 1404 1786 1404 1772 1370 c 128,-1,4
 1758 1336 1758 1336 1730.5 1314 c 128,-1,5
 1703 1292 1703 1292 1665 1292 c 0,6,7
 1624 1292 1624 1292 1605.5 1316 c 128,-1,8
 1587 1340 1587 1340 1587 1372 c 0,9,10
 1587 1405 1587 1405 1606 1439.5 c 128,-1,11
 1625 1474 1625 1474 1653 1501 c 1,12,-1
 1647 1501 l 2,13,14
 1547 1498 1547 1498 1479 1397 c 0,15,16
 1388 1261 1388 1261 1290 920 c 128,-1,17
 1192 579 1192 579 1067 -10 c 1,18,-1
 1022 -10 l 1,19,-1
 555 1309 l 1,20,21
 456 798 456 798 366 442 c 128,-1,22
 276 86 276 86 195 -23 c 0,23,24
 148 -83 148 -83 98.5 -117.5 c 128,-1,25
 49 -152 49 -152 -25 -152 c 0,26,27
 -147 -152 -147 -152 -147 -45 c 0,28,29
 -147 -10 -147 -10 -133 23.5 c 128,-1,30
 -119 57 -119 57 -92 78.5 c 128,-1,31
 -65 100 -65 100 -27 100 c 0,32,33
 15 100 15 100 33 76 c 128,-1,34
 51 52 51 52 51 20 c 0,35,36
 51 -13 51 -13 32.5 -47.5 c 128,-1,37
 14 -82 14 -82 -14 -109 c 1,38,-1
 -8 -109 l 1,39,40
 98 -105 98 -105 162 -2 c 0,41,42
 241 121 241 121 324 441.5 c 128,-1,43
 407 762 407 762 506 1278 c 0,44,45
 510 1302 510 1302 510 1324 c 0,46,47
 510 1358 510 1358 495.5 1375.5 c 128,-1,48
 481 1393 481 1393 448 1400 c 128,-1,49
 415 1407 415 1407 352 1409 c 1,50,-1
 362 1450 l 1,51,52
 428 1444 428 1444 545 1444 c 0,53,54
 640 1444 640 1444 711 1450 c 1,55,-1
 1098 318 l 1,56,57
 1186 711 1186 711 1270.5 999 c 128,-1,58
 1355 1287 1355 1287 1442 1413 c 0,59,60
 1532 1544 1532 1544 1663 1544 c 0,61,0
 1729 1544 1729 1544 1757.5 1515 c 128,-1,1
EndSplineSet
Substitution2: "'c2sc' Capitals to Small Capitals lookup 23 subtable" n.smcp
Substitution2: "'aalt' Access All Alternates lookup 0 subtable" n.smcp
Position2: "'cpsp' Capital Spacing lookup 0 subtable" dx=20 dy=0 dh=20 dv=0
EndChar
StartChar: O
Encoding: 79 79 72
Width: 1493
GlyphClass: 2
Flags: W
AnchorPoint: "Anchor-5" 604 0 basechar 0
AnchorPoint: "Anchor-4" 1010 1450 basechar 0
AnchorPoint: "Anchor-3" 0 0 basechar 0
LayerCount: 2
Back
Fore
SplineSet
219 932 m 128,-1,1
 328 1169 328 1169 523.5 1324 c 128,-1,2
 719 1479 719 1479 964 1479 c 0,3,4
 1115 1479 1115 1479 1223.5 1421 c 128,-1,5
 1332 1363 1332 1363 1389.5 1252 c 128,-1,6
 1447 1141 1447 1141 1447 985 c 0,7,8
 1447 754 1447 754 1337 517.5 c 128,-1,9
 1227 281 1227 281 1031 126 c 128,-1,10
 835 -29 835 -29 591 -29 c 0,11,12
 440 -29 440 -29 332 29 c 128,-1,13
 224 87 224 87 167 197.5 c 128,-1,14
 110 308 110 308 110 463 c 0,15,0
 110 695 110 695 219 932 c 128,-1,1
647.5 1294.5 m 128,-1,17
 504 1147 504 1147 415.5 913 c 128,-1,18
 327 679 327 679 327 436 c 0,19,20
 327 304 327 304 362.5 207.5 c 128,-1,21
 398 111 398 111 462 59.5 c 128,-1,22
 526 8 526 8 609 8 c 0,23,24
 764 8 764 8 907.5 155.5 c 128,-1,25
 1051 303 1051 303 1139.5 537 c 128,-1,26
 1228 771 1228 771 1228 1014 c 0,27,28
 1228 1146 1228 1146 1192 1242.5 c 128,-1,29
 1156 1339 1156 1339 1092 1390.5 c 128,-1,30
 1028 1442 1028 1442 945 1442 c 0,31,16
 791 1442 791 1442 647.5 1294.5 c 128,-1,17
EndSplineSet
Substitution2: "Single Substitution lookup 29 subtable" ordmasculine
Substitution2: "'c2sc' Capitals to Small Capitals lookup 23 subtable" o.smcp
AlternateSubs2: "'aalt' Access All Alternates lookup 1 subtable" ordmasculine o.smcp
Position2: "'cpsp' Capital Spacing lookup 0 subtable" dx=20 dy=0 dh=20 dv=0
EndChar
StartChar: P
Encoding: 80 80 83
Width: 1206
GlyphClass: 2
Flags: W
AnchorPoint: "Anchor-5" 188 0 basechar 0
AnchorPoint: "Anchor-4" 829 1450 basechar 0
AnchorPoint: "Anchor-3" 0 0 basechar 0
LayerCount: 2
Back
Fore
SplineSet
1166.5 1365.5 m 128,-1,1
 1270 1283 1270 1283 1270 1139 c 0,2,3
 1270 979 1270 979 1172.5 852.5 c 128,-1,4
 1075 726 1075 726 899 654 c 128,-1,5
 723 582 723 582 498 582 c 2,6,-1
 437 582 l 1,7,-1
 340 217 l 2,8,9
 320 139 320 139 320 114 c 0,10,11
 320 76 320 76 350.5 59.5 c 128,-1,12
 381 43 381 43 461 41 c 1,13,-1
 453 0 l 1,14,15
 357 6 357 6 199 6 c 0,16,17
 19 6 19 6 -68 0 c 1,18,-1
 -59 41 l 1,19,20
 15 44 15 44 51.5 57 c 128,-1,21
 88 70 88 70 110 105 c 128,-1,22
 132 140 132 140 152 217 c 2,23,-1
 422 1233 l 2,24,25
 440 1298 440 1298 440 1331 c 0,26,27
 440 1373 440 1373 409.5 1390.5 c 128,-1,28
 379 1408 379 1408 301 1409 c 1,29,-1
 311 1450 l 1,30,31
 395 1444 395 1444 563 1444 c 0,32,33
 612 1444 612 1444 710 1446 c 0,34,35
 810 1448 810 1448 862 1448 c 0,36,0
 1063 1448 1063 1448 1166.5 1365.5 c 128,-1,1
934 772.5 m 128,-1,38
 1063 922 1063 922 1063 1171 c 0,39,40
 1063 1293 1063 1293 1001 1351 c 128,-1,41
 939 1409 939 1409 803 1409 c 0,42,43
 741 1409 741 1409 706.5 1394 c 128,-1,44
 672 1379 672 1379 650.5 1342 c 128,-1,45
 629 1305 629 1305 610 1233 c 2,46,-1
 448 623 l 1,47,-1
 518 623 l 2,48,37
 805 623 805 623 934 772.5 c 128,-1,38
EndSplineSet
Substitution2: "'c2sc' Capitals to Small Capitals lookup 23 subtable" p.smcp
Substitution2: "'aalt' Access All Alternates lookup 0 subtable" p.smcp
Position2: "'cpsp' Capital Spacing lookup 0 subtable" dx=20 dy=0 dh=20 dv=0
EndChar
StartChar: Q
Encoding: 81 81 85
Width: 1599
GlyphClass: 2
Flags: W
LayerCount: 2
Back
Fore
SplineSet
1398.5 71 m 128,-1,1
 1427 40 1427 40 1427 -14 c 0,2,3
 1427 -104 1427 -104 1347.5 -190.5 c 128,-1,4
 1268 -277 1268 -277 1145.5 -331 c 128,-1,5
 1023 -385 1023 -385 903 -385 c 0,6,7
 803 -385 803 -385 716.5 -346 c 128,-1,8
 630 -307 630 -307 562 -249.5 c 128,-1,9
 494 -192 494 -192 413 -107 c 1,10,11
 241 -168 241 -168 121 -168 c 0,12,13
 20 -168 20 -168 -36 -127.5 c 128,-1,14
 -92 -87 -92 -87 -92 -16 c 0,15,16
 -92 37 -92 37 -59.5 78.5 c 128,-1,17
 -27 120 -27 120 30 143 c 128,-1,18
 87 166 87 166 158 166 c 0,19,20
 231 166 231 166 294.5 142 c 128,-1,21
 358 118 358 118 410 82.5 c 128,-1,22
 462 47 462 47 540 -15 c 1,23,24
 742 87 742 87 923 259 c 128,-1,25
 1104 431 1104 431 1215.5 637.5 c 128,-1,26
 1327 844 1327 844 1327 1042 c 0,27,28
 1327 1162 1327 1162 1286.5 1252 c 128,-1,29
 1246 1342 1246 1342 1167 1392 c 128,-1,30
 1088 1442 1088 1442 977 1442 c 0,31,32
 826 1442 826 1442 707 1354 c 128,-1,33
 588 1266 588 1266 522.5 1126 c 128,-1,34
 457 986 457 986 457 838 c 0,35,36
 457 691 457 691 520.5 618 c 128,-1,37
 584 545 584 545 690 545 c 0,38,39
 780 545 780 545 854 594 c 128,-1,40
 928 643 928 643 970 718.5 c 128,-1,41
 1012 794 1012 794 1012 868 c 0,42,43
 1012 925 1012 925 997 950 c 1,44,45
 976 908 976 908 933.5 883 c 128,-1,46
 891 858 891 858 846 858 c 256,47,48
 801 858 801 858 775.5 884.5 c 128,-1,49
 750 911 750 911 750 954 c 0,50,51
 750 1008 750 1008 790 1043.5 c 128,-1,52
 830 1079 830 1079 891 1079 c 0,53,54
 964 1079 964 1079 1008.5 1024 c 128,-1,55
 1053 969 1053 969 1053 879 c 0,56,57
 1053 778 1053 778 996.5 690.5 c 128,-1,58
 940 603 940 603 839 550.5 c 128,-1,59
 738 498 738 498 612 498 c 0,60,61
 497 498 497 498 415 543 c 128,-1,62
 333 588 333 588 290.5 669 c 128,-1,63
 248 750 248 750 248 856 c 0,64,65
 248 1031 248 1031 357.5 1174 c 128,-1,66
 467 1317 467 1317 643.5 1398 c 128,-1,67
 820 1479 820 1479 1012 1479 c 0,68,69
 1174 1479 1174 1479 1293.5 1428 c 128,-1,70
 1413 1377 1413 1377 1476.5 1281.5 c 128,-1,71
 1540 1186 1540 1186 1540 1055 c 0,72,73
 1540 848 1540 848 1397.5 636.5 c 128,-1,74
 1255 425 1255 425 1032.5 248.5 c 128,-1,75
 810 72 810 72 572 -41 c 1,76,77
 652 -104 652 -104 721 -147 c 128,-1,78
 790 -190 790 -190 878.5 -218 c 128,-1,79
 967 -246 967 -246 1073 -246 c 0,80,81
 1175 -246 1175 -246 1248.5 -214.5 c 128,-1,82
 1322 -183 1322 -183 1368 -106 c 1,83,84
 1339 -119 1339 -119 1305 -119 c 0,85,86
 1258 -119 1258 -119 1231 -91 c 128,-1,87
 1204 -63 1204 -63 1204 -20 c 0,88,89
 1204 11 1204 11 1220 39.5 c 128,-1,90
 1236 68 1236 68 1263.5 85 c 128,-1,91
 1291 102 1291 102 1325 102 c 0,92,0
 1370 102 1370 102 1398.5 71 c 128,-1,1
389 -81 m 1,94,95
 321 -10 321 -10 279 29 c 128,-1,96
 237 68 237 68 190.5 94.5 c 128,-1,97
 144 121 144 121 96 121 c 0,98,99
 59 121 59 121 24.5 105 c 128,-1,100
 -10 89 -10 89 -31.5 58.5 c 128,-1,101
 -53 28 -53 28 -53 -12 c 0,102,103
 -53 -133 -53 -133 143 -133 c 0,104,93
 248 -133 248 -133 389 -81 c 1,94,95
EndSplineSet
Substitution2: "'c2sc' Capitals to Small Capitals lookup 23 subtable" q.smcp
Substitution2: "'aalt' Access All Alternates lookup 0 subtable" q.smcp
Position2: "'cpsp' Capital Spacing lookup 0 subtable" dx=20 dy=0 dh=20 dv=0
EndChar
StartChar: R
Encoding: 82 82 86
Width: 1360
GlyphClass: 2
Flags: W
AnchorPoint: "Anchor-5" 600 0 basechar 0
AnchorPoint: "Anchor-4" 827 1450 basechar 0
AnchorPoint: "Anchor-3" 0 0 basechar 0
LayerCount: 2
Back
Fore
SplineSet
1260 248 m 1,0,-1
 1251 221 l 1,1,2
 1215 92 1215 92 1158.5 31.5 c 128,-1,3
 1102 -29 1102 -29 1008 -29 c 0,4,5
 947 -29 947 -29 905 -4.5 c 128,-1,6
 863 20 863 20 842.5 61 c 128,-1,7
 822 102 822 102 822 150 c 2,8,-1
 823 168 l 1,9,-1
 840 397 l 2,10,11
 843 431 843 431 843 461 c 0,12,13
 843 548 843 548 812 595.5 c 128,-1,14
 781 643 781 643 700 665 c 128,-1,15
 619 687 619 687 465 688 c 1,16,-1
 340 217 l 2,17,18
 321 146 321 146 321 117 c 0,19,20
 321 76 321 76 351.5 59 c 128,-1,21
 382 42 382 42 461 41 c 1,22,-1
 453 0 l 1,23,24
 357 6 357 6 199 6 c 0,25,26
 19 6 19 6 -68 0 c 1,27,-1
 -59 41 l 1,28,29
 15 44 15 44 51.5 57 c 128,-1,30
 88 70 88 70 110 105 c 128,-1,31
 132 140 132 140 152 217 c 2,32,-1
 422 1233 l 2,33,34
 440 1298 440 1298 440 1329 c 0,35,36
 440 1372 440 1372 409 1390 c 128,-1,37
 378 1408 378 1408 301 1409 c 1,38,-1
 311 1450 l 1,39,40
 395 1444 395 1444 563 1444 c 0,41,42
 612 1444 612 1444 710 1446 c 0,43,44
 810 1448 810 1448 862 1448 c 0,45,46
 1063 1448 1063 1448 1166.5 1370.5 c 128,-1,47
 1270 1293 1270 1293 1270 1159 c 0,48,49
 1270 1048 1270 1048 1204.5 954.5 c 128,-1,50
 1139 861 1139 861 1018 796.5 c 128,-1,51
 897 732 897 732 735 705 c 1,52,53
 759 702 759 702 807 694 c 0,54,55
 887 679 887 679 935.5 654.5 c 128,-1,56
 984 630 984 630 1009 585 c 128,-1,57
 1034 540 1034 540 1034 467 c 0,58,59
 1034 454 1034 454 1032 424 c 2,60,-1
 1016 215 l 2,61,62
 1014 187 1014 187 1014 173 c 0,63,64
 1014 47 1014 47 1079 47 c 0,65,66
 1114 47 1114 47 1142 89 c 128,-1,67
 1170 131 1170 131 1202 219 c 2,68,-1
 1212 248 l 1,69,-1
 1260 248 l 1,0,-1
539 729 m 2,70,71
 815 729 815 729 939 849.5 c 128,-1,72
 1063 970 1063 970 1063 1171 c 0,73,74
 1063 1293 1063 1293 1001 1351 c 128,-1,75
 939 1409 939 1409 803 1409 c 0,76,77
 741 1409 741 1409 706.5 1394 c 128,-1,78
 672 1379 672 1379 650.5 1342 c 128,-1,79
 629 1305 629 1305 610 1233 c 2,80,-1
 476 729 l 1,81,-1
 539 729 l 2,70,71
EndSplineSet
Substitution2: "'c2sc' Capitals to Small Capitals lookup 23 subtable" r.smcp
Substitution2: "'aalt' Access All Alternates lookup 0 subtable" r.smcp
Position2: "'cpsp' Capital Spacing lookup 0 subtable" dx=20 dy=0 dh=20 dv=0
EndChar
StartChar: S
Encoding: 83 83 90
Width: 1135
GlyphClass: 2
Flags: W
AnchorPoint: "Anchor-5" 440 0 basechar 0
AnchorPoint: "Anchor-4" 786 1450 basechar 0
AnchorPoint: "Anchor-3" 0 0 basechar 0
LayerCount: 2
Back
Fore
SplineSet
1059 1047 m 1,1,-1
 1018 1047 l 1,2,3
 1030 1104 1030 1104 1030 1163 c 0,4,5
 1030 1241 1030 1241 999.5 1303.5 c 128,-1,6
 969 1366 969 1366 903.5 1403 c 128,-1,7
 838 1440 838 1440 739 1440 c 0,8,9
 610 1440 610 1440 531.5 1374 c 128,-1,10
 453 1308 453 1308 453 1180 c 0,11,12
 453 1110 453 1110 486.5 1045.5 c 128,-1,13
 520 981 520 981 569 928 c 128,-1,14
 618 875 618 875 703 796 c 0,15,16
 792 713 792 713 845 655.5 c 128,-1,17
 898 598 898 598 934.5 526 c 128,-1,18
 971 454 971 454 971 373 c 0,19,20
 971 239 971 239 894 148.5 c 128,-1,21
 817 58 817 58 698.5 14.5 c 128,-1,22
 580 -29 580 -29 453 -29 c 0,23,24
 345 -29 345 -29 279.5 -2.5 c 128,-1,25
 214 24 214 24 162 66 c 0,26,27
 123 96 123 96 88 96 c 0,28,29
 64 96 64 96 47 72 c 128,-1,30
 30 48 30 48 4 -14 c 1,31,-1
 -37 -14 l 1,32,33
 32 149 32 149 102 477 c 1,34,-1
 143 477 l 1,35,36
 132 416 132 416 128 382.5 c 128,-1,37
 124 349 124 349 125 311 c 0,38,39
 138 12 138 12 459 12 c 0,40,41
 598 12 598 12 679 75.5 c 128,-1,42
 760 139 760 139 760 268 c 0,43,44
 760 346 760 346 729 412 c 128,-1,45
 698 478 698 478 653.5 528.5 c 128,-1,46
 609 579 609 579 532 652 c 0,47,48
 451 729 451 729 402.5 784.5 c 128,-1,49
 354 840 354 840 320.5 914.5 c 128,-1,50
 287 989 287 989 287 1079 c 0,51,52
 287 1205 287 1205 351 1295.5 c 128,-1,53
 415 1386 415 1386 518.5 1432.5 c 128,-1,54
 622 1479 622 1479 737 1479 c 0,55,56
 821 1479 821 1479 882.5 1458.5 c 128,-1,57
 944 1438 944 1438 1004 1393 c 0,58,59
 1051 1356 1051 1356 1071 1356 c 0,60,61
 1088 1356 1088 1356 1103 1381 c 128,-1,62
 1118 1406 1118 1406 1139 1464 c 1,63,-1
 1180 1464 l 1,64,0
 1106 1284 1106 1284 1059 1047 c 1,1,-1
EndSplineSet
Substitution2: "'c2sc' Capitals to Small Capitals lookup 23 subtable" s.smcp
Substitution2: "'aalt' Access All Alternates lookup 0 subtable" s.smcp
Position2: "'cpsp' Capital Spacing lookup 0 subtable" dx=20 dy=0 dh=20 dv=0
EndChar
StartChar: T
Encoding: 84 84 97
Width: 1350
GlyphClass: 2
Flags: W
AnchorPoint: "Anchor-5" 575 0 basechar 0
AnchorPoint: "Anchor-4" 956 1450 basechar 0
AnchorPoint: "Anchor-3" 0 0 basechar 0
LayerCount: 2
Back
Fore
SplineSet
1640.5 1645 m 128,-1,1
 1664 1617 1664 1617 1664 1575 c 0,2,3
 1664 1530 1664 1530 1637.5 1492 c 128,-1,4
 1611 1454 1611 1454 1568 1427 c 0,5,6
 1459 1360 1459 1360 1244 1360 c 0,7,8
 1155 1360 1155 1360 1034 1374 c 1,9,-1
 732 238 l 2,10,11
 714 173 714 173 714 134 c 0,12,13
 714 99 714 99 731 79.5 c 128,-1,14
 748 60 748 60 784.5 51.5 c 128,-1,15
 821 43 821 43 886 41 c 1,16,-1
 878 0 l 1,17,18
 770 6 770 6 572 6 c 0,19,20
 372 6 372 6 273 0 c 1,21,-1
 282 41 l 1,22,23
 369 44 369 44 416.5 62 c 128,-1,24
 464 80 464 80 491 120 c 128,-1,25
 518 160 518 160 542 238 c 2,26,-1
 851 1398 l 1,27,28
 692 1421 692 1421 587 1421 c 0,29,30
 409 1421 409 1421 357 1386 c 1,31,32
 373 1365 373 1365 383.5 1331.5 c 128,-1,33
 394 1298 394 1298 394 1268 c 0,34,35
 394 1221 394 1221 368 1185 c 128,-1,36
 342 1149 342 1149 292 1149 c 0,37,38
 248 1149 248 1149 225 1176.5 c 128,-1,39
 202 1204 202 1204 202 1251 c 0,40,41
 202 1358 202 1358 310 1411 c 0,42,43
 406 1458 406 1458 585 1458 c 0,44,45
 715 1458 715 1458 926 1429 c 0,46,47
 1140 1401 1140 1401 1259 1401 c 0,48,49
 1350 1401 1350 1401 1411.5 1411 c 128,-1,50
 1473 1421 1473 1421 1522 1446 c 1,51,52
 1472 1498 1472 1498 1472 1561 c 0,53,54
 1472 1607 1472 1607 1497.5 1640 c 128,-1,55
 1523 1673 1523 1673 1572 1673 c 0,56,0
 1617 1673 1617 1673 1640.5 1645 c 128,-1,1
EndSplineSet
Substitution2: "'c2sc' Capitals to Small Capitals lookup 23 subtable" t.smcp
Substitution2: "'aalt' Access All Alternates lookup 0 subtable" t.smcp
Position2: "'cpsp' Capital Spacing lookup 0 subtable" dx=20 dy=0 dh=20 dv=0
EndChar
StartChar: U
Encoding: 85 85 102
Width: 1397
GlyphClass: 2
Flags: W
AnchorPoint: "Anchor-5" 578 0 basechar 0
AnchorPoint: "Anchor-4" 969 1450 basechar 0
AnchorPoint: "Anchor-3" 729 0 basechar 0
LayerCount: 2
Back
Fore
SplineSet
1305 1303 m 0,1,2
 1305 1359 1305 1359 1270 1382 c 128,-1,3
 1235 1405 1235 1405 1154 1409 c 1,4,-1
 1164 1450 l 1,5,6
 1234 1444 1234 1444 1371 1444 c 0,7,8
 1494 1444 1494 1444 1564 1450 c 1,9,-1
 1553 1409 l 1,10,11
 1481 1406 1481 1406 1441.5 1388 c 128,-1,12
 1402 1370 1402 1370 1378.5 1330 c 128,-1,13
 1355 1290 1355 1290 1336 1212 c 2,14,-1
 1177 596 l 2,15,16
 1102 311 1102 311 976 162 c 0,17,18
 901 74 901 74 791 22.5 c 128,-1,19
 681 -29 681 -29 556 -29 c 0,20,21
 337 -29 337 -29 241 82 c 0,22,23
 169 162 169 162 169 290 c 0,24,25
 169 396 169 396 220 590 c 2,26,-1
 390 1233 l 2,27,28
 407 1298 407 1298 407 1331 c 0,29,30
 407 1362 407 1362 393.5 1378 c 128,-1,31
 380 1394 380 1394 351 1400.5 c 128,-1,32
 322 1407 322 1407 269 1409 c 1,33,-1
 282 1450 l 1,34,35
 364 1444 364 1444 546 1444 c 0,36,37
 703 1444 703 1444 802 1450 c 1,38,-1
 790 1409 l 1,39,40
 715 1406 715 1406 678 1393 c 128,-1,41
 641 1380 641 1380 620 1345 c 128,-1,42
 599 1310 599 1310 579 1233 c 2,43,-1
 398 555 l 2,44,45
 353 378 353 378 353 278 c 0,46,47
 353 165 353 165 408.5 104 c 128,-1,48
 464 43 464 43 595 43 c 0,49,50
 810 43 810 43 933.5 182.5 c 128,-1,51
 1057 322 1057 322 1123 573 c 2,52,-1
 1291 1212 l 2,53,0
 1305 1268 1305 1268 1305 1303 c 0,1,2
EndSplineSet
Substitution2: "'c2sc' Capitals to Small Capitals lookup 23 subtable" u.smcp
Substitution2: "'aalt' Access All Alternates lookup 0 subtable" u.smcp
Position2: "'cpsp' Capital Spacing lookup 0 subtable" dx=20 dy=0 dh=20 dv=0
EndChar
StartChar: V
Encoding: 86 86 113
Width: 1294
GlyphClass: 2
Flags: W
LayerCount: 2
Back
Fore
SplineSet
1519 1450 m 1,1,-1
 1508 1409 l 1,2,3
 1399 1386 1399 1386 1302 1231 c 2,4,-1
 495 -10 l 1,5,-1
 464 -10 l 1,6,-1
 302 1278 l 2,7,8
 294 1345 294 1345 263 1376 c 128,-1,9
 232 1407 232 1407 196 1409 c 1,10,-1
 206 1450 l 1,11,12
 286 1444 286 1444 427 1444 c 0,13,14
 583 1444 583 1444 673 1450 c 1,15,-1
 663 1409 l 1,16,17
 599 1406 599 1406 565 1397.5 c 128,-1,18
 531 1389 531 1389 513 1364.5 c 128,-1,19
 495 1340 495 1340 495 1290 c 0,20,21
 495 1277 495 1277 499 1237 c 2,22,-1
 615 248 l 1,23,-1
 1183 1118 l 2,24,25
 1271 1253 1271 1253 1271 1321 c 0,26,27
 1271 1366 1271 1366 1233.5 1386.5 c 128,-1,28
 1196 1407 1196 1407 1119 1409 c 1,29,-1
 1129 1450 l 1,30,31
 1243 1444 1243 1444 1363 1444 c 0,32,0
 1454 1444 1454 1444 1519 1450 c 1,1,-1
EndSplineSet
Substitution2: "'c2sc' Capitals to Small Capitals lookup 23 subtable" v.smcp
Substitution2: "'aalt' Access All Alternates lookup 0 subtable" v.smcp
Position2: "'cpsp' Capital Spacing lookup 0 subtable" dx=20 dy=0 dh=20 dv=0
EndChar
StartChar: W
Encoding: 87 87 114
Width: 1847
GlyphClass: 2
Flags: W
AnchorPoint: "Anchor-5" 0 0 basechar 0
AnchorPoint: "Anchor-4" 1171 1450 basechar 0
AnchorPoint: "Anchor-3" 0 0 basechar 0
LayerCount: 2
Back
Fore
SplineSet
2035 1450 m 1,1,-1
 2024 1409 l 1,2,3
 1903 1384 1903 1384 1830 1231 c 2,4,-1
 1218 -10 l 1,5,-1
 1185 -10 l 1,6,-1
 1038 923 l 1,7,-1
 482 -10 l 1,8,-1
 450 -10 l 1,9,-1
 288 1278 l 2,10,11
 270 1405 270 1405 175 1409 c 1,12,-1
 183 1450 l 1,13,14
 267 1444 267 1444 386 1444 c 0,15,16
 534 1444 534 1444 607 1450 c 1,17,-1
 599 1409 l 1,18,19
 536 1405 536 1405 508.5 1380.5 c 128,-1,20
 481 1356 481 1356 481 1290 c 0,21,22
 481 1267 481 1267 484 1237 c 2,23,-1
 599 260 l 1,24,-1
 1028 986 l 1,25,-1
 982 1278 l 2,26,27
 962 1405 962 1405 890 1409 c 1,28,-1
 898 1450 l 1,29,30
 971 1444 971 1444 1080 1444 c 0,31,32
 1257 1444 1257 1444 1342 1450 c 1,33,-1
 1334 1409 l 1,34,35
 1272 1406 1272 1406 1238.5 1397 c 128,-1,36
 1205 1388 1205 1388 1189 1366 c 128,-1,37
 1173 1344 1173 1344 1173 1302 c 0,38,39
 1173 1275 1173 1275 1179 1237 c 2,40,-1
 1325 306 l 1,41,-1
 1725 1118 l 2,42,43
 1793 1254 1793 1254 1793 1318 c 0,44,45
 1793 1368 1793 1368 1755 1387.5 c 128,-1,46
 1717 1407 1717 1407 1635 1409 c 1,47,-1
 1646 1450 l 1,48,49
 1758 1444 1758 1444 1879 1444 c 0,50,0
 1971 1444 1971 1444 2035 1450 c 1,1,-1
EndSplineSet
Substitution2: "'c2sc' Capitals to Small Capitals lookup 23 subtable" w.smcp
Substitution2: "'aalt' Access All Alternates lookup 0 subtable" w.smcp
Position2: "'cpsp' Capital Spacing lookup 0 subtable" dx=20 dy=0 dh=20 dv=0
EndChar
StartChar: X
Encoding: 88 88 119
Width: 1432
GlyphClass: 2
Flags: W
LayerCount: 2
Back
Fore
SplineSet
1505.5 1449.5 m 128,-1,1
 1535 1420 1535 1420 1535 1373 c 0,2,3
 1535 1343 1535 1343 1522 1309 c 128,-1,4
 1509 1275 1509 1275 1481.5 1251 c 128,-1,5
 1454 1227 1454 1227 1413 1227 c 0,6,7
 1374 1227 1374 1227 1354.5 1249.5 c 128,-1,8
 1335 1272 1335 1272 1335 1305 c 0,9,10
 1335 1336 1335 1336 1353.5 1372.5 c 128,-1,11
 1372 1409 1372 1409 1401 1436 c 1,12,-1
 1395 1436 l 2,13,14
 1324 1436 1324 1436 1264 1393 c 0,15,16
 1172 1326 1172 1326 1058 1167 c 128,-1,17
 944 1008 944 1008 839 781 c 1,18,-1
 893 317 l 2,19,20
 905 209 905 209 942 146.5 c 128,-1,21
 979 84 979 84 1055 84 c 0,22,23
 1115 84 1115 84 1152 121.5 c 128,-1,24
 1189 159 1189 159 1219 244 c 2,25,-1
 1253 348 l 1,26,-1
 1294 348 l 1,27,-1
 1241 190 l 2,28,29
 1203 78 1203 78 1141.5 24.5 c 128,-1,30
 1080 -29 1080 -29 991 -29 c 0,31,32
 857 -29 857 -29 798.5 61 c 128,-1,33
 740 151 740 151 723 291 c 2,34,-1
 686 613 l 1,35,36
 605 444 605 444 479 283.5 c 128,-1,37
 353 123 353 123 242 43 c 0,38,39
 147 -29 147 -29 53 -29 c 0,40,41
 -10 -29 -10 -29 -39.5 0.5 c 128,-1,42
 -69 30 -69 30 -69 77 c 0,43,44
 -69 107 -69 107 -56 141 c 128,-1,45
 -43 175 -43 175 -15.5 199 c 128,-1,46
 12 223 12 223 53 223 c 0,47,48
 93 223 93 223 112 200.5 c 128,-1,49
 131 178 131 178 131 145 c 0,50,51
 131 115 131 115 113 78 c 128,-1,52
 95 41 95 41 66 14 c 1,53,-1
 74 14 l 2,54,55
 143 17 143 17 203 57 c 0,56,57
 309 127 309 127 437 287.5 c 128,-1,58
 565 448 565 448 678 680 c 1,59,-1
 625 1133 l 2,60,61
 612 1241 612 1241 575 1303.5 c 128,-1,62
 538 1366 538 1366 463 1366 c 0,63,64
 403 1366 403 1366 366 1328.5 c 128,-1,65
 329 1291 329 1291 299 1206 c 2,66,-1
 264 1102 l 1,67,-1
 223 1102 l 1,68,-1
 276 1260 l 2,69,70
 315 1372 315 1372 376.5 1425.5 c 128,-1,71
 438 1479 438 1479 526 1479 c 0,72,73
 660 1479 660 1479 718.5 1389.5 c 128,-1,74
 777 1300 777 1300 795 1159 c 2,75,-1
 832 843 l 1,76,77
 912 1016 912 1016 1020.5 1172 c 128,-1,78
 1129 1328 1129 1328 1225 1407 c 0,79,80
 1318 1479 1318 1479 1413 1479 c 0,81,0
 1476 1479 1476 1479 1505.5 1449.5 c 128,-1,1
EndSplineSet
Substitution2: "'c2sc' Capitals to Small Capitals lookup 23 subtable" x.smcp
Substitution2: "'aalt' Access All Alternates lookup 0 subtable" x.smcp
Position2: "'cpsp' Capital Spacing lookup 0 subtable" dx=20 dy=0 dh=20 dv=0
EndChar
StartChar: Y
Encoding: 89 89 120
Width: 1372
GlyphClass: 2
Flags: W
AnchorPoint: "Anchor-5" 0 0 basechar 0
AnchorPoint: "Anchor-4" 961 1450 basechar 0
AnchorPoint: "Anchor-3" 0 0 basechar 0
LayerCount: 2
Back
Fore
SplineSet
1520 1447.5 m 128,-1,1
 1547 1416 1547 1416 1547 1369 c 0,2,3
 1547 1339 1547 1339 1534 1306 c 128,-1,4
 1521 1273 1521 1273 1493.5 1250 c 128,-1,5
 1466 1227 1466 1227 1426 1227 c 0,6,7
 1349 1227 1349 1227 1349 1308 c 0,8,9
 1349 1341 1349 1341 1367 1375 c 128,-1,10
 1385 1409 1385 1409 1414 1436 c 1,11,-1
 1408 1436 l 2,12,13
 1353 1433 1353 1433 1295 1391 c 0,14,15
 1188 1313 1188 1313 1064.5 1139.5 c 128,-1,16
 941 966 941 966 827 692 c 1,17,-1
 708 217 l 2,18,19
 691 151 691 151 691 118 c 0,20,21
 691 88 691 88 704.5 72 c 128,-1,22
 718 56 718 56 746.5 49.5 c 128,-1,23
 775 43 775 43 828 41 c 1,24,-1
 818 0 l 1,25,26
 726 6 726 6 564 6 c 0,27,28
 384 6 384 6 296 0 c 1,29,-1
 306 41 l 1,30,31
 380 44 380 44 417 57 c 128,-1,32
 454 70 454 70 476 105.5 c 128,-1,33
 498 141 498 141 517 217 c 2,34,-1
 637 695 l 1,35,36
 564 1366 564 1366 398 1366 c 0,37,38
 363 1366 363 1366 340 1344 c 128,-1,39
 317 1322 317 1322 300 1270 c 2,40,-1
 243 1102 l 1,41,-1
 198 1102 l 1,42,-1
 265 1300 l 2,43,44
 287 1364 287 1364 311 1402 c 128,-1,45
 335 1440 335 1440 372 1459.5 c 128,-1,46
 409 1479 409 1479 466 1479 c 0,47,48
 574 1479 574 1479 640.5 1391 c 128,-1,49
 707 1303 707 1303 744 1145.5 c 128,-1,50
 781 988 781 988 808 737 c 1,51,52
 956 1109 956 1109 1191 1346 c 0,53,54
 1324 1479 1324 1479 1433 1479 c 0,55,0
 1493 1479 1493 1479 1520 1447.5 c 128,-1,1
EndSplineSet
Substitution2: "'c2sc' Capitals to Small Capitals lookup 23 subtable" y.smcp
Substitution2: "'aalt' Access All Alternates lookup 0 subtable" y.smcp
Position2: "'cpsp' Capital Spacing lookup 0 subtable" dx=20 dy=0 dh=20 dv=0
EndChar
StartChar: Z
Encoding: 90 90 125
Width: 1335
GlyphClass: 2
Flags: W
AnchorPoint: "Anchor-5" 481 0 basechar 0
AnchorPoint: "Anchor-4" 909 1450 basechar 0
AnchorPoint: "Anchor-3" 0 0 basechar 0
LayerCount: 2
Back
Fore
SplineSet
1472 1433 m 0,1,2
 1472 1405 1472 1405 1434 1370.5 c 128,-1,3
 1396 1336 1396 1336 1319 1307 c 1,4,-1
 752 750 l 1,5,-1
 1063 750 l 1,6,-1
 1047 709 l 1,7,-1
 711 709 l 1,8,-1
 131 139 l 1,9,10
 319 250 319 250 485 250 c 0,11,12
 543 250 543 250 588.5 236 c 128,-1,13
 634 222 634 222 703 193 c 0,14,15
 768 164 768 164 816.5 149.5 c 128,-1,16
 865 135 865 135 924 135 c 0,17,18
 992 135 992 135 1027.5 170.5 c 128,-1,19
 1063 206 1063 206 1063 270 c 0,20,21
 1063 390 1063 390 915 420 c 1,22,-1
 924 461 l 1,23,24
 1016 444 1016 444 1078.5 387.5 c 128,-1,25
 1141 331 1141 331 1141 223 c 0,26,27
 1141 150 1141 150 1111 93 c 128,-1,28
 1081 36 1081 36 1024.5 3.5 c 128,-1,29
 968 -29 968 -29 893 -29 c 0,30,31
 846 -29 846 -29 805.5 -14 c 128,-1,32
 765 1 765 1 733 23 c 128,-1,33
 701 45 701 45 654 82 c 0,34,35
 609 118 609 118 578 139.5 c 128,-1,36
 547 161 547 161 508 175.5 c 128,-1,37
 469 190 469 190 424 190 c 0,38,39
 345 190 345 190 281.5 168.5 c 128,-1,40
 218 147 218 147 121 98 c 1,41,42
 84 45 84 45 42.5 12 c 128,-1,43
 1 -21 1 -21 -30 -21 c 0,44,45
 -46 -21 -46 -21 -59 -10 c 0,46,47
 -71 0 -71 0 -71 17 c 0,48,49
 -71 45 -71 45 -33 79.5 c 128,-1,50
 5 114 5 114 82 143 c 1,51,-1
 658 709 l 1,52,-1
 326 709 l 1,53,-1
 340 750 l 1,54,-1
 699 750 l 1,55,-1
 1270 1311 l 1,56,57
 1082 1200 1082 1200 915 1200 c 0,58,59
 857 1200 857 1200 811.5 1214 c 128,-1,60
 766 1228 766 1228 697 1257 c 0,61,62
 631 1286 631 1286 583.5 1300.5 c 128,-1,63
 536 1315 536 1315 477 1315 c 0,64,65
 409 1315 409 1315 373.5 1279.5 c 128,-1,66
 338 1244 338 1244 338 1180 c 0,67,68
 338 1060 338 1060 485 1030 c 1,69,-1
 477 989 l 1,70,71
 385 1006 385 1006 322.5 1062.5 c 128,-1,72
 260 1119 260 1119 260 1227 c 0,73,74
 260 1300 260 1300 290 1357 c 128,-1,75
 320 1414 320 1414 376.5 1446.5 c 128,-1,76
 433 1479 433 1479 508 1479 c 0,77,78
 555 1479 555 1479 595.5 1464 c 128,-1,79
 636 1449 636 1449 668 1427 c 128,-1,80
 700 1405 700 1405 746 1368 c 0,81,82
 793 1331 793 1331 823.5 1310 c 128,-1,83
 854 1289 854 1289 893 1274.5 c 128,-1,84
 932 1260 932 1260 977 1260 c 0,85,86
 1056 1260 1056 1260 1119 1281 c 128,-1,87
 1182 1302 1182 1302 1280 1352 c 1,88,89
 1317 1405 1317 1405 1357.5 1438 c 128,-1,90
 1398 1471 1398 1471 1430 1471 c 0,91,92
 1446 1471 1446 1471 1460 1460 c 0,93,0
 1472 1450 1472 1450 1472 1433 c 0,1,2
EndSplineSet
Substitution2: "'c2sc' Capitals to Small Capitals lookup 23 subtable" z.smcp
Substitution2: "'aalt' Access All Alternates lookup 0 subtable" z.smcp
Position2: "'cpsp' Capital Spacing lookup 0 subtable" dx=20 dy=0 dh=20 dv=0
EndChar
StartChar: bracketright
Encoding: 93 93 641
Width: 614
Flags: W
LayerCount: 2
Back
Fore
SplineSet
-170 -371 m 1,0,-1
 -162 -332 l 1,1,-1
 4 -332 l 1,2,-1
 473 1542 l 1,3,-1
 307 1542 l 1,4,-1
 315 1581 l 1,5,-1
 664 1581 l 1,6,-1
 178 -371 l 1,7,-1
 -170 -371 l 1,0,-1
EndSplineSet
Substitution2: "'case' Case-Sensitive Forms lookup 25 subtable" bracketright.case
Substitution2: "'smcp' Lowercase to Small Capitals lookup 24 subtable" bracketright.smcp
Substitution2: "'c2sc' Capitals to Small Capitals lookup 23 subtable" bracketright.smcp
AlternateSubs2: "'aalt' Access All Alternates lookup 1 subtable" bracketright.smcp bracketright.case
EndChar
StartChar: asciicircum
Encoding: 94 94 761
Width: 1096
Flags: W
LayerCount: 2
Back
Fore
SplineSet
402 770.5 m 128,-1,1
 291 704 291 704 181 659 c 1,2,-1
 173 688 l 1,3,4
 320 751 320 751 450 857 c 128,-1,5
 580 963 580 963 661 1081 c 1,6,-1
 697 1081 l 1,7,8
 715 963 715 963 788.5 857 c 128,-1,9
 862 751 862 751 976 688 c 1,10,-1
 951 659 l 1,11,12
 840 704 840 704 741.5 771 c 128,-1,13
 643 838 643 838 591 905 c 1,14,0
 513 837 513 837 402 770.5 c 128,-1,1
EndSplineSet
Substitution2: "'case' Case-Sensitive Forms lookup 25 subtable" asciicircum.case
Substitution2: "'smcp' Lowercase to Small Capitals lookup 24 subtable" asciicircum.smcp
Substitution2: "'c2sc' Capitals to Small Capitals lookup 23 subtable" asciicircum.smcp
AlternateSubs2: "'aalt' Access All Alternates lookup 1 subtable" asciicircum.smcp asciicircum.case
EndChar
StartChar: grave
Encoding: 96 96 799
Width: 457
Flags: W
LayerCount: 2
Back
Fore
SplineSet
237 1469 m 0,1,2
 161 1559 161 1559 132 1606 c 0,3,4
 111 1640 111 1640 111 1671 c 0,5,6
 111 1712 111 1712 144 1729 c 0,7,8
 159 1735 159 1735 176 1735 c 0,9,10
 229 1735 229 1735 265 1671 c 0,11,12
 288 1631 288 1631 332 1518 c 0,13,14
 400 1346 400 1346 452 1239 c 1,15,-1
 425 1227 l 1,16,0
 349 1335 349 1335 237 1469 c 0,1,2
EndSplineSet
Substitution2: "'case' Case-Sensitive Forms lookup 25 subtable" grave.case
Substitution2: "'smcp' Lowercase to Small Capitals lookup 24 subtable" grave.smcp
Substitution2: "'c2sc' Capitals to Small Capitals lookup 23 subtable" grave.smcp
AlternateSubs2: "'aalt' Access All Alternates lookup 1 subtable" grave.smcp grave.case
EndChar
StartChar: a
Encoding: 97 97 134
Width: 1071
GlyphClass: 2
Flags: W
AnchorPoint: "Anchor-5" 0 0 basechar 0
AnchorPoint: "Anchor-4" 684 1053 basechar 0
AnchorPoint: "Anchor-3" 772 0 basechar 0
LayerCount: 2
Back
Fore
SplineSet
970 334 m 1,0,-1
 919 184 l 2,1,2
 877 70 877 70 814 20.5 c 128,-1,3
 751 -29 751 -29 683 -29 c 0,4,5
 645 -29 645 -29 615.5 -14.5 c 128,-1,6
 586 0 586 0 570 25 c 0,7,8
 553 55 553 55 553 97 c 0,9,10
 553 127 553 127 560 159.5 c 128,-1,11
 567 192 567 192 575 221.5 c 128,-1,12
 583 251 583 251 585 260 c 2,13,-1
 622 409 l 1,14,15
 524 179 524 179 422 75 c 128,-1,16
 320 -29 320 -29 210 -29 c 0,17,18
 116 -29 116 -29 66.5 38.5 c 128,-1,19
 17 106 17 106 17 219 c 0,20,21
 17 385 17 385 105.5 590 c 128,-1,22
 194 795 194 795 334.5 938 c 128,-1,23
 475 1081 475 1081 622 1081 c 0,24,25
 677 1081 677 1081 712 1041 c 128,-1,26
 747 1001 747 1001 753 928 c 1,27,-1
 785 1053 l 1,28,29
 899 1056 899 1056 974 1081 c 1,30,-1
 718 176 l 2,31,32
 703 122 703 122 703 100 c 0,33,34
 703 49 703 49 749 49 c 0,35,36
 839 49 839 49 906 258 c 2,37,-1
 931 334 l 1,38,-1
 970 334 l 1,0,-1
405.5 124.5 m 128,-1,40
 485 212 485 212 561.5 358 c 128,-1,41
 638 504 638 504 688 670 c 1,42,-1
 726 819 l 1,43,44
 728 851 728 851 728 864 c 0,45,46
 728 946 728 946 698.5 994 c 128,-1,47
 669 1042 669 1042 615 1042 c 0,48,49
 528 1042 528 1042 429.5 906.5 c 128,-1,50
 331 771 331 771 264.5 571 c 128,-1,51
 198 371 198 371 198 195 c 0,52,53
 198 110 198 110 216 73.5 c 128,-1,54
 234 37 234 37 269 37 c 0,55,39
 326 37 326 37 405.5 124.5 c 128,-1,40
EndSplineSet
Substitution2: "Single Substitution lookup 29 subtable" ordfeminine
Substitution2: "'smcp' Lowercase to Small Capitals lookup 24 subtable" a.smcp
AlternateSubs2: "'aalt' Access All Alternates lookup 1 subtable" ordfeminine a.smcp
EndChar
StartChar: b
Encoding: 98 98 145
Width: 1032
GlyphClass: 2
Flags: W
LayerCount: 2
Back
Fore
SplineSet
897 1008 m 128,-1,1
 954 935 954 935 954 793 c 0,2,3
 954 627 954 627 880.5 433.5 c 128,-1,4
 807 240 807 240 670 105.5 c 128,-1,5
 533 -29 533 -29 354 -29 c 0,6,7
 293 -29 293 -29 246.5 7 c 128,-1,8
 200 43 200 43 182 108 c 1,9,-1
 8 -33 l 1,10,-1
 -23 -18 l 1,11,12
 2 30 2 30 16 100 c 1,13,-1
 375 1366 l 2,14,15
 383 1400 383 1400 383 1421 c 0,16,17
 383 1463 383 1463 352 1482 c 128,-1,18
 321 1501 321 1501 246 1501 c 1,19,-1
 256 1544 l 1,20,21
 365 1545 365 1545 451 1566 c 128,-1,22
 537 1587 537 1587 616 1628 c 1,23,-1
 351 661 l 1,24,25
 447 881 447 881 541.5 981 c 128,-1,26
 636 1081 636 1081 741 1081 c 0,27,0
 840 1081 840 1081 897 1008 c 128,-1,1
559.5 154 m 128,-1,29
 658 290 658 290 718 485 c 128,-1,30
 778 680 778 680 778 838 c 0,31,32
 778 926 778 926 752.5 971 c 128,-1,33
 727 1016 727 1016 682 1016 c 0,34,35
 627 1016 627 1016 555.5 932.5 c 128,-1,36
 484 849 484 849 411 705.5 c 128,-1,37
 338 562 338 562 277 389 c 1,38,-1
 206 132 l 1,39,40
 231 71 231 71 267 44.5 c 128,-1,41
 303 18 303 18 352 18 c 0,42,28
 461 18 461 18 559.5 154 c 128,-1,29
EndSplineSet
Substitution2: "'smcp' Lowercase to Small Capitals lookup 24 subtable" b.smcp
Substitution2: "'aalt' Access All Alternates lookup 0 subtable" b.smcp
EndChar
StartChar: c
Encoding: 99 99 146
Width: 885
GlyphClass: 2
Flags: W
AnchorPoint: "Anchor-5" 293 0 basechar 0
AnchorPoint: "Anchor-4" 635 1053 basechar 0
AnchorPoint: "Anchor-3" 0 0 basechar 0
LayerCount: 2
Back
Fore
SplineSet
456.5 929.5 m 128,-1,1
 355 819 355 819 290.5 637 c 128,-1,2
 226 455 226 455 226 254 c 0,3,4
 226 154 226 154 264 105.5 c 128,-1,5
 302 57 302 57 370 57 c 0,6,7
 536 57 536 57 677 262 c 1,8,-1
 718 246 l 1,9,10
 676 174 676 174 612 111.5 c 128,-1,11
 548 49 548 49 468.5 10 c 128,-1,12
 389 -29 389 -29 306 -29 c 0,13,14
 180 -29 180 -29 108 48 c 128,-1,15
 36 125 36 125 36 272 c 0,16,17
 36 438 36 438 114 629 c 128,-1,18
 192 820 192 820 333 950.5 c 128,-1,19
 474 1081 474 1081 654 1081 c 0,20,21
 715 1081 715 1081 765.5 1060 c 128,-1,22
 816 1039 816 1039 846 999.5 c 128,-1,23
 876 960 876 960 876 907 c 0,24,25
 876 867 876 867 858 829 c 128,-1,26
 840 791 840 791 806.5 767 c 128,-1,27
 773 743 773 743 730 743 c 0,28,29
 689 743 689 743 667.5 766 c 128,-1,30
 646 789 646 789 646 823 c 0,31,32
 646 881 646 881 691.5 923.5 c 128,-1,33
 737 966 737 966 800 977 c 1,34,35
 756 1040 756 1040 661 1040 c 0,36,0
 558 1040 558 1040 456.5 929.5 c 128,-1,1
EndSplineSet
Substitution2: "'smcp' Lowercase to Small Capitals lookup 24 subtable" c.smcp
Substitution2: "'aalt' Access All Alternates lookup 0 subtable" c.smcp
EndChar
StartChar: d
Encoding: 100 100 152
Width: 1110
GlyphClass: 2
Flags: W
LayerCount: 2
Back
Fore
SplineSet
1005 332 m 1,0,-1
 957 182 l 2,1,2
 922 68 922 68 857.5 19.5 c 128,-1,3
 793 -29 793 -29 720 -29 c 0,4,5
 657 -29 657 -29 624 4 c 128,-1,6
 591 37 591 37 591 99 c 0,7,8
 591 154 591 154 617 258 c 2,9,-1
 644 361 l 1,10,11
 547 155 547 155 448 63 c 128,-1,12
 349 -29 349 -29 237 -29 c 0,13,14
 137 -29 137 -29 80.5 39 c 128,-1,15
 24 107 24 107 24 242 c 0,16,17
 24 411 24 411 113 609.5 c 128,-1,18
 202 808 202 808 354 944.5 c 128,-1,19
 506 1081 506 1081 685 1081 c 0,20,21
 725 1081 725 1081 760.5 1055 c 128,-1,22
 796 1029 796 1029 810 983 c 1,23,-1
 912 1366 l 2,24,25
 921 1398 921 1398 921 1421 c 0,26,27
 921 1462 921 1462 889 1481.5 c 128,-1,28
 857 1501 857 1501 781 1501 c 1,29,-1
 794 1544 l 1,30,31
 903 1545 903 1545 989 1566 c 128,-1,32
 1075 1587 1075 1587 1156 1628 c 1,33,-1
 755 174 l 2,34,35
 743 133 743 133 743 104 c 0,36,37
 743 47 743 47 792 47 c 0,38,39
 833 47 833 47 867.5 94.5 c 128,-1,40
 902 142 902 142 941 256 c 2,41,-1
 966 332 l 1,42,-1
 1005 332 l 1,0,-1
435 120.5 m 128,-1,44
 515 204 515 204 592 344.5 c 128,-1,45
 669 485 669 485 720 646 c 1,46,-1
 796 930 l 1,47,48
 783 983 783 983 754 1008.5 c 128,-1,49
 725 1034 725 1034 687 1034 c 0,50,51
 563 1034 563 1034 452 901.5 c 128,-1,52
 341 769 341 769 273.5 575.5 c 128,-1,53
 206 382 206 382 206 215 c 0,54,55
 206 37 206 37 296 37 c 0,56,43
 355 37 355 37 435 120.5 c 128,-1,44
EndSplineSet
Substitution2: "'smcp' Lowercase to Small Capitals lookup 24 subtable" d.smcp
Substitution2: "'aalt' Access All Alternates lookup 0 subtable" d.smcp
EndChar
StartChar: e
Encoding: 101 101 156
Width: 879
GlyphClass: 2
Flags: W
AnchorPoint: "Anchor-5" 315 0 basechar 0
AnchorPoint: "Anchor-4" 633 1053 basechar 0
AnchorPoint: "Anchor-3" 424 0 basechar 0
LayerCount: 2
Back
Fore
SplineSet
666.5 657 m 128,-1,1
 482 534 482 534 239 452 c 1,2,3
 216 352 216 352 216 254 c 0,4,5
 216 57 216 57 357 57 c 0,6,7
 532 57 532 57 673 262 c 1,8,-1
 706 246 l 1,9,10
 664 174 664 174 600 111.5 c 128,-1,11
 536 49 536 49 456.5 10 c 128,-1,12
 377 -29 377 -29 294 -29 c 0,13,14
 167 -29 167 -29 95.5 45.5 c 128,-1,15
 24 120 24 120 24 260 c 0,16,17
 24 415 24 415 115 610.5 c 128,-1,18
 206 806 206 806 361.5 943.5 c 128,-1,19
 517 1081 517 1081 699 1081 c 0,20,21
 765 1081 765 1081 808 1046 c 128,-1,22
 851 1011 851 1011 851 946 c 0,23,0
 851 780 851 780 666.5 657 c 128,-1,1
507 965.5 m 128,-1,25
 426 889 426 889 355.5 761.5 c 128,-1,26
 285 634 285 634 248 491 c 1,27,28
 451 562 451 562 527 623 c 0,29,30
 603 682 603 682 645 766.5 c 128,-1,31
 687 851 687 851 687 950 c 0,32,33
 687 1005 687 1005 679 1023.5 c 128,-1,34
 671 1042 671 1042 654 1042 c 0,35,24
 588 1042 588 1042 507 965.5 c 128,-1,25
EndSplineSet
Substitution2: "'smcp' Lowercase to Small Capitals lookup 24 subtable" e.smcp
Substitution2: "'aalt' Access All Alternates lookup 0 subtable" e.smcp
EndChar
StartChar: f
Encoding: 102 102 166
Width: 657
GlyphClass: 2
Flags: W
LayerCount: 2
Back
Fore
SplineSet
941.5 1561 m 128,-1,1
 993 1520 993 1520 993 1456 c 0,2,3
 993 1421 993 1421 975 1388.5 c 128,-1,4
 957 1356 957 1356 925.5 1335.5 c 128,-1,5
 894 1315 894 1315 856 1315 c 0,6,7
 817 1315 817 1315 795 1333 c 128,-1,8
 773 1351 773 1351 774 1384 c 0,9,10
 774 1433 774 1433 806 1469.5 c 128,-1,11
 838 1506 838 1506 891 1522 c 1,12,13
 891 1541 891 1541 863.5 1556 c 128,-1,14
 836 1571 836 1571 797 1571 c 0,15,16
 737 1571 737 1571 678 1518 c 0,17,18
 636 1478 636 1478 606 1391.5 c 128,-1,19
 576 1305 576 1305 534 1142 c 0,20,21
 515 1065 515 1065 512 1055 c 2,22,-1
 511 1053 l 1,23,-1
 754 1053 l 1,24,-1
 741 1012 l 1,25,-1
 500 1012 l 1,26,-1
 133 -356 l 1,27,28
 25 -359 25 -359 -51 -385 c 1,29,-1
 323 1012 l 1,30,-1
 137 1012 l 1,31,-1
 150 1053 l 1,32,-1
 333 1053 l 1,33,-1
 334 1055 l 1,34,35
 378 1222 378 1222 427 1327.5 c 128,-1,36
 476 1433 476 1433 543 1499 c 0,37,38
 590 1547 590 1547 658 1574.5 c 128,-1,39
 726 1602 726 1602 799 1602 c 0,40,0
 890 1602 890 1602 941.5 1561 c 128,-1,1
EndSplineSet
Substitution2: "'smcp' Lowercase to Small Capitals lookup 24 subtable" f.smcp
Substitution2: "'aalt' Access All Alternates lookup 0 subtable" f.smcp
EndChar
StartChar: g
Encoding: 103 103 167
Width: 920
GlyphClass: 2
Flags: W
AnchorPoint: "Anchor-5" 0 0 basechar 0
AnchorPoint: "Anchor-4" 586 1053 basechar 0
AnchorPoint: "Anchor-3" 0 0 basechar 0
LayerCount: 2
Back
Fore
SplineSet
1032 1198 m 0,1,2
 1032 1169 1032 1169 1016 1141.5 c 128,-1,3
 1000 1114 1000 1114 974 1096.5 c 128,-1,4
 948 1079 948 1079 918 1079 c 0,5,6
 892 1079 892 1079 876 1095 c 128,-1,7
 860 1111 860 1111 860 1139 c 0,8,9
 860 1180 860 1180 887 1212 c 1,10,11
 883 1216 883 1216 875 1216 c 0,12,13
 858 1216 858 1216 825 1196 c 0,14,15
 769 1160 769 1160 713 1062 c 1,16,17
 866 1014 866 1014 866 852 c 0,18,19
 866 759 866 759 814.5 668 c 128,-1,20
 763 577 763 577 670.5 514.5 c 128,-1,21
 578 452 578 452 460 439 c 1,22,-1
 395 404 l 2,23,24
 302 354 302 354 259.5 323.5 c 128,-1,25
 217 293 217 293 217 264 c 0,26,27
 217 226 217 226 340 195 c 2,28,-1
 489 156 l 2,29,30
 567 135 567 135 616.5 113.5 c 128,-1,31
 666 92 666 92 693.5 60 c 128,-1,32
 721 28 721 28 721 -20 c 0,33,34
 721 -100 721 -100 651.5 -188.5 c 128,-1,35
 582 -277 582 -277 444 -338 c 128,-1,36
 306 -399 306 -399 113 -399 c 0,37,38
 -41 -399 -41 -399 -119 -358.5 c 128,-1,39
 -197 -318 -197 -318 -197 -250 c 0,40,41
 -197 -90 -197 -90 152 47 c 1,42,43
 74 81 74 81 74 154 c 0,44,45
 74 198 74 198 98.5 237.5 c 128,-1,46
 123 277 123 277 191.5 325 c 128,-1,47
 260 373 260 373 389 436 c 1,48,49
 260 439 260 439 185.5 495 c 128,-1,50
 111 551 111 551 111 659 c 0,51,52
 111 745 111 745 159 843.5 c 128,-1,53
 207 942 207 942 311 1011.5 c 128,-1,54
 415 1081 415 1081 573 1081 c 0,55,56
 634 1081 634 1081 678 1071 c 1,57,58
 743 1176 743 1176 811 1225 c 0,59,60
 878 1270 878 1270 944 1270 c 0,61,0
 1032 1270 1032 1270 1032 1198 c 0,1,2
578 544.5 m 128,-1,63
 639 616 639 616 661.5 714.5 c 128,-1,64
 684 813 684 813 684 911 c 0,65,66
 684 1044 684 1044 563 1044 c 0,67,68
 459 1044 459 1044 398 957.5 c 128,-1,69
 337 871 337 871 313 767 c 128,-1,70
 289 663 289 663 289 606 c 0,71,72
 289 535 289 535 320.5 504 c 128,-1,73
 352 473 352 473 412 473 c 0,74,62
 517 473 517 473 578 544.5 c 128,-1,63
-25 -215 m 0,76,77
 -25 -287 -25 -287 29 -326 c 128,-1,78
 83 -365 83 -365 170 -365 c 0,79,80
 264 -365 264 -365 360.5 -329 c 128,-1,81
 457 -293 457 -293 519.5 -232 c 128,-1,82
 582 -171 582 -171 582 -98 c 0,83,84
 582 -75 582 -75 562 -65 c 128,-1,85
 542 -55 542 -55 485 -40 c 2,86,-1
 459 -33 l 1,87,-1
 184 37 l 1,88,75
 -25 -75 -25 -75 -25 -215 c 0,76,77
EndSplineSet
Substitution2: "'smcp' Lowercase to Small Capitals lookup 24 subtable" g.smcp
Substitution2: "'aalt' Access All Alternates lookup 0 subtable" g.smcp
EndChar
StartChar: h
Encoding: 104 104 173
Width: 1098
GlyphClass: 2
Flags: W
AnchorPoint: "Anchor-5" 0 0 basechar 0
AnchorPoint: "Anchor-4" 498 1544 basechar 0
AnchorPoint: "Anchor-3" 0 0 basechar 0
LayerCount: 2
Back
Fore
SplineSet
944 182 m 2,0,1
 872 -29 872 -29 696 -29 c 0,2,3
 552 -29 552 -29 552 97 c 0,4,5
 552 159 552 159 586 258 c 2,6,-1
 780 844 l 2,7,8
 802 906 802 906 802 946 c 0,9,10
 802 1016 802 1016 735 1016 c 0,11,12
 660 1016 660 1016 573 921.5 c 128,-1,13
 486 827 486 827 398.5 655 c 128,-1,14
 311 483 311 483 235 257 c 1,15,-1
 160 0 l 1,16,-1
 -18 0 l 1,17,-1
 387 1366 l 2,18,19
 397 1401 397 1401 397 1422 c 0,20,21
 397 1463 397 1463 364 1482 c 128,-1,22
 331 1501 331 1501 256 1501 c 1,23,-1
 268 1544 l 1,24,25
 481 1547 481 1547 637 1628 c 1,26,-1
 340 613 l 1,27,28
 416 782 416 782 489.5 885 c 128,-1,29
 563 988 563 988 639.5 1034.5 c 128,-1,30
 716 1081 716 1081 803 1081 c 0,31,32
 968 1081 968 1081 968 926 c 0,33,34
 968 864 968 864 938 772 c 2,35,-1
 739 174 l 2,36,37
 724 124 724 124 724 96 c 0,38,39
 724 47 724 47 772 47 c 0,40,41
 813 47 813 47 851 93.5 c 128,-1,42
 889 140 889 140 930 256 c 2,43,-1
 956 332 l 1,44,-1
 995 332 l 1,45,-1
 944 182 l 2,0,1
EndSplineSet
Substitution2: "'smcp' Lowercase to Small Capitals lookup 24 subtable" h.smcp
Substitution2: "'aalt' Access All Alternates lookup 0 subtable" h.smcp
EndChar
StartChar: i
Encoding: 105 105 176
Width: 618
GlyphClass: 2
Flags: W
AnchorPoint: "Anchor-5" 0 0 basechar 0
AnchorPoint: "Anchor-4" 467 1053 basechar 0
AnchorPoint: "Anchor-3" 309 0 basechar 0
LayerCount: 2
Back
Fore
SplineSet
405 1475.5 m 128,-1,1
 427 1512 427 1512 462.5 1534 c 128,-1,2
 498 1556 498 1556 536 1556 c 0,3,4
 582 1556 582 1556 611 1525.5 c 128,-1,5
 640 1495 640 1495 640 1449 c 0,6,7
 640 1409 640 1409 618.5 1373.5 c 128,-1,8
 597 1338 597 1338 561 1316 c 128,-1,9
 525 1294 525 1294 486 1294 c 0,10,11
 441 1294 441 1294 412 1324 c 128,-1,12
 383 1354 383 1354 383 1399 c 0,13,0
 383 1439 383 1439 405 1475.5 c 128,-1,1
338 954 m 0,15,16
 338 1006 338 1006 294 1006 c 0,17,18
 247 1006 247 1006 210 956.5 c 128,-1,19
 173 907 173 907 132 797 c 2,20,-1
 103 721 l 1,21,-1
 65 721 l 1,22,-1
 118 870 l 2,23,24
 160 987 160 987 228 1034 c 128,-1,25
 296 1081 296 1081 372 1081 c 0,26,27
 508 1081 508 1081 508 953 c 0,28,29
 508 893 508 893 474 795 c 2,30,-1
 255 174 l 2,31,32
 239 130 239 130 239 99 c 0,33,34
 239 47 239 47 288 47 c 0,35,36
 330 47 330 47 367 93.5 c 128,-1,37
 404 140 404 140 448 256 c 2,38,-1
 476 332 l 1,39,-1
 515 332 l 1,40,-1
 462 182 l 2,41,42
 422 71 422 71 355 21 c 128,-1,43
 288 -29 288 -29 210 -29 c 0,44,45
 67 -29 67 -29 67 96 c 0,46,47
 67 159 67 159 103 258 c 2,48,-1
 323 879 l 2,49,14
 338 924 338 924 338 954 c 0,15,16
EndSplineSet
Substitution2: "'smcp' Lowercase to Small Capitals lookup 24 subtable" i.smcp
Substitution2: "'locl' Localized Forms in Latin lookup 10 subtable" i.loclTRK
Substitution2: "'locl' Localized Forms in Latin lookup 8 subtable" i.loclTRK
Substitution2: "'locl' Localized Forms in Latin lookup 6 subtable" i.loclTRK
Substitution2: "'locl' Localized Forms in Latin lookup 3 subtable" i.loclTRK
Substitution2: "'locl' Localized Forms in Latin lookup 2 subtable" i.loclTRK
AlternateSubs2: "'aalt' Access All Alternates lookup 1 subtable" i.loclTRK i.smcp
EndChar
StartChar: j
Encoding: 106 106 188
Width: 565
GlyphClass: 2
Flags: W
AnchorPoint: "Anchor-5" 0 0 basechar 0
AnchorPoint: "Anchor-4" 442 1053 basechar 0
AnchorPoint: "Anchor-3" 0 0 basechar 0
LayerCount: 2
Back
Fore
SplineSet
400 1475.5 m 128,-1,1
 422 1512 422 1512 457 1534 c 128,-1,2
 492 1556 492 1556 530 1556 c 0,3,4
 577 1556 577 1556 606 1525.5 c 128,-1,5
 635 1495 635 1495 635 1449 c 0,6,7
 635 1441 635 1441 633 1425 c 0,8,9
 622 1371 622 1371 578 1332.5 c 128,-1,10
 534 1294 534 1294 481 1294 c 0,11,12
 436 1294 436 1294 407 1324 c 128,-1,13
 378 1354 378 1354 378 1399 c 0,14,0
 378 1439 378 1439 400 1475.5 c 128,-1,1
-47.5 -295.5 m 128,-1,16
 -1 -246 -1 -246 31 -133 c 2,17,-1
 315 879 l 2,18,19
 330 930 330 930 330 959 c 0,20,21
 330 1006 330 1006 285 1006 c 0,22,23
 243 1006 243 1006 206 958 c 128,-1,24
 169 910 169 910 129 797 c 2,25,-1
 102 721 l 1,26,-1
 63 721 l 1,27,-1
 113 870 l 2,28,29
 183 1081 183 1081 365 1081 c 0,30,31
 501 1081 501 1081 501 956 c 0,32,33
 501 902 501 902 471 795 c 2,34,-1
 313 236 l 2,35,36
 172 -270 172 -270 -86 -365 c 0,37,38
 -145 -385 -145 -385 -207 -385 c 0,39,40
 -253 -385 -253 -385 -278 -363.5 c 128,-1,41
 -303 -342 -303 -342 -303 -305 c 0,42,43
 -303 -276 -303 -276 -286.5 -246.5 c 128,-1,44
 -270 -217 -270 -217 -242 -198.5 c 128,-1,45
 -214 -180 -214 -180 -182 -180 c 0,46,47
 -151 -180 -151 -180 -133 -198 c 128,-1,48
 -115 -216 -115 -216 -115 -244 c 0,49,50
 -115 -299 -115 -299 -172 -354 c 1,51,15
 -94 -345 -94 -345 -47.5 -295.5 c 128,-1,16
EndSplineSet
Substitution2: "'smcp' Lowercase to Small Capitals lookup 24 subtable" j.smcp
Substitution2: "'aalt' Access All Alternates lookup 0 subtable" j.smcp
EndChar
StartChar: k
Encoding: 107 107 191
Width: 1055
GlyphClass: 2
Flags: W
AnchorPoint: "Anchor-5" 348 0 basechar 0
AnchorPoint: "Anchor-4" 508 1544 basechar 0
AnchorPoint: "Anchor-3" 0 0 basechar 0
LayerCount: 2
Back
Fore
SplineSet
980 1047.5 m 128,-1,1
 1009 1014 1009 1014 1006 961 c 0,2,3
 1001 913 1001 913 971.5 871 c 128,-1,4
 942 829 942 829 887 829 c 0,5,6
 846 829 846 829 826.5 853 c 128,-1,7
 807 877 807 877 807 912 c 0,8,9
 807 941 807 941 825.5 976.5 c 128,-1,10
 844 1012 844 1012 872 1038 c 1,11,-1
 868 1038 l 2,12,13
 831 1038 831 1038 793 1010 c 0,14,15
 764 987 764 987 743.5 951.5 c 128,-1,16
 723 916 723 916 694 855 c 0,17,18
 661 783 661 783 632.5 736.5 c 128,-1,19
 604 690 604 690 556.5 651 c 128,-1,20
 509 612 509 612 438 597 c 1,21,22
 568 591 568 591 651.5 542 c 128,-1,23
 735 493 735 493 735 390 c 0,24,25
 735 364 735 364 729 336 c 2,26,-1
 688 131 l 2,27,28
 683 104 683 104 683 91 c 0,29,30
 683 47 683 47 729 47 c 0,31,32
 770 47 770 47 806 94.5 c 128,-1,33
 842 142 842 142 881 256 c 2,34,-1
 905 332 l 1,35,-1
 944 332 l 1,36,-1
 895 182 l 2,37,38
 827 -29 827 -29 651 -29 c 0,39,40
 593 -29 593 -29 556 4.5 c 128,-1,41
 519 38 519 38 519 104 c 0,42,43
 519 134 519 134 526 166 c 2,44,-1
 563 342 l 2,45,46
 572 384 572 384 572 418 c 0,47,48
 572 470 572 470 548.5 503.5 c 128,-1,49
 525 537 525 537 472.5 557 c 128,-1,50
 420 577 420 577 331 585 c 1,51,-1
 160 0 l 1,52,-1
 -18 0 l 1,53,-1
 387 1366 l 2,54,55
 397 1401 397 1401 397 1422 c 0,56,57
 397 1463 397 1463 364 1482 c 128,-1,58
 331 1501 331 1501 256 1501 c 1,59,-1
 268 1544 l 1,60,61
 481 1547 481 1547 637 1628 c 1,62,-1
 338 609 l 1,63,64
 433 617 433 617 493 654.5 c 128,-1,65
 553 692 553 692 585 741.5 c 128,-1,66
 617 791 617 791 653 869 c 0,67,68
 681 933 681 933 704 971 c 128,-1,69
 727 1009 727 1009 762 1034 c 0,70,71
 824 1081 824 1081 885 1081 c 0,72,0
 951 1081 951 1081 980 1047.5 c 128,-1,1
EndSplineSet
Substitution2: "'smcp' Lowercase to Small Capitals lookup 24 subtable" k.smcp
Substitution2: "'aalt' Access All Alternates lookup 0 subtable" k.smcp
EndChar
StartChar: l
Encoding: 108 108 194
Width: 567
GlyphClass: 2
Flags: W
AnchorPoint: "Anchor-5" 178 0 basechar 0
AnchorPoint: "Anchor-4" 492 1544 basechar 0
AnchorPoint: "Anchor-3" 0 0 basechar 0
LayerCount: 2
Back
Fore
SplineSet
195 102 m 0,1,2
 195 47 195 47 243 47 c 0,3,4
 284 47 284 47 320 94.5 c 128,-1,5
 356 142 356 142 396 256 c 2,6,-1
 423 332 l 1,7,-1
 462 332 l 1,8,-1
 411 182 l 2,9,10
 337 -29 337 -29 165 -29 c 0,11,12
 24 -29 24 -29 24 104 c 0,13,14
 24 163 24 163 52 258 c 2,15,-1
 386 1366 l 2,16,17
 396 1403 396 1403 396 1423 c 0,18,19
 396 1464 396 1464 364 1482.5 c 128,-1,20
 332 1501 332 1501 257 1501 c 1,21,-1
 271 1544 l 1,22,23
 380 1545 380 1545 466.5 1566 c 128,-1,24
 553 1587 553 1587 636 1628 c 1,25,-1
 208 174 l 2,26,0
 195 129 195 129 195 102 c 0,1,2
EndSplineSet
Substitution2: "'smcp' Lowercase to Small Capitals lookup 24 subtable" l.smcp
Substitution2: "'aalt' Access All Alternates lookup 0 subtable" l.smcp
EndChar
StartChar: m
Encoding: 109 109 200
Width: 1657
GlyphClass: 2
Flags: W
LayerCount: 2
Back
Fore
SplineSet
1502 182 m 2,0,1
 1430 -29 1430 -29 1254 -29 c 0,2,3
 1163 -29 1163 -29 1127 27 c 0,4,5
 1110 54 1110 54 1110 97 c 0,6,7
 1110 153 1110 153 1144 258 c 2,8,-1
 1338 844 l 2,9,10
 1359 911 1359 911 1359 952 c 0,11,12
 1359 1016 1359 1016 1314 1016 c 0,13,14
 1235 1016 1235 1016 1141.5 892 c 128,-1,15
 1048 768 1048 768 952 548 c 128,-1,16
 856 328 856 328 767 41 c 1,17,-1
 769 51 l 1,18,-1
 755 0 l 1,19,-1
 570 0 l 1,20,-1
 826 844 l 2,21,22
 847 909 847 909 847 949 c 0,23,24
 847 1016 847 1016 790 1016 c 0,25,26
 715 1016 715 1016 622.5 899 c 128,-1,27
 530 782 530 782 439.5 579.5 c 128,-1,28
 349 377 349 377 280 132 c 1,29,-1
 247 0 l 1,30,-1
 69 0 l 1,31,-1
 314 879 l 2,32,33
 329 930 329 930 329 954 c 0,34,35
 329 1006 329 1006 286 1006 c 0,36,37
 240 1006 240 1006 202.5 957.5 c 128,-1,38
 165 909 165 909 126 797 c 2,39,-1
 99 721 l 1,40,-1
 60 721 l 1,41,-1
 112 870 l 2,42,43
 184 1081 184 1081 359 1081 c 0,44,45
 478 1081 478 1081 478 958 c 0,46,47
 478 897 478 897 448 795 c 1,48,-1
 383 537 l 1,49,50
 465 738 465 738 540 857 c 128,-1,51
 615 976 615 976 691.5 1028.5 c 128,-1,52
 768 1081 768 1081 857 1081 c 0,53,54
 991 1081 991 1081 991 937 c 0,55,56
 991 872 991 872 964 772 c 2,57,-1
 891 501 l 1,58,59
 978 715 978 715 1053 840.5 c 128,-1,60
 1128 966 1128 966 1206.5 1023.5 c 128,-1,61
 1285 1081 1285 1081 1381 1081 c 0,62,63
 1457 1081 1457 1081 1491 1039.5 c 128,-1,64
 1525 998 1525 998 1525 928 c 0,65,66
 1525 859 1525 859 1496 772 c 2,67,-1
 1297 174 l 2,68,69
 1282 126 1282 126 1282 96 c 0,70,71
 1282 47 1282 47 1330 47 c 0,72,73
 1372 47 1372 47 1410 93.5 c 128,-1,74
 1448 140 1448 140 1488 256 c 2,75,-1
 1515 332 l 1,76,-1
 1553 332 l 1,77,-1
 1502 182 l 2,0,1
EndSplineSet
Substitution2: "'smcp' Lowercase to Small Capitals lookup 24 subtable" m.smcp
Substitution2: "'aalt' Access All Alternates lookup 0 subtable" m.smcp
EndChar
StartChar: n
Encoding: 110 110 201
Width: 1188
GlyphClass: 2
Flags: W
AnchorPoint: "Anchor-5" 432 0 basechar 0
AnchorPoint: "Anchor-4" 709 1053 basechar 0
AnchorPoint: "Anchor-3" 0 0 basechar 0
LayerCount: 2
Back
Fore
SplineSet
1033 182 m 2,0,1
 961 -29 961 -29 785 -29 c 0,2,3
 693 -29 693 -29 656 31 c 0,4,5
 640 57 640 57 640 98 c 0,6,7
 640 156 640 156 675 258 c 2,8,-1
 869 844 l 2,9,10
 890 905 890 905 890 945 c 0,11,12
 890 1016 890 1016 824 1016 c 0,13,14
 745 1016 745 1016 646 901.5 c 128,-1,15
 547 787 547 787 451 587 c 128,-1,16
 355 387 355 387 285 143 c 1,17,-1
 249 0 l 1,18,-1
 71 0 l 1,19,-1
 316 879 l 2,20,21
 331 928 331 928 331 956 c 0,22,23
 331 1006 331 1006 286 1006 c 0,24,25
 255 1006 255 1006 230.5 986.5 c 128,-1,26
 206 967 206 967 181.5 922 c 128,-1,27
 157 877 157 877 128 797 c 2,28,-1
 101 721 l 1,29,-1
 62 721 l 1,30,-1
 114 870 l 2,31,32
 186 1081 186 1081 357 1081 c 0,33,34
 478 1081 478 1081 478 960 c 0,35,36
 478 905 478 905 450 795 c 2,37,-1
 379 515 l 1,38,39
 467 723 467 723 548.5 847 c 128,-1,40
 630 971 630 971 713.5 1026 c 128,-1,41
 797 1081 797 1081 892 1081 c 0,42,43
 1057 1081 1057 1081 1057 927 c 0,44,45
 1057 866 1057 866 1027 772 c 2,46,-1
 828 174 l 2,47,48
 812 126 812 126 812 97 c 0,49,50
 812 47 812 47 861 47 c 0,51,52
 903 47 903 47 941 93.5 c 128,-1,53
 979 140 979 140 1019 256 c 2,54,-1
 1046 332 l 1,55,-1
 1084 332 l 1,56,-1
 1033 182 l 2,0,1
EndSplineSet
Substitution2: "'smcp' Lowercase to Small Capitals lookup 24 subtable" n.smcp
Substitution2: "'aalt' Access All Alternates lookup 0 subtable" n.smcp
EndChar
StartChar: o
Encoding: 111 111 208
Width: 999
GlyphClass: 2
Flags: W
AnchorPoint: "Anchor-5" 317 0 basechar 0
AnchorPoint: "Anchor-4" 674 1053 basechar 0
AnchorPoint: "Anchor-3" 0 0 basechar 0
LayerCount: 2
Back
Fore
SplineSet
113.5 639.5 m 128,-1,1
 185 825 185 825 320 953 c 128,-1,2
 455 1081 455 1081 634 1081 c 0,3,4
 765 1081 765 1081 839.5 1000 c 128,-1,5
 914 919 914 919 914 760 c 0,6,7
 914 599 914 599 842.5 413.5 c 128,-1,8
 771 228 771 228 636.5 99.5 c 128,-1,9
 502 -29 502 -29 323 -29 c 0,10,11
 192 -29 192 -29 117 52.5 c 128,-1,12
 42 134 42 134 42 293 c 0,13,0
 42 454 42 454 113.5 639.5 c 128,-1,1
423.5 907 m 128,-1,15
 330 774 330 774 274 574 c 128,-1,16
 218 374 218 374 218 190 c 0,17,18
 218 12 218 12 335 12 c 0,19,20
 440 12 440 12 533 145 c 128,-1,21
 626 278 626 278 682 477.5 c 128,-1,22
 738 677 738 677 738 862 c 0,23,24
 738 954 738 954 709.5 997 c 128,-1,25
 681 1040 681 1040 622 1040 c 0,26,14
 517 1040 517 1040 423.5 907 c 128,-1,15
EndSplineSet
Substitution2: "Single Substitution lookup 29 subtable" ordmasculine
Substitution2: "'smcp' Lowercase to Small Capitals lookup 24 subtable" o.smcp
AlternateSubs2: "'aalt' Access All Alternates lookup 1 subtable" ordmasculine o.smcp
EndChar
StartChar: p
Encoding: 112 112 219
Width: 1128
GlyphClass: 2
Flags: W
LayerCount: 2
Back
Fore
SplineSet
994 1008 m 128,-1,1
 1051 935 1051 935 1051 793 c 0,2,3
 1051 627 1051 627 977.5 433.5 c 128,-1,4
 904 240 904 240 767 105.5 c 128,-1,5
 630 -29 630 -29 451 -29 c 0,6,7
 395 -29 395 -29 350 2 c 128,-1,8
 305 33 305 33 284 89 c 1,9,-1
 207 -180 l 2,10,11
 199 -209 199 -209 199 -229 c 0,12,13
 199 -283 199 -283 244 -305.5 c 128,-1,14
 289 -328 289 -328 373 -328 c 1,15,-1
 360 -371 l 1,16,-1
 308 -369 l 2,17,18
 170 -362 170 -362 86 -362 c 0,19,20
 11 -362 11 -362 -103 -369 c 0,21,22
 -133 -371 -133 -371 -141 -371 c 1,23,-1
 -129 -328 l 1,24,25
 -79 -328 -79 -328 -49.5 -316.5 c 128,-1,26
 -20 -305 -20 -305 -1.5 -277.5 c 128,-1,27
 17 -250 17 -250 31 -201 c 2,28,-1
 414 1164 l 1,29,30
 352 1028 352 1028 269 922 c 128,-1,31
 186 816 186 816 68 705 c 1,32,-1
 45 731 l 1,33,34
 142 826 142 826 206 899 c 128,-1,35
 270 972 270 972 334.5 1078 c 128,-1,36
 399 1184 399 1184 463 1336 c 1,37,-1
 471 1366 l 1,38,39
 583 1369 583 1369 657 1395 c 1,40,-1
 443 646 l 1,41,42
 540 874 540 874 635.5 977.5 c 128,-1,43
 731 1081 731 1081 838 1081 c 0,44,0
 937 1081 937 1081 994 1008 c 128,-1,1
656 154 m 128,-1,46
 754 290 754 290 814 485 c 128,-1,47
 874 680 874 680 874 838 c 0,48,49
 874 926 874 926 849 971 c 128,-1,50
 824 1016 824 1016 778 1016 c 0,51,52
 720 1016 720 1016 643.5 922.5 c 128,-1,53
 567 829 567 829 489.5 671.5 c 128,-1,54
 412 514 412 514 352 328 c 1,55,-1
 299 141 l 1,56,57
 325 75 325 75 361.5 46.5 c 128,-1,58
 398 18 398 18 449 18 c 0,59,45
 558 18 558 18 656 154 c 128,-1,46
EndSplineSet
Substitution2: "'smcp' Lowercase to Small Capitals lookup 24 subtable" p.smcp
Substitution2: "'aalt' Access All Alternates lookup 0 subtable" p.smcp
EndChar
StartChar: q
Encoding: 113 113 221
Width: 1038
GlyphClass: 2
Flags: W
LayerCount: 2
Back
Fore
SplineSet
659 -233 m 0,1,2
 659 -328 659 -328 792 -328 c 1,3,-1
 779 -371 l 1,4,-1
 727 -369 l 2,5,6
 589 -362 589 -362 505 -362 c 0,7,8
 430 -362 430 -362 316 -369 c 0,9,10
 286 -371 286 -371 278 -371 c 1,11,-1
 290 -328 l 1,12,13
 353 -328 353 -328 392 -316.5 c 128,-1,14
 431 -305 431 -305 454 -277.5 c 128,-1,15
 477 -250 477 -250 491 -201 c 2,16,-1
 632 338 l 1,17,18
 540 142 540 142 446.5 56.5 c 128,-1,19
 353 -29 353 -29 249 -29 c 0,20,21
 150 -29 150 -29 93 44.5 c 128,-1,22
 36 118 36 118 36 260 c 0,23,24
 36 425 36 425 109.5 618.5 c 128,-1,25
 183 812 183 812 320 946.5 c 128,-1,26
 457 1081 457 1081 636 1081 c 0,27,28
 697 1081 697 1081 743.5 1045 c 128,-1,29
 790 1009 790 1009 808 945 c 1,30,31
 918 1033 918 1033 982 1085 c 1,32,-1
 1015 1071 l 1,33,34
 988 1019 988 1019 972 952 c 2,35,-1
 667 -180 l 2,36,0
 659 -207 659 -207 659 -233 c 0,1,2
438.5 113.5 m 128,-1,38
 513 190 513 190 583 317.5 c 128,-1,39
 653 445 653 445 698 591 c 1,40,-1
 784 922 l 1,41,42
 758 982 758 982 723 1008 c 128,-1,43
 688 1034 688 1034 638 1034 c 0,44,45
 529 1034 529 1034 430.5 898 c 128,-1,46
 332 762 332 762 272 567 c 128,-1,47
 212 372 212 372 212 215 c 0,48,49
 212 126 212 126 237.5 81.5 c 128,-1,50
 263 37 263 37 308 37 c 0,51,37
 364 37 364 37 438.5 113.5 c 128,-1,38
EndSplineSet
Substitution2: "'smcp' Lowercase to Small Capitals lookup 24 subtable" q.smcp
Substitution2: "'aalt' Access All Alternates lookup 0 subtable" q.smcp
EndChar
StartChar: r
Encoding: 114 114 222
Width: 872
GlyphClass: 2
Flags: W
AnchorPoint: "Anchor-5" 158 0 basechar 0
AnchorPoint: "Anchor-4" 602 1053 basechar 0
AnchorPoint: "Anchor-3" 0 0 basechar 0
LayerCount: 2
Back
Fore
SplineSet
896.5 1048.5 m 128,-1,1
 929 1016 929 1016 929 965 c 0,2,3
 929 925 929 925 909 891 c 128,-1,4
 889 857 889 857 856 837 c 128,-1,5
 823 817 823 817 785 817 c 0,6,7
 749 817 749 817 726.5 836.5 c 128,-1,8
 704 856 704 856 704 891 c 0,9,10
 704 983 704 983 796 1022 c 1,11,12
 788 1030 788 1030 773 1030 c 0,13,14
 700 1030 700 1030 617 922 c 128,-1,15
 534 814 534 814 450 620.5 c 128,-1,16
 366 427 366 427 290 171 c 1,17,-1
 247 0 l 1,18,-1
 69 0 l 1,19,-1
 314 879 l 2,20,21
 329 930 329 930 329 959 c 0,22,23
 329 1006 329 1006 286 1006 c 0,24,25
 240 1006 240 1006 202.5 957.5 c 128,-1,26
 165 909 165 909 126 797 c 2,27,-1
 99 721 l 1,28,-1
 60 721 l 1,29,-1
 112 870 l 2,30,31
 184 1081 184 1081 359 1081 c 0,32,33
 477 1081 477 1081 477 962 c 0,34,35
 477 929 477 929 470 893 c 128,-1,36
 463 857 463 857 448 795 c 2,37,-1
 382 535 l 1,38,39
 456 736 456 736 523 855 c 128,-1,40
 590 974 590 974 658.5 1027.5 c 128,-1,41
 727 1081 727 1081 808 1081 c 0,42,0
 864 1081 864 1081 896.5 1048.5 c 128,-1,1
EndSplineSet
Substitution2: "'smcp' Lowercase to Small Capitals lookup 24 subtable" r.smcp
Substitution2: "'aalt' Access All Alternates lookup 0 subtable" r.smcp
EndChar
StartChar: s
Encoding: 115 115 226
Width: 780
GlyphClass: 2
Flags: W
AnchorPoint: "Anchor-5" 231 0 basechar 0
AnchorPoint: "Anchor-4" 545 1053 basechar 0
AnchorPoint: "Anchor-3" 0 0 basechar 0
LayerCount: 2
Back
Fore
SplineSet
215 12 m 0,1,2
 308 12 308 12 365 67.5 c 128,-1,3
 422 123 422 123 422 223 c 0,4,5
 422 288 422 288 397.5 351 c 128,-1,6
 373 414 373 414 315 494 c 2,7,-1
 302 511 l 2,8,9
 262 566 262 566 238.5 603.5 c 128,-1,10
 215 641 215 641 198.5 689 c 128,-1,11
 182 737 182 737 182 791 c 0,12,13
 182 876 182 876 224.5 942 c 128,-1,14
 267 1008 267 1008 340 1044.5 c 128,-1,15
 413 1081 413 1081 500 1081 c 0,16,17
 606 1081 606 1081 678 1041.5 c 128,-1,18
 750 1002 750 1002 750 903 c 0,19,20
 750 881 750 881 740 856.5 c 128,-1,21
 730 832 730 832 708.5 814.5 c 128,-1,22
 687 797 687 797 655 797 c 0,23,24
 620 797 620 797 596.5 821 c 128,-1,25
 573 845 573 845 573 883 c 0,26,27
 573 949 573 949 631 1020 c 1,28,29
 590 1044 590 1044 528 1044 c 0,30,31
 450 1044 450 1044 400 992 c 128,-1,32
 350 940 350 940 350 850 c 0,33,34
 350 813 350 813 359.5 783 c 128,-1,35
 369 753 369 753 385 725.5 c 128,-1,36
 401 698 401 698 436 648 c 0,37,38
 471 597 471 597 473 594 c 0,39,40
 534 499 534 499 564 432 c 128,-1,41
 594 365 594 365 594 293 c 0,42,43
 594 200 594 200 546 126.5 c 128,-1,44
 498 53 498 53 417.5 12 c 128,-1,45
 337 -29 337 -29 242 -29 c 0,46,47
 124 -29 124 -29 44.5 21 c 128,-1,48
 -35 71 -35 71 -35 174 c 0,49,50
 -35 210 -35 210 -15.5 238 c 128,-1,51
 4 266 4 266 45 266 c 0,52,53
 91 266 91 266 113 229 c 128,-1,54
 135 192 135 192 135 137 c 0,55,56
 135 101 135 101 121 31 c 1,57,0
 159 12 159 12 215 12 c 0,1,2
EndSplineSet
Substitution2: "'smcp' Lowercase to Small Capitals lookup 24 subtable" s.smcp
Substitution2: "'aalt' Access All Alternates lookup 0 subtable" s.smcp
EndChar
StartChar: t
Encoding: 116 116 233
Width: 688
GlyphClass: 2
Flags: W
AnchorPoint: "Anchor-5" 193 0 basechar 0
AnchorPoint: "Anchor-4" 393 1053 basechar 0
AnchorPoint: "Anchor-3" 0 0 basechar 0
LayerCount: 2
Back
Fore
SplineSet
240 128 m 0,1,2
 240 87 240 87 264.5 67 c 128,-1,3
 289 47 289 47 329 47 c 0,4,5
 380 47 380 47 424.5 91 c 128,-1,6
 469 135 469 135 511 252 c 2,7,-1
 540 332 l 1,8,-1
 579 332 l 1,9,-1
 536 203 l 2,10,11
 493 76 493 76 424 23.5 c 128,-1,12
 355 -29 355 -29 255 -29 c 0,13,14
 163 -29 163 -29 117.5 16 c 128,-1,15
 72 61 72 61 72 141 c 0,16,17
 72 190 72 190 91 258 c 2,18,-1
 308 1012 l 1,19,-1
 124 1012 l 1,20,-1
 134 1053 l 1,21,-1
 320 1053 l 1,22,-1
 409 1364 l 1,23,24
 522 1367 522 1367 593 1393 c 1,25,-1
 496 1053 l 1,26,-1
 767 1053 l 1,27,-1
 761 1012 l 1,28,-1
 485 1012 l 1,29,-1
 247 174 l 2,30,0
 240 150 240 150 240 128 c 0,1,2
EndSplineSet
Substitution2: "'smcp' Lowercase to Small Capitals lookup 24 subtable" t.smcp
Substitution2: "'aalt' Access All Alternates lookup 0 subtable" t.smcp
EndChar
StartChar: u
Encoding: 117 117 238
Width: 1161
GlyphClass: 2
Flags: W
AnchorPoint: "Anchor-5" 475 0 basechar 0
AnchorPoint: "Anchor-4" 653 1053 basechar 0
AnchorPoint: "Anchor-3" 860 0 basechar 0
LayerCount: 2
Back
Fore
SplineSet
1060 332 m 1,0,-1
 1009 182 l 2,1,2
 935 -29 935 -29 761 -29 c 0,3,4
 727 -29 727 -29 698.5 -14.5 c 128,-1,5
 670 0 670 0 656 27 c 0,6,7
 644 52 644 52 644 90 c 0,8,9
 644 144 644 144 673 258 c 2,10,-1
 738 515 l 1,11,12
 657 317 657 317 580 197.5 c 128,-1,13
 503 78 503 78 425 24.5 c 128,-1,14
 347 -29 347 -29 259 -29 c 0,15,16
 86 -29 86 -29 86 129 c 0,17,18
 86 193 86 193 116 281 c 2,19,-1
 314 879 l 2,20,21
 330 929 330 929 330 956 c 0,22,23
 330 1006 330 1006 282 1006 c 0,24,25
 240 1006 240 1006 202 959.5 c 128,-1,26
 164 913 164 913 124 797 c 2,27,-1
 97 721 l 1,28,-1
 58 721 l 1,29,-1
 110 870 l 2,30,31
 182 1081 182 1081 357 1081 c 0,32,33
 501 1081 501 1081 501 954 c 0,34,35
 501 898 501 898 468 795 c 2,36,-1
 273 209 l 2,37,38
 253 149 253 149 253 107 c 0,39,40
 253 37 253 37 318 37 c 0,41,42
 396 37 396 37 491.5 151 c 128,-1,43
 587 265 587 265 679.5 469 c 128,-1,44
 772 673 772 673 842 931 c 1,45,-1
 873 1053 l 1,46,47
 990 1056 990 1056 1060 1081 c 1,48,-1
 806 174 l 2,49,50
 791 122 791 122 791 94 c 0,51,52
 791 47 791 47 835 47 c 0,53,54
 880 47 880 47 917.5 95.5 c 128,-1,55
 955 144 955 144 994 256 c 2,56,-1
 1021 332 l 1,57,-1
 1060 332 l 1,0,-1
EndSplineSet
Substitution2: "'smcp' Lowercase to Small Capitals lookup 24 subtable" u.smcp
Substitution2: "'aalt' Access All Alternates lookup 0 subtable" u.smcp
EndChar
StartChar: v
Encoding: 118 118 249
Width: 1092
GlyphClass: 2
Flags: W
LayerCount: 2
Back
Fore
SplineSet
858 866.5 m 128,-1,1
 814 923 814 923 820 997 c 0,2,3
 823 1041 823 1041 850 1062 c 128,-1,4
 877 1083 877 1083 910 1083 c 0,5,6
 968 1083 968 1083 997 1027.5 c 128,-1,7
 1026 972 1026 972 1026 876 c 0,8,9
 1026 843 1026 843 1021 795 c 0,10,11
 996 583 996 583 913.5 395 c 128,-1,12
 831 207 831 207 693 89 c 128,-1,13
 555 -29 555 -29 374 -29 c 0,14,15
 253 -29 253 -29 196 37.5 c 128,-1,16
 139 104 139 104 139 203 c 1,17,-1
 140 225 l 1,18,19
 152 394 152 394 280.5 600.5 c 128,-1,20
 409 807 409 807 615 1004 c 1,21,22
 575 989 575 989 499 942 c 0,23,24
 441 907 441 907 407.5 890.5 c 128,-1,25
 374 874 374 874 345 874 c 0,26,27
 320 874 320 874 276 901 c 0,28,29
 239 926 239 926 216 926 c 0,30,31
 184 926 184 926 162.5 898.5 c 128,-1,32
 141 871 141 871 116 799 c 2,33,-1
 93 723 l 1,34,-1
 54 723 l 1,35,-1
 99 872 l 1,36,37
 156 1081 156 1081 292 1081 c 0,38,39
 318 1081 318 1081 337 1071 c 128,-1,40
 356 1061 356 1061 384 1041 c 0,41,42
 411 1021 411 1021 431 1011 c 128,-1,43
 451 1001 451 1001 478 1001 c 0,44,45
 580 1001 580 1001 650 1065 c 1,46,-1
 671 1104 l 1,47,-1
 714 1083 l 1,48,49
 548 878 548 878 455.5 675.5 c 128,-1,50
 363 473 363 473 345 260 c 0,51,52
 343 226 343 226 343 212 c 0,53,54
 343 39 343 39 433 39 c 0,55,56
 583 39 583 39 703 164 c 128,-1,57
 823 289 823 289 893 463.5 c 128,-1,58
 963 638 963 638 970 776 c 1,59,0
 902 810 902 810 858 866.5 c 128,-1,1
EndSplineSet
Substitution2: "'smcp' Lowercase to Small Capitals lookup 24 subtable" v.smcp
Substitution2: "'aalt' Access All Alternates lookup 0 subtable" v.smcp
EndChar
StartChar: w
Encoding: 119 119 250
Width: 1403
GlyphClass: 2
Flags: W
AnchorPoint: "Anchor-5" 0 0 basechar 0
AnchorPoint: "Anchor-4" 803 1053 basechar 0
AnchorPoint: "Anchor-3" 0 0 basechar 0
LayerCount: 2
Back
Fore
SplineSet
1284 669 m 0,1,2
 1284 503 1284 503 1229.5 342.5 c 128,-1,3
 1175 182 1175 182 1061 76.5 c 128,-1,4
 947 -29 947 -29 779 -29 c 0,5,6
 618 -29 618 -29 563 97 c 1,7,8
 427 -29 427 -29 280 -29 c 0,9,10
 148 -29 148 -29 87 37.5 c 128,-1,11
 26 104 26 104 26 205 c 0,12,13
 26 379 26 379 198 582.5 c 128,-1,14
 370 786 370 786 615 970 c 1,15,-1
 568 942 l 2,16,17
 514 908 514 908 479 891 c 128,-1,18
 444 874 444 874 415 874 c 0,19,20
 390 874 390 874 348 901 c 0,21,22
 310 926 310 926 286 926 c 0,23,24
 253 926 253 926 230.5 898 c 128,-1,25
 208 870 208 870 185 799 c 2,26,-1
 161 723 l 1,27,-1
 122 723 l 1,28,-1
 169 872 l 2,29,30
 206 986 206 986 253.5 1033.5 c 128,-1,31
 301 1081 301 1081 359 1081 c 0,32,33
 385 1081 385 1081 405 1071 c 128,-1,34
 425 1061 425 1061 452 1041 c 0,35,36
 480 1021 480 1021 500.5 1011 c 128,-1,37
 521 1001 521 1001 548 1001 c 0,38,39
 639 1001 639 1001 712 1065 c 1,40,-1
 740 1104 l 1,41,-1
 783 1083 l 1,42,43
 533 873 533 873 379.5 658 c 128,-1,44
 226 443 226 443 226 217 c 0,45,46
 226 118 226 118 255 75.5 c 128,-1,47
 284 33 284 33 339 33 c 0,48,49
 442 33 442 33 551 131 c 1,50,51
 536 182 536 182 536 252 c 0,52,53
 536 367 536 367 586 479 c 128,-1,54
 636 591 636 591 707 663 c 128,-1,55
 778 735 778 735 835 735 c 0,56,57
 875 735 875 735 890.5 692.5 c 128,-1,58
 906 650 906 650 906 592 c 0,59,60
 906 480 906 480 846.5 368.5 c 128,-1,61
 787 257 787 257 671 166 c 1,62,63
 718 31 718 31 835 31 c 0,64,65
 965 31 965 31 1056.5 131.5 c 128,-1,66
 1148 232 1148 232 1193.5 379.5 c 128,-1,67
 1239 527 1239 527 1239 666 c 0,68,69
 1239 746 1239 746 1224 801 c 1,70,71
 1180 809 1180 809 1135 831.5 c 128,-1,72
 1090 854 1090 854 1059.5 892 c 128,-1,73
 1029 930 1029 930 1029 983 c 0,74,75
 1029 1033 1029 1033 1055 1057 c 128,-1,76
 1081 1081 1081 1081 1115 1081 c 0,77,78
 1223 1081 1223 1081 1267 840 c 0,79,0
 1284 761 1284 761 1284 669 c 0,1,2
745 637 m 128,-1,81
 704 584 704 584 675 501 c 128,-1,82
 646 418 646 418 646 334 c 0,83,84
 646 260 646 260 660 203 c 1,85,86
 751 279 751 279 805 384.5 c 128,-1,87
 859 490 859 490 859 594 c 0,88,89
 859 690 859 690 820 690 c 0,90,80
 786 690 786 690 745 637 c 128,-1,81
EndSplineSet
Substitution2: "'smcp' Lowercase to Small Capitals lookup 24 subtable" w.smcp
Substitution2: "'aalt' Access All Alternates lookup 0 subtable" w.smcp
EndChar
StartChar: x
Encoding: 120 120 255
Width: 1077
GlyphClass: 2
Flags: W
AnchorPoint: "Anchor-5" 365 0 basechar 0
AnchorPoint: "Anchor-4" 711 1053 basechar 0
AnchorPoint: "Anchor-3" 0 0 basechar 0
LayerCount: 2
Back
Fore
SplineSet
1043.5 1060.5 m 128,-1,1
 1069 1040 1069 1040 1069 1006 c 0,2,3
 1069 966 1069 966 1038.5 936.5 c 128,-1,4
 1008 907 1008 907 961 907 c 0,5,6
 892 907 892 907 831 956 c 1,7,8
 704 840 704 840 611 598 c 1,9,-1
 659 160 l 2,10,11
 667 108 667 108 684 87 c 128,-1,12
 701 66 701 66 729 66 c 0,13,14
 764 66 764 66 796 105.5 c 128,-1,15
 828 145 828 145 866 254 c 2,16,-1
 893 330 l 1,17,-1
 932 330 l 1,18,-1
 881 180 l 1,19,20
 805 -29 805 -29 647 -29 c 0,21,22
 499 -29 499 -29 477 160 c 2,23,-1
 447 426 l 1,24,25
 366 244 366 244 229 98 c 0,26,27
 166 32 166 32 117.5 1.5 c 128,-1,28
 69 -29 69 -29 23 -29 c 256,29,30
 -23 -29 -23 -29 -46.5 -9 c 128,-1,31
 -70 11 -70 11 -70 47 c 0,32,33
 -70 86 -70 86 -39 115.5 c 128,-1,34
 -8 145 -8 145 37 145 c 0,35,36
 103 145 103 145 166 96 c 1,37,38
 250 173 250 173 321.5 281.5 c 128,-1,39
 393 390 393 390 439 498 c 1,40,-1
 395 893 l 2,41,42
 382 987 382 987 326 987 c 0,43,44
 292 987 292 987 259.5 947 c 128,-1,45
 227 907 227 907 188 799 c 2,46,-1
 162 723 l 1,47,-1
 123 723 l 1,48,-1
 174 872 l 2,49,50
 215 987 215 987 274.5 1034 c 128,-1,51
 334 1081 334 1081 408 1081 c 0,52,53
 483 1081 483 1081 524.5 1038.5 c 128,-1,54
 566 996 566 996 578 893 c 2,55,-1
 601 682 l 1,56,57
 669 838 669 838 774 956 c 0,58,59
 832 1023 832 1023 879.5 1052 c 128,-1,60
 927 1081 927 1081 979 1081 c 0,61,0
 1018 1081 1018 1081 1043.5 1060.5 c 128,-1,1
EndSplineSet
Substitution2: "'smcp' Lowercase to Small Capitals lookup 24 subtable" x.smcp
Substitution2: "'aalt' Access All Alternates lookup 0 subtable" x.smcp
EndChar
StartChar: y
Encoding: 121 121 256
Width: 985
GlyphClass: 2
Flags: W
AnchorPoint: "Anchor-5" 0 0 basechar 0
AnchorPoint: "Anchor-4" 588 1053 basechar 0
AnchorPoint: "Anchor-3" 0 0 basechar 0
LayerCount: 2
Back
Fore
SplineSet
938 915 m 0,1,2
 938 784 938 784 880 620 c 128,-1,3
 822 456 822 456 729.5 295 c 128,-1,4
 637 134 637 134 535 6 c 0,5,6
 343 -233 343 -233 131 -334 c 0,7,8
 24 -385 24 -385 -47 -385 c 0,9,10
 -91 -385 -91 -385 -120.5 -363 c 128,-1,11
 -150 -341 -150 -341 -150 -301 c 0,12,13
 -150 -259 -150 -259 -117 -234 c 128,-1,14
 -84 -209 -84 -209 -39 -209 c 0,15,16
 4 -209 4 -209 44 -230 c 128,-1,17
 84 -251 84 -251 131 -289 c 1,18,19
 293 -204 293 -204 438 -44 c 1,20,-1
 287 874 l 2,21,22
 276 937 276 937 261.5 962 c 128,-1,23
 247 987 247 987 221 987 c 256,24,25
 195 987 195 987 167 947 c 128,-1,26
 139 907 139 907 100 799 c 2,27,-1
 74 723 l 1,28,-1
 35 723 l 1,29,-1
 86 872 l 2,30,31
 158 1081 158 1081 322 1081 c 0,32,33
 365 1081 365 1081 394 1064 c 128,-1,34
 423 1047 423 1047 441 1006 c 128,-1,35
 459 965 459 965 469 893 c 2,36,-1
 574 123 l 1,37,38
 686 277 686 277 767.5 449 c 128,-1,39
 849 621 849 621 883 788 c 1,40,41
 820 821 820 821 773.5 869 c 128,-1,42
 727 917 727 917 727 977 c 0,43,44
 727 1026 727 1026 756 1053.5 c 128,-1,45
 785 1081 785 1081 831 1081 c 0,46,0
 938 1081 938 1081 938 915 c 0,1,2
EndSplineSet
Substitution2: "'smcp' Lowercase to Small Capitals lookup 24 subtable" y.smcp
Substitution2: "'aalt' Access All Alternates lookup 0 subtable" y.smcp
EndChar
StartChar: z
Encoding: 122 122 261
Width: 911
GlyphClass: 2
Flags: W
AnchorPoint: "Anchor-5" 262 0 basechar 0
AnchorPoint: "Anchor-4" 586 1053 basechar 0
AnchorPoint: "Anchor-3" 0 0 basechar 0
LayerCount: 2
Back
Fore
SplineSet
200 162 m 128,-1,1
 257 186 257 186 311 186 c 0,2,3
 344 186 344 186 372.5 178 c 128,-1,4
 401 170 401 170 445 154 c 0,5,6
 493 137 493 137 523 129 c 128,-1,7
 553 121 553 121 588 121 c 0,8,9
 641 121 641 121 670.5 146.5 c 128,-1,10
 700 172 700 172 700 223 c 0,11,12
 700 277 700 277 655.5 316.5 c 128,-1,13
 611 356 611 356 539 371 c 1,14,-1
 551 401 l 1,15,16
 647 380 647 380 698.5 330 c 128,-1,17
 750 280 750 280 750 203 c 0,18,19
 750 145 750 145 725.5 96.5 c 128,-1,20
 701 48 701 48 648 18 c 128,-1,21
 595 -12 595 -12 512 -12 c 0,22,23
 465 -12 465 -12 430 -1.5 c 128,-1,24
 395 9 395 9 345 30 c 0,25,26
 293 53 293 53 253 64.5 c 128,-1,27
 213 76 213 76 160 76 c 0,28,29
 103 76 103 76 60 59.5 c 128,-1,30
 17 43 17 43 -25 0 c 1,31,-1
 -80 0 l 1,32,-1
 844 973 l 1,33,34
 751 914 751 914 694.5 890 c 128,-1,35
 638 866 638 866 584 866 c 0,36,37
 551 866 551 866 522.5 874 c 128,-1,38
 494 882 494 882 450 898 c 0,39,40
 405 915 405 915 373.5 923.5 c 128,-1,41
 342 932 342 932 307 932 c 0,42,43
 254 932 254 932 224.5 906 c 128,-1,44
 195 880 195 880 195 829 c 0,45,46
 195 775 195 775 239.5 735.5 c 128,-1,47
 284 696 284 696 356 682 c 1,48,-1
 344 651 l 1,49,50
 145 697 145 697 145 850 c 0,51,52
 145 908 145 908 169.5 956.5 c 128,-1,53
 194 1005 194 1005 247 1035 c 128,-1,54
 300 1065 300 1065 383 1065 c 0,55,56
 430 1065 430 1065 465 1054.5 c 128,-1,57
 500 1044 500 1044 550 1023 c 0,58,59
 602 1000 602 1000 642 988.5 c 128,-1,60
 682 977 682 977 735 977 c 0,61,62
 792 977 792 977 835 993.5 c 128,-1,63
 878 1010 878 1010 920 1053 c 1,64,-1
 975 1053 l 1,65,-1
 51 80 l 1,66,0
 143 138 143 138 200 162 c 128,-1,1
EndSplineSet
Substitution2: "'smcp' Lowercase to Small Capitals lookup 24 subtable" z.smcp
Substitution2: "'aalt' Access All Alternates lookup 0 subtable" z.smcp
EndChar
StartChar: bar
Encoding: 124 124 763
Width: 651
Flags: W
LayerCount: 2
Back
Fore
SplineSet
304 -399 m 1,0,-1
 304 1757 l 1,1,-1
 386 1757 l 1,2,-1
 386 -399 l 1,3,-1
 304 -399 l 1,0,-1
EndSplineSet
EndChar
StartChar: braceright
Encoding: 125 125 639
Width: 627
Flags: W
LayerCount: 2
Back
Fore
SplineSet
515.5 1545 m 128,-1,1
 577 1488 577 1488 577 1381 c 0,2,3
 577 1298 577 1298 535 1128 c 0,4,5
 467 859 467 859 467 752 c 0,6,7
 468 690 468 690 491.5 662 c 128,-1,8
 515 634 515 634 563 631 c 2,9,-1
 573 631 l 1,10,-1
 567 594 l 1,11,-1
 557 594 l 1,12,13
 491 589 491 589 447.5 544.5 c 128,-1,14
 404 500 404 500 365 397.5 c 128,-1,15
 326 295 326 295 276 96 c 0,16,17
 228 -94 228 -94 169.5 -197 c 128,-1,18
 111 -300 111 -300 27.5 -342.5 c 128,-1,19
 -56 -385 -56 -385 -188 -385 c 1,20,-1
 -178 -346 l 1,21,22
 -106 -345 -106 -345 -67 -317 c 128,-1,23
 -28 -289 -28 -289 7 -199 c 128,-1,24
 42 -109 42 -109 92 96 c 0,25,26
 135 269 135 269 200 375.5 c 128,-1,27
 265 482 265 482 341.5 534 c 128,-1,28
 418 586 418 586 512 612 c 1,29,30
 314 672 314 672 314 894 c 0,31,32
 314 986 314 986 350 1128 c 0,33,34
 413 1381 413 1381 410 1460 c 0,35,36
 410 1519 410 1519 382.5 1540 c 128,-1,37
 355 1561 355 1561 293 1563 c 1,38,-1
 303 1602 l 1,39,0
 454 1602 454 1602 515.5 1545 c 128,-1,1
EndSplineSet
Substitution2: "'case' Case-Sensitive Forms lookup 25 subtable" braceright.case
Substitution2: "'smcp' Lowercase to Small Capitals lookup 24 subtable" braceright.smcp
Substitution2: "'c2sc' Capitals to Small Capitals lookup 23 subtable" braceright.smcp
AlternateSubs2: "'aalt' Access All Alternates lookup 1 subtable" braceright.smcp braceright.case
EndChar
StartChar: asciitilde
Encoding: 126 126 725
Width: 1329
Flags: W
LayerCount: 2
Back
Fore
SplineSet
733 506 m 128,-1,1
 678 527 678 527 606 568 c 0,2,3
 536 607 536 607 486.5 626 c 128,-1,4
 437 645 437 645 374 645 c 0,5,6
 241 645 241 645 167 526 c 1,7,-1
 138 537 l 1,8,9
 185 639 185 639 274.5 697.5 c 128,-1,10
 364 756 364 756 476 756 c 0,11,12
 547 756 547 756 601 735.5 c 128,-1,13
 655 715 655 715 729 674 c 0,14,15
 797 635 797 635 847.5 615.5 c 128,-1,16
 898 596 898 596 962 596 c 0,17,18
 1094 596 1094 596 1168 715 c 1,19,-1
 1197 705 l 1,20,21
 1151 602 1151 602 1061.5 543.5 c 128,-1,22
 972 485 972 485 859 485 c 0,23,0
 788 485 788 485 733 506 c 128,-1,1
EndSplineSet
Substitution2: "'case' Case-Sensitive Forms lookup 25 subtable" asciitilde.case
Substitution2: "'smcp' Lowercase to Small Capitals lookup 24 subtable" asciitilde.smcp
Substitution2: "'c2sc' Capitals to Small Capitals lookup 23 subtable" asciitilde.smcp
AlternateSubs2: "'aalt' Access All Alternates lookup 1 subtable" asciitilde.smcp asciitilde.case
EndChar
StartChar: exclamdown
Encoding: 161 161 678
Width: 510
Flags: W
LayerCount: 2
Back
Fore
SplineSet
238 1000.5 m 128,-1,1
 260 1037 260 1037 295.5 1059 c 128,-1,2
 331 1081 331 1081 369 1081 c 0,3,4
 415 1081 415 1081 444 1050.5 c 128,-1,5
 473 1020 473 1020 473 974 c 0,6,7
 473 934 473 934 451.5 898.5 c 128,-1,8
 430 863 430 863 394 841 c 128,-1,9
 358 819 358 819 319 819 c 0,10,11
 274 819 274 819 245 849 c 128,-1,12
 216 879 216 879 216 924 c 0,13,0
 216 964 216 964 238 1000.5 c 128,-1,1
175 38 m 0,15,16
 137 -210 137 -210 113 -305 c 0,17,18
 104 -344 104 -344 78.5 -364.5 c 128,-1,19
 53 -385 53 -385 20 -385 c 0,20,21
 -26 -385 -26 -385 -49.5 -362 c 128,-1,22
 -73 -339 -73 -339 -73 -301 c 0,23,24
 -73 -279 -73 -279 -66 -258 c 0,25,26
 -47 -193 -47 -193 37 24 c 0,27,28
 110 212 110 212 162 357.5 c 128,-1,29
 214 503 214 503 254 653 c 1,30,-1
 291 647 l 1,31,14
 237 433 237 433 175 38 c 0,15,16
EndSplineSet
Substitution2: "'case' Case-Sensitive Forms lookup 25 subtable" exclamdown.case
Substitution2: "'smcp' Lowercase to Small Capitals lookup 24 subtable" exclamdown.smcp
Substitution2: "'c2sc' Capitals to Small Capitals lookup 23 subtable" exclamdown.smcp
AlternateSubs2: "'aalt' Access All Alternates lookup 1 subtable" exclamdown.smcp exclamdown.case
EndChar
StartChar: cent
Encoding: 162 162 717
Width: 887
Flags: W
LayerCount: 2
Back
Fore
SplineSet
759.5 1060 m 128,-1,1
 810 1039 810 1039 840 999.5 c 128,-1,2
 870 960 870 960 870 907 c 0,3,4
 870 867 870 867 852 829 c 128,-1,5
 834 791 834 791 800.5 767 c 128,-1,6
 767 743 767 743 724 743 c 0,7,8
 683 743 683 743 661.5 766 c 128,-1,9
 640 789 640 789 640 823 c 0,10,11
 640 881 640 881 685.5 923.5 c 128,-1,12
 731 966 731 966 794 977 c 1,13,14
 750 1040 750 1040 655 1040 c 0,15,16
 641 1040 641 1040 615 1036 c 1,17,-1
 352 57 l 1,18,-1
 364 57 l 2,19,20
 530 57 530 57 671 262 c 1,21,-1
 712 246 l 1,22,23
 650 140 650 140 547 61.5 c 128,-1,24
 444 -17 444 -17 329 -28 c 1,25,-1
 237 -371 l 1,26,-1
 192 -371 l 1,27,-1
 284 -29 l 1,28,29
 165 -24 165 -24 97.5 53 c 128,-1,30
 30 130 30 130 30 272 c 0,31,32
 30 427 30 427 99 606 c 128,-1,33
 168 785 168 785 293.5 918 c 128,-1,34
 419 1051 419 1051 581 1076 c 1,35,-1
 681 1450 l 1,36,-1
 726 1450 l 1,37,-1
 627 1080 l 1,38,-1
 648 1081 l 2,39,0
 709 1081 709 1081 759.5 1060 c 128,-1,1
395.5 861 m 128,-1,41
 316 747 316 747 268 587 c 128,-1,42
 220 427 220 427 220 254 c 0,43,44
 220 102 220 102 309 66 c 1,45,-1
 565 1018 l 1,46,40
 475 975 475 975 395.5 861 c 128,-1,41
EndSplineSet
Substitution2: "'smcp' Lowercase to Small Capitals lookup 24 subtable" cent.smcp
Substitution2: "'c2sc' Capitals to Small Capitals lookup 23 subtable" cent.smcp
Substitution2: "'aalt' Access All Alternates lookup 0 subtable" cent.smcp
EndChar
StartChar: sterling
Encoding: 163 163 722
Width: 1278
Flags: W
LayerCount: 2
Back
Fore
SplineSet
1055.5 1382.5 m 128,-1,1
 1083 1415 1083 1415 1126 1427 c 1,2,3
 1126 1447 1126 1447 1091 1462 c 128,-1,4
 1056 1477 1056 1477 1012 1477 c 0,5,6
 890 1477 890 1477 812.5 1406 c 128,-1,7
 735 1335 735 1335 692 1229.5 c 128,-1,8
 649 1124 649 1124 602 952 c 2,9,-1
 576 854 l 1,10,-1
 854 854 l 1,11,-1
 842 813 l 1,12,-1
 565 813 l 1,13,-1
 522 649 l 1,14,-1
 799 649 l 1,15,-1
 786 608 l 1,16,-1
 510 608 l 1,17,18
 482 520 482 520 437 446 c 128,-1,19
 392 372 392 372 336 307.5 c 128,-1,20
 280 243 280 243 193 156 c 1,21,22
 332 221 332 221 451 221 c 0,23,24
 497 221 497 221 537 210.5 c 128,-1,25
 577 200 577 200 638 177 c 0,26,27
 700 153 700 153 746.5 141 c 128,-1,28
 793 129 793 129 846 129 c 0,29,30
 892 129 892 129 932.5 148 c 128,-1,31
 973 167 973 167 997.5 201.5 c 128,-1,32
 1022 236 1022 236 1022 281 c 0,33,34
 1022 339 1022 339 987 374.5 c 128,-1,35
 952 410 952 410 889 422 c 1,36,-1
 901 457 l 1,37,38
 990 441 990 441 1049 388 c 128,-1,39
 1108 335 1108 335 1108 248 c 0,40,41
 1108 181 1108 181 1067.5 116.5 c 128,-1,42
 1027 52 1027 52 959 11.5 c 128,-1,43
 891 -29 891 -29 815 -29 c 0,44,45
 752 -29 752 -29 703 -5 c 128,-1,46
 654 19 654 19 587 67 c 0,47,48
 541 99 541 99 509.5 118 c 128,-1,49
 478 137 478 137 438 150.5 c 128,-1,50
 398 164 398 164 352 164 c 0,51,52
 267 164 267 164 174 123 c 1,53,54
 122 51 122 51 70 11 c 128,-1,55
 18 -29 18 -29 -23 -29 c 0,56,57
 -37 -29 -37 -29 -43 -24.5 c 128,-1,58
 -49 -20 -49 -20 -49 -8 c 0,59,60
 -49 12 -49 12 -24.5 40 c 128,-1,61
 0 68 0 68 46.5 95.5 c 128,-1,62
 93 123 93 123 154 141 c 1,63,64
 196 223 196 223 229.5 308.5 c 128,-1,65
 263 394 263 394 299 528 c 2,66,-1
 320 608 l 1,67,-1
 121 608 l 1,68,-1
 133 649 l 1,69,-1
 331 649 l 1,70,-1
 374 813 l 1,71,-1
 176 813 l 1,72,-1
 188 854 l 1,73,-1
 385 854 l 1,74,-1
 397 899 l 2,75,76
 471 1177 471 1177 621.5 1342 c 128,-1,77
 772 1507 772 1507 1016 1507 c 0,78,79
 1086 1507 1086 1507 1134 1488 c 128,-1,80
 1182 1469 1182 1469 1205.5 1437.5 c 128,-1,81
 1229 1406 1229 1406 1229 1368 c 0,82,83
 1229 1334 1229 1334 1212.5 1304.5 c 128,-1,84
 1196 1275 1196 1275 1167 1257 c 128,-1,85
 1138 1239 1138 1239 1102 1239 c 0,86,87
 1070 1239 1070 1239 1049 1258 c 128,-1,88
 1028 1277 1028 1277 1028 1309 c 0,89,0
 1028 1350 1028 1350 1055.5 1382.5 c 128,-1,1
EndSplineSet
Substitution2: "'smcp' Lowercase to Small Capitals lookup 24 subtable" sterling.smcp
Substitution2: "'c2sc' Capitals to Small Capitals lookup 23 subtable" sterling.smcp
Substitution2: "'aalt' Access All Alternates lookup 0 subtable" sterling.smcp
EndChar
StartChar: currency
Encoding: 164 164 718
Width: 1165
Flags: W
LayerCount: 2
Back
Fore
SplineSet
198 614 m 0,1,2
 198 755 198 755 286 860 c 1,3,-1
 196 950 l 1,4,-1
 253 1008 l 1,5,-1
 343 918 l 1,6,7
 450 1004 450 1004 587 1004 c 256,8,9
 724 1004 724 1004 830 915 c 1,10,-1
 923 1008 l 1,11,-1
 980 950 l 1,12,-1
 888 858 l 1,13,14
 974 749 974 749 974 614 c 0,15,16
 974 476 974 476 888 371 c 1,17,-1
 978 283 l 1,18,-1
 921 223 l 1,19,-1
 830 313 l 1,20,21
 721 227 721 227 587 227 c 0,22,23
 448 227 448 227 343 311 c 1,24,-1
 255 223 l 1,25,-1
 196 283 l 1,26,-1
 284 371 l 1,27,0
 198 475 198 475 198 614 c 0,1,2
323.5 458.5 m 128,-1,29
 365 387 365 387 435 345 c 128,-1,30
 505 303 505 303 587 303 c 256,31,32
 669 303 669 303 738.5 345 c 128,-1,33
 808 387 808 387 849 458.5 c 128,-1,34
 890 530 890 530 890 614 c 0,35,36
 890 697 890 697 849 769 c 128,-1,37
 808 841 808 841 738 884.5 c 128,-1,38
 668 928 668 928 587 928 c 0,39,40
 505 928 505 928 434.5 885 c 128,-1,41
 364 842 364 842 323 770 c 128,-1,42
 282 698 282 698 282 614 c 256,43,28
 282 530 282 530 323.5 458.5 c 128,-1,29
EndSplineSet
Substitution2: "'smcp' Lowercase to Small Capitals lookup 24 subtable" currency.smcp
Substitution2: "'c2sc' Capitals to Small Capitals lookup 23 subtable" currency.smcp
Substitution2: "'aalt' Access All Alternates lookup 0 subtable" currency.smcp
EndChar
StartChar: yen
Encoding: 165 165 723
Width: 1440
Flags: W
LayerCount: 2
Back
Fore
SplineSet
1536 1447.5 m 128,-1,1
 1563 1416 1563 1416 1563 1369 c 0,2,3
 1563 1339 1563 1339 1550 1306 c 128,-1,4
 1537 1273 1537 1273 1509.5 1250 c 128,-1,5
 1482 1227 1482 1227 1442 1227 c 0,6,7
 1365 1227 1365 1227 1365 1308 c 0,8,9
 1365 1341 1365 1341 1383 1375 c 128,-1,10
 1401 1409 1401 1409 1430 1436 c 1,11,-1
 1424 1436 l 2,12,13
 1369 1433 1369 1433 1311 1391 c 0,14,15
 1204 1313 1204 1313 1080.5 1139.5 c 128,-1,16
 957 966 957 966 843 692 c 1,17,-1
 822 608 l 1,18,-1
 1111 608 l 1,19,-1
 1101 567 l 1,20,-1
 812 567 l 1,21,-1
 781 444 l 1,22,-1
 1066 444 l 1,23,-1
 1056 403 l 1,24,-1
 771 403 l 1,25,-1
 724 217 l 2,26,27
 707 151 707 151 707 118 c 0,28,29
 707 88 707 88 720.5 72 c 128,-1,30
 734 56 734 56 762.5 49.5 c 128,-1,31
 791 43 791 43 844 41 c 1,32,-1
 834 0 l 1,33,34
 742 6 742 6 580 6 c 0,35,36
 400 6 400 6 312 0 c 1,37,-1
 322 41 l 1,38,39
 396 44 396 44 433 57 c 128,-1,40
 470 70 470 70 492 105.5 c 128,-1,41
 514 141 514 141 533 217 c 2,42,-1
 580 403 l 1,43,-1
 292 403 l 1,44,-1
 302 444 l 1,45,-1
 590 444 l 1,46,-1
 621 567 l 1,47,-1
 337 567 l 1,48,-1
 347 608 l 1,49,-1
 631 608 l 1,50,-1
 653 695 l 1,51,52
 580 1366 580 1366 414 1366 c 0,53,54
 379 1366 379 1366 356 1344 c 128,-1,55
 333 1322 333 1322 316 1270 c 2,56,-1
 259 1102 l 1,57,-1
 214 1102 l 1,58,-1
 281 1300 l 2,59,60
 303 1364 303 1364 327 1402 c 128,-1,61
 351 1440 351 1440 388 1459.5 c 128,-1,62
 425 1479 425 1479 482 1479 c 0,63,64
 590 1479 590 1479 656.5 1391 c 128,-1,65
 723 1303 723 1303 760 1145.5 c 128,-1,66
 797 988 797 988 824 737 c 1,67,68
 972 1109 972 1109 1207 1346 c 0,69,70
 1340 1479 1340 1479 1449 1479 c 0,71,0
 1509 1479 1509 1479 1536 1447.5 c 128,-1,1
EndSplineSet
Substitution2: "'smcp' Lowercase to Small Capitals lookup 24 subtable" yen.smcp
Substitution2: "'c2sc' Capitals to Small Capitals lookup 23 subtable" yen.smcp
Substitution2: "'aalt' Access All Alternates lookup 0 subtable" yen.smcp
EndChar
StartChar: brokenbar
Encoding: 166 166 764
Width: 659
Flags: W
LayerCount: 2
Back
Fore
SplineSet
308 786 m 1,0,-1
 308 1757 l 1,1,-1
 390 1757 l 1,2,-1
 390 786 l 1,3,-1
 308 786 l 1,0,-1
390 668 m 1,4,-1
 390 -399 l 1,5,-1
 308 -399 l 1,6,-1
 308 668 l 1,7,-1
 390 668 l 1,4,-1
EndSplineSet
EndChar
StartChar: section
Encoding: 167 167 773
Width: 1040
Flags: W
LayerCount: 2
Back
Fore
SplineSet
876 1439 m 128,-1,1
 910 1474 910 1474 961 1489 c 1,2,3
 948 1530 948 1530 893.5 1546.5 c 128,-1,4
 839 1563 839 1563 780 1563 c 0,5,6
 706 1563 706 1563 640 1536.5 c 128,-1,7
 574 1510 574 1510 531.5 1448.5 c 128,-1,8
 489 1387 489 1387 489 1290 c 0,9,10
 489 1233 489 1233 519 1181 c 128,-1,11
 549 1129 549 1129 592 1086.5 c 128,-1,12
 635 1044 635 1044 708 982 c 2,13,-1
 739 956 l 2,14,15
 813 894 813 894 857.5 847.5 c 128,-1,16
 902 801 902 801 927 750 c 128,-1,17
 952 699 952 699 952 639 c 0,18,19
 952 508 952 508 861 404 c 128,-1,20
 770 300 770 300 623 228 c 1,21,22
 711 127 711 127 711 18 c 0,23,24
 711 -93 711 -93 648 -185.5 c 128,-1,25
 585 -278 585 -278 481 -331.5 c 128,-1,26
 377 -385 377 -385 260 -385 c 0,27,28
 193 -385 193 -385 127 -365.5 c 128,-1,29
 61 -346 61 -346 17 -303.5 c 128,-1,30
 -27 -261 -27 -261 -27 -195 c 0,31,32
 -27 -160 -27 -160 -8.5 -127.5 c 128,-1,33
 10 -95 10 -95 41.5 -75 c 128,-1,34
 73 -55 73 -55 111 -55 c 0,35,36
 151 -55 151 -55 175 -77 c 128,-1,37
 199 -99 199 -99 199 -137 c 0,38,39
 199 -186 199 -186 165 -222 c 128,-1,40
 131 -258 131 -258 80 -272 c 1,41,42
 92 -311 92 -311 148 -328.5 c 128,-1,43
 204 -346 204 -346 260 -346 c 0,44,45
 336 -346 336 -346 401.5 -319 c 128,-1,46
 467 -292 467 -292 509 -230.5 c 128,-1,47
 551 -169 551 -169 551 -70 c 0,48,49
 551 -13 551 -13 520.5 39 c 128,-1,50
 490 91 490 91 446.5 133 c 128,-1,51
 403 175 403 175 329 237 c 2,52,-1
 301 260 l 2,53,54
 227 323 227 323 182.5 369.5 c 128,-1,55
 138 416 138 416 113 467 c 128,-1,56
 88 518 88 518 88 578 c 0,57,58
 88 709 88 709 179.5 813 c 128,-1,59
 271 917 271 917 418 988 c 1,60,61
 330 1091 330 1091 330 1198 c 0,62,63
 330 1309 330 1309 393 1401.5 c 128,-1,64
 456 1494 456 1494 559.5 1548 c 128,-1,65
 663 1602 663 1602 780 1602 c 0,66,67
 845 1602 845 1602 912 1582.5 c 128,-1,68
 979 1563 979 1563 1024 1521 c 128,-1,69
 1069 1479 1069 1479 1069 1417 c 0,70,71
 1069 1380 1069 1380 1051 1346.5 c 128,-1,72
 1033 1313 1033 1313 1001.5 1292.5 c 128,-1,73
 970 1272 970 1272 930 1272 c 256,74,75
 890 1272 890 1272 866 1295 c 128,-1,76
 842 1318 842 1318 842 1358 c 0,77,0
 842 1404 842 1404 876 1439 c 128,-1,1
440 963 m 1,79,80
 221 846 221 846 221 692 c 0,81,82
 221 640 221 640 249.5 591.5 c 128,-1,83
 278 543 278 543 321 500.5 c 128,-1,84
 364 458 364 458 436 397 c 0,85,86
 553 301 553 301 600 253 c 1,87,88
 819 371 819 371 819 524 c 0,89,90
 819 577 819 577 790.5 626 c 128,-1,91
 762 675 762 675 719 717 c 128,-1,92
 676 759 676 759 604 819 c 0,93,78
 477 925 477 925 440 963 c 1,79,80
EndSplineSet
Substitution2: "'smcp' Lowercase to Small Capitals lookup 24 subtable" section.smcp
Substitution2: "'c2sc' Capitals to Small Capitals lookup 23 subtable" section.smcp
Substitution2: "'aalt' Access All Alternates lookup 0 subtable" section.smcp
EndChar
StartChar: dieresis
Encoding: 168 168 797
Width: 799
Flags: W
LayerCount: 2
Back
Fore
SplineSet
79 1451 m 128,-1,1
 98 1482 98 1482 130 1502 c 128,-1,2
 162 1522 162 1522 198 1522 c 0,3,4
 241 1522 241 1522 270.5 1492 c 128,-1,5
 300 1462 300 1462 300 1419 c 0,6,7
 300 1386 300 1386 281 1354.5 c 128,-1,8
 262 1323 262 1323 230.5 1303.5 c 128,-1,9
 199 1284 199 1284 163 1284 c 0,10,11
 117 1284 117 1284 88.5 1313.5 c 128,-1,12
 60 1343 60 1343 60 1389 c 0,13,0
 60 1420 60 1420 79 1451 c 128,-1,1
514 1451 m 128,-1,15
 533 1482 533 1482 564.5 1502 c 128,-1,16
 596 1522 596 1522 632 1522 c 0,17,18
 675 1522 675 1522 704.5 1492 c 128,-1,19
 734 1462 734 1462 734 1419 c 0,20,21
 734 1386 734 1386 715 1354.5 c 128,-1,22
 696 1323 696 1323 664.5 1303.5 c 128,-1,23
 633 1284 633 1284 597 1284 c 0,24,25
 552 1284 552 1284 523.5 1314 c 128,-1,26
 495 1344 495 1344 495 1389 c 0,27,14
 495 1420 495 1420 514 1451 c 128,-1,15
EndSplineSet
Substitution2: "'case' Case-Sensitive Forms lookup 25 subtable" dieresis.case
Substitution2: "'smcp' Lowercase to Small Capitals lookup 24 subtable" dieresis.smcp
Substitution2: "'c2sc' Capitals to Small Capitals lookup 23 subtable" dieresis.smcp
AlternateSubs2: "'aalt' Access All Alternates lookup 1 subtable" dieresis.smcp dieresis.case
EndChar
StartChar: copyright
Encoding: 169 169 766
Width: 1892
Flags: W
LayerCount: 2
Back
Fore
SplineSet
288.5 1195.5 m 128,-1,1
 398 1383 398 1383 585.5 1492.5 c 128,-1,2
 773 1602 773 1602 994 1602 c 0,3,4
 1216 1602 1216 1602 1403 1492.5 c 128,-1,5
 1590 1383 1590 1383 1699.5 1195.5 c 128,-1,6
 1809 1008 1809 1008 1809 786 c 0,7,8
 1809 565 1809 565 1699.5 377.5 c 128,-1,9
 1590 190 1590 190 1403 80.5 c 128,-1,10
 1216 -29 1216 -29 994 -29 c 0,11,12
 773 -29 773 -29 585.5 80.5 c 128,-1,13
 398 190 398 190 288.5 377.5 c 128,-1,14
 179 565 179 565 179 786 c 0,15,0
 179 1008 179 1008 288.5 1195.5 c 128,-1,1
359.5 411 m 128,-1,17
 458 239 458 239 626.5 138 c 128,-1,18
 795 37 795 37 994 37 c 0,19,20
 1194 37 1194 37 1362.5 138 c 128,-1,21
 1531 239 1531 239 1629.5 411 c 128,-1,22
 1728 583 1728 583 1728 786 c 0,23,24
 1728 990 1728 990 1629.5 1162 c 128,-1,25
 1531 1334 1531 1334 1362.5 1435 c 128,-1,26
 1194 1536 1194 1536 994 1536 c 0,27,28
 795 1536 795 1536 626.5 1435 c 128,-1,29
 458 1334 458 1334 359.5 1162 c 128,-1,30
 261 990 261 990 261 786 c 0,31,16
 261 583 261 583 359.5 411 c 128,-1,17
1210.5 370 m 128,-1,33
 1290 421 1290 421 1340 530 c 1,34,-1
 1379 516 l 1,35,36
 1356 443 1356 443 1308.5 378.5 c 128,-1,37
 1261 314 1261 314 1184 272.5 c 128,-1,38
 1107 231 1107 231 1005 231 c 0,39,40
 876 231 876 231 772.5 297 c 128,-1,41
 669 363 669 363 609.5 486 c 128,-1,42
 550 609 550 609 550 774 c 0,43,44
 550 940 550 940 610.5 1069.5 c 128,-1,45
 671 1199 671 1199 779.5 1271 c 128,-1,46
 888 1343 888 1343 1029 1343 c 0,47,48
 1115 1343 1115 1343 1191.5 1315.5 c 128,-1,49
 1268 1288 1268 1288 1314.5 1237 c 128,-1,50
 1361 1186 1361 1186 1361 1120 c 0,51,52
 1361 1067 1361 1067 1330.5 1036.5 c 128,-1,53
 1300 1006 1300 1006 1252 1006 c 0,54,55
 1205 1006 1205 1006 1172.5 1036 c 128,-1,56
 1140 1066 1140 1066 1140 1116 c 0,57,58
 1140 1158 1140 1158 1163 1185 c 128,-1,59
 1186 1212 1186 1212 1226 1221 c 1,60,61
 1206 1258 1206 1258 1153 1282.5 c 128,-1,62
 1100 1307 1100 1307 1041 1307 c 0,63,64
 966 1307 966 1307 900 1259.5 c 128,-1,65
 834 1212 834 1212 791.5 1098.5 c 128,-1,66
 749 985 749 985 749 799 c 0,67,68
 749 630 749 630 788.5 523 c 128,-1,69
 828 416 828 416 893.5 367.5 c 128,-1,70
 959 319 959 319 1041 319 c 0,71,32
 1131 319 1131 319 1210.5 370 c 128,-1,33
EndSplineSet
EndChar
StartChar: ordfeminine
Encoding: 170 170 421
Width: 930
GlyphClass: 2
Flags: W
LayerCount: 2
Back
Fore
SplineSet
931 979 m 1,0,-1
 894 879 l 2,1,2
 865 799 865 799 821 768 c 128,-1,3
 777 737 777 737 710 737 c 0,4,5
 665 737 665 737 643 756.5 c 128,-1,6
 621 776 621 776 621 821 c 0,7,8
 621 864 621 864 640 930 c 2,9,-1
 665 1016 l 1,10,11
 527 737 527 737 357 737 c 0,12,13
 283 737 283 737 240.5 782.5 c 128,-1,14
 198 828 198 828 198 901 c 0,15,16
 198 1019 198 1019 276.5 1156 c 128,-1,17
 355 1293 355 1293 473 1386 c 128,-1,18
 591 1479 591 1479 699 1479 c 0,19,20
 728 1479 728 1479 750.5 1461 c 128,-1,21
 773 1443 773 1443 776 1405 c 1,22,-1
 792 1460 l 1,23,24
 875 1460 875 1460 935 1479 c 1,25,-1
 742 881 l 2,26,27
 732 851 732 851 732 830 c 0,28,29
 732 797 732 797 765 797 c 0,30,31
 799 797 799 797 823.5 826 c 128,-1,32
 848 855 848 855 873 928 c 2,33,-1
 892 979 l 1,34,-1
 931 979 l 1,0,-1
504.5 848.5 m 128,-1,36
 567 909 567 909 626.5 1008.5 c 128,-1,37
 686 1108 686 1108 722 1217 c 1,38,-1
 761 1352 l 1,39,40
 758 1430 758 1430 710 1430 c 0,41,42
 639 1430 639 1430 553 1350 c 128,-1,43
 467 1270 467 1270 407 1143.5 c 128,-1,44
 347 1017 347 1017 347 885 c 0,45,46
 347 839 347 839 360 813.5 c 128,-1,47
 373 788 373 788 398 788 c 0,48,35
 442 788 442 788 504.5 848.5 c 128,-1,36
EndSplineSet
EndChar
StartChar: guillemotleft
Encoding: 171 171 657
Width: 1059
Flags: W
LayerCount: 2
Back
Fore
SplineSet
530 875 m 128,-1,1
 452 759 452 759 363.5 656.5 c 128,-1,2
 275 554 275 554 202 500 c 1,3,4
 259 453 259 453 318.5 359 c 128,-1,5
 378 265 378 265 424.5 159 c 128,-1,6
 471 53 471 53 491 -29 c 1,7,-1
 454 -29 l 1,8,9
 273 324 273 324 48 498 c 1,10,-1
 48 502 l 1,11,12
 205 612 205 612 342 755 c 128,-1,13
 479 898 479 898 613 1081 c 1,14,-1
 650 1081 l 1,15,0
 608 991 608 991 530 875 c 128,-1,1
871.5 877 m 128,-1,17
 794 761 794 761 704 657.5 c 128,-1,18
 614 554 614 554 540 500 c 1,19,20
 596 453 596 453 655.5 359 c 128,-1,21
 715 265 715 265 762 158.5 c 128,-1,22
 809 52 809 52 828 -29 c 1,23,-1
 792 -29 l 1,24,25
 611 324 611 324 386 498 c 1,26,-1
 386 502 l 1,27,28
 543 612 543 612 680 755 c 128,-1,29
 817 898 817 898 951 1081 c 1,30,-1
 988 1081 l 1,31,16
 949 993 949 993 871.5 877 c 128,-1,17
EndSplineSet
Substitution2: "'case' Case-Sensitive Forms lookup 25 subtable" guillemotleft.case
Substitution2: "'smcp' Lowercase to Small Capitals lookup 24 subtable" guillemotleft.smcp
Substitution2: "'c2sc' Capitals to Small Capitals lookup 23 subtable" guillemotleft.smcp
AlternateSubs2: "'aalt' Access All Alternates lookup 1 subtable" guillemotleft.smcp guillemotleft.case
EndChar
StartChar: logicalnot
Encoding: 172 172 734
Width: 1354
Flags: W
LayerCount: 2
Back
Fore
SplineSet
1236 758 m 1,0,-1
 1115 338 l 1,1,-1
 1041 338 l 1,2,-1
 1144 696 l 1,3,-1
 192 696 l 1,4,-1
 210 758 l 1,5,-1
 1236 758 l 1,0,-1
EndSplineSet
EndChar
StartChar: registered
Encoding: 174 174 772
Width: 1432
Flags: W
LayerCount: 2
Back
Fore
SplineSet
1114.5 1525 m 128,-1,1
 1246 1448 1246 1448 1323 1316.5 c 128,-1,2
 1400 1185 1400 1185 1400 1030 c 256,3,4
 1400 875 1400 875 1323 744 c 128,-1,5
 1246 613 1246 613 1114.5 536 c 128,-1,6
 983 459 983 459 828 459 c 256,7,8
 673 459 673 459 542 536 c 128,-1,9
 411 613 411 613 334 744 c 128,-1,10
 257 875 257 875 257 1030 c 256,11,12
 257 1185 257 1185 334 1316.5 c 128,-1,13
 411 1448 411 1448 542 1525 c 128,-1,14
 673 1602 673 1602 828 1602 c 256,15,0
 983 1602 983 1602 1114.5 1525 c 128,-1,1
1072.5 592.5 m 128,-1,17
 1184 661 1184 661 1249 777.5 c 128,-1,18
 1314 894 1314 894 1314 1030 c 0,19,20
 1314 1167 1314 1167 1249 1283 c 128,-1,21
 1184 1399 1184 1399 1072.5 1467.5 c 128,-1,22
 961 1536 961 1536 828 1536 c 256,23,24
 695 1536 695 1536 584 1467.5 c 128,-1,25
 473 1399 473 1399 408 1283 c 128,-1,26
 343 1167 343 1167 343 1030 c 0,27,28
 343 894 343 894 408 777.5 c 128,-1,29
 473 661 473 661 584.5 592.5 c 128,-1,30
 696 524 696 524 828 524 c 0,31,16
 961 524 961 524 1072.5 592.5 c 128,-1,17
1134 762 m 1,33,-1
 1154 748 l 1,34,35
 1142 724 1142 724 1120.5 714.5 c 128,-1,36
 1099 705 1099 705 1064 705 c 0,37,38
 1012 705 1012 705 987.5 724 c 128,-1,39
 963 743 963 743 951 788 c 2,40,-1
 917 940 l 2,41,42
 908 980 908 980 893.5 998.5 c 128,-1,43
 879 1017 879 1017 844.5 1024.5 c 128,-1,44
 810 1032 810 1032 736 1034 c 1,45,-1
 736 827 l 2,46,47
 736 795 736 795 739.5 780 c 128,-1,48
 743 765 743 765 752.5 759.5 c 128,-1,49
 762 754 762 754 783 752 c 1,50,-1
 783 721 l 1,51,52
 756 721 756 721 740 722 c 2,53,-1
 679 723 l 1,54,-1
 611 722 l 2,55,56
 596 721 596 721 572 721 c 1,57,-1
 572 752 l 1,58,59
 593 754 593 754 602.5 759.5 c 128,-1,60
 612 765 612 765 616 780 c 128,-1,61
 620 795 620 795 620 827 c 2,62,-1
 620 1276 l 2,63,64
 620 1309 620 1309 616 1324.5 c 128,-1,65
 612 1340 612 1340 602.5 1346 c 128,-1,66
 593 1352 593 1352 572 1354 c 1,67,-1
 572 1384 l 1,68,69
 597 1382 597 1382 671 1382 c 2,70,-1
 797 1383 l 2,71,72
 819 1384 819 1384 847 1384 c 0,73,74
 963 1384 963 1384 1023.5 1342 c 128,-1,75
 1084 1300 1084 1300 1084 1223 c 0,76,77
 1084 1084 1084 1084 886 1049 c 1,78,79
 967 1040 967 1040 1002 1012 c 128,-1,80
 1037 984 1037 984 1048 930 c 2,81,-1
 1072 813 l 2,82,83
 1074 805 1074 805 1078 784.5 c 128,-1,84
 1082 764 1082 764 1089.5 754.5 c 128,-1,85
 1097 745 1097 745 1109 745 c 0,86,32
 1124 745 1124 745 1134 762 c 1,33,-1
764.5 1348.5 m 128,-1,88
 748 1343 748 1343 742 1329 c 128,-1,89
 736 1315 736 1315 736 1286 c 2,90,-1
 736 1067 l 1,91,-1
 785 1067 l 2,92,93
 886 1067 886 1067 921.5 1102 c 128,-1,94
 957 1137 957 1137 957 1202 c 0,95,96
 957 1281 957 1281 924.5 1317.5 c 128,-1,97
 892 1354 892 1354 814 1354 c 0,98,87
 781 1354 781 1354 764.5 1348.5 c 128,-1,88
EndSplineSet
EndChar
StartChar: degree
Encoding: 176 176 769
Width: 686
Flags: W
LayerCount: 2
Back
Fore
SplineSet
658 1649 m 128,-1,1
 715 1619 715 1619 749 1563 c 128,-1,2
 783 1507 783 1507 783 1434 c 0,3,4
 783 1359 783 1359 749 1303 c 128,-1,5
 715 1247 715 1247 658 1216.5 c 128,-1,6
 601 1186 601 1186 534 1186 c 256,7,8
 467 1186 467 1186 410.5 1216.5 c 128,-1,9
 354 1247 354 1247 320 1303 c 128,-1,10
 286 1359 286 1359 286 1434 c 0,11,12
 286 1507 286 1507 320 1563 c 128,-1,13
 354 1619 354 1619 410.5 1649 c 128,-1,14
 467 1679 467 1679 534 1679 c 256,15,0
 601 1679 601 1679 658 1649 c 128,-1,1
628.5 1244.5 m 128,-1,17
 674 1268 674 1268 703 1316 c 128,-1,18
 732 1364 732 1364 732 1432 c 0,19,20
 732 1498 732 1498 702.5 1546.5 c 128,-1,21
 673 1595 673 1595 627.5 1620 c 128,-1,22
 582 1645 582 1645 534 1645 c 256,23,24
 486 1645 486 1645 440.5 1620 c 128,-1,25
 395 1595 395 1595 366 1546.5 c 128,-1,26
 337 1498 337 1498 337 1432 c 0,27,28
 337 1364 337 1364 366 1316 c 128,-1,29
 395 1268 395 1268 440 1244.5 c 128,-1,30
 485 1221 485 1221 534 1221 c 256,31,16
 583 1221 583 1221 628.5 1244.5 c 128,-1,17
EndSplineSet
EndChar
StartChar: threesuperior
Encoding: 179 179 637
Width: 668
Flags: W
LayerCount: 2
Back
Fore
SplineSet
730 1516 m 128,-1,1
 775 1488 775 1488 775 1434 c 0,2,3
 775 1379 775 1379 730 1331 c 128,-1,4
 685 1283 685 1283 619 1249 c 128,-1,5
 553 1215 553 1215 491 1200 c 1,6,7
 587 1197 587 1197 650.5 1160.5 c 128,-1,8
 714 1124 714 1124 714 1049 c 0,9,10
 714 953 714 953 615.5 879 c 128,-1,11
 517 805 517 805 371.5 762 c 128,-1,12
 226 719 226 719 87 709 c 1,13,-1
 87 745 l 1,14,15
 211 755 211 755 327 796 c 128,-1,16
 443 837 443 837 517 906.5 c 128,-1,17
 591 976 591 976 591 1065 c 0,18,19
 591 1168 591 1168 478 1171 c 1,20,21
 441 1151 441 1151 413 1151 c 0,22,23
 376 1151 376 1151 376 1178 c 0,24,25
 376 1215 376 1215 466 1212 c 1,26,27
 554 1244 554 1244 605 1293.5 c 128,-1,28
 656 1343 656 1343 656 1405 c 0,29,30
 656 1443 656 1443 631 1462 c 128,-1,31
 606 1481 606 1481 560 1481 c 0,32,33
 438 1481 438 1481 323 1366 c 1,34,-1
 294 1391 l 1,35,36
 345 1451 345 1451 430 1497.5 c 128,-1,37
 515 1544 515 1544 611 1544 c 0,38,0
 685 1544 685 1544 730 1516 c 128,-1,1
EndSplineSet
EndChar
StartChar: acute
Encoding: 180 180 791
Width: 457
Flags: W
LayerCount: 2
Back
Fore
SplineSet
447 1486 m 0,1,2
 529 1597 529 1597 566 1634 c 0,3,4
 606 1680 606 1680 650 1680 c 0,5,6
 675 1680 675 1680 695 1665 c 0,7,8
 711 1649 711 1649 711 1625 c 0,9,10
 711 1584 711 1584 665 1538 c 0,11,12
 626 1496 626 1496 527 1425 c 0,13,14
 385 1321 385 1321 280 1227 c 1,15,-1
 259 1245 l 1,16,0
 344 1345 344 1345 447 1486 c 0,1,2
EndSplineSet
Substitution2: "'case' Case-Sensitive Forms lookup 25 subtable" acute.case
Substitution2: "'smcp' Lowercase to Small Capitals lookup 24 subtable" acute.smcp
Substitution2: "'c2sc' Capitals to Small Capitals lookup 23 subtable" acute.smcp
Substitution2: "'locl' Localized Forms in Latin lookup 7 subtable" acute.loclPLK
AlternateSubs2: "'aalt' Access All Alternates lookup 1 subtable" acute.loclPLK acute.smcp acute.case
EndChar
StartChar: paragraph
Encoding: 182 182 771
Width: 1311
Flags: W
LayerCount: 2
Back
Fore
SplineSet
229 104 m 128,-1,1
 73 235 73 235 73 469 c 0,2,3
 73 737 73 737 201.5 962.5 c 128,-1,4
 330 1188 330 1188 551 1320 c 128,-1,5
 772 1452 772 1452 1037 1452 c 0,6,7
 1044 1452 1044 1452 1203 1449 c 0,8,9
 1275 1446 1275 1446 1345 1446 c 0,10,11
 1426 1446 1426 1446 1467 1450 c 1,12,-1
 1457 1411 l 1,13,14
 1392 1408 1392 1408 1354 1392.5 c 128,-1,15
 1316 1377 1316 1377 1296 1348.5 c 128,-1,16
 1276 1320 1276 1320 1263 1272 c 2,17,-1
 978 190 l 2,18,19
 907 -77 907 -77 783 -231 c 128,-1,20
 659 -385 659 -385 476 -385 c 0,21,22
 382 -385 382 -385 325 -356 c 128,-1,23
 268 -327 268 -327 267 -272 c 0,24,25
 267 -243 267 -243 284 -213.5 c 128,-1,26
 301 -184 301 -184 329 -165.5 c 128,-1,27
 357 -147 357 -147 388 -147 c 0,28,29
 420 -147 420 -147 438 -165 c 128,-1,30
 456 -183 456 -183 456 -211 c 0,31,32
 456 -277 456 -277 384 -342 c 1,33,34
 414 -352 414 -352 456 -352 c 0,35,36
 526 -352 526 -352 575.5 -311.5 c 128,-1,37
 625 -271 625 -271 659 -201 c 128,-1,38
 693 -131 693 -131 724 -27 c 1,39,0
 385 -27 385 -27 229 104 c 128,-1,1
782.5 345 m 128,-1,41
 758 186 758 186 758 120 c 0,42,43
 758 98 758 98 761 98 c 0,44,45
 813 291 813 291 953 814.5 c 128,-1,46
 1093 1338 1093 1338 1095 1343 c 1,47,48
 1088 1343 1088 1343 1049.5 1256.5 c 128,-1,49
 1011 1170 1011 1170 962 1033.5 c 128,-1,50
 913 897 913 897 871 750 c 1,51,52
 727 750 727 750 595 744 c 128,-1,53
 463 738 463 738 377 730 c 128,-1,54
 291 722 291 722 290 719 c 0,55,56
 289 715 289 715 369 708 c 128,-1,57
 449 701 449 701 579 695.5 c 128,-1,58
 709 690 709 690 855 690 c 1,59,40
 807 504 807 504 782.5 345 c 128,-1,41
EndSplineSet
Substitution2: "'smcp' Lowercase to Small Capitals lookup 24 subtable" paragraph.smcp
Substitution2: "'c2sc' Capitals to Small Capitals lookup 23 subtable" paragraph.smcp
Substitution2: "'aalt' Access All Alternates lookup 0 subtable" paragraph.smcp
EndChar
StartChar: cedilla
Encoding: 184 184 794
Width: 467
Flags: W
LayerCount: 2
Back
Fore
SplineSet
326 -133 m 0,1,2
 367 -133 367 -133 390.5 -155 c 128,-1,3
 414 -177 414 -177 414 -215 c 0,4,5
 414 -271 414 -271 375 -309.5 c 128,-1,6
 336 -348 336 -348 277.5 -366.5 c 128,-1,7
 219 -385 219 -385 162 -385 c 0,8,9
 109 -385 109 -385 64.5 -371.5 c 128,-1,10
 20 -358 20 -358 -2 -340 c 1,11,-1
 12 -309 l 1,12,13
 42 -322 42 -322 67 -329 c 128,-1,14
 92 -336 92 -336 135 -336 c 0,15,16
 162 -336 162 -336 196.5 -326 c 128,-1,17
 231 -316 231 -316 257 -292.5 c 128,-1,18
 283 -269 283 -269 283 -231 c 0,19,20
 283 -182 283 -182 225 -182 c 0,21,22
 192 -182 192 -182 162 -197 c 1,23,-1
 256 0 l 1,24,-1
 311 0 l 1,25,-1
 242 -147 l 1,26,0
 281 -133 281 -133 326 -133 c 0,1,2
EndSplineSet
Substitution2: "'case' Case-Sensitive Forms lookup 25 subtable" cedilla.case
Substitution2: "'smcp' Lowercase to Small Capitals lookup 24 subtable" cedilla.smcp
Substitution2: "'c2sc' Capitals to Small Capitals lookup 23 subtable" cedilla.smcp
AlternateSubs2: "'aalt' Access All Alternates lookup 1 subtable" cedilla.smcp cedilla.case
EndChar
StartChar: onesuperior
Encoding: 185 185 635
Width: 518
Flags: W
LayerCount: 2
Back
Fore
SplineSet
318 895 m 1,0,-1
 484 1409 l 1,1,2
 421 1372 421 1372 364.5 1346 c 128,-1,3
 308 1320 308 1320 226 1298 c 1,4,-1
 237 1337 l 1,5,6
 328 1365 328 1365 394.5 1398.5 c 128,-1,7
 461 1432 461 1432 501.5 1461 c 128,-1,8
 542 1490 542 1490 607 1542 c 1,9,-1
 646 1542 l 1,10,-1
 439 895 l 1,11,-1
 318 895 l 1,0,-1
EndSplineSet
EndChar
StartChar: ordmasculine
Encoding: 186 186 422
Width: 842
GlyphClass: 2
Flags: W
LayerCount: 2
Back
Fore
SplineSet
270.5 1184 m 128,-1,1
 323 1308 323 1308 421.5 1393.5 c 128,-1,2
 520 1479 520 1479 652 1479 c 0,3,4
 763 1479 763 1479 825.5 1424.5 c 128,-1,5
 888 1370 888 1370 888 1264 c 0,6,7
 888 1156 888 1156 835.5 1032.5 c 128,-1,8
 783 909 783 909 684.5 824 c 128,-1,9
 586 739 586 739 454 739 c 0,10,11
 343 739 343 739 280.5 793 c 128,-1,12
 218 847 218 847 218 952 c 0,13,0
 218 1060 218 1060 270.5 1184 c 128,-1,1
506 1358 m 128,-1,15
 442 1274 442 1274 404 1146 c 128,-1,16
 366 1018 366 1018 366 895 c 0,17,18
 366 834 366 834 390 805 c 128,-1,19
 414 776 414 776 464 776 c 0,20,21
 536 776 536 776 600 859.5 c 128,-1,22
 664 943 664 943 702 1071.5 c 128,-1,23
 740 1200 740 1200 740 1323 c 0,24,25
 740 1384 740 1384 716 1413 c 128,-1,26
 692 1442 692 1442 642 1442 c 0,27,14
 570 1442 570 1442 506 1358 c 128,-1,15
EndSplineSet
EndChar
StartChar: guillemotright
Encoding: 187 187 658
Width: 1057
Flags: W
LayerCount: 2
Back
Fore
SplineSet
632 553 m 1,1,-1
 632 551 l 1,2,3
 475 439 475 439 337.5 296.5 c 128,-1,4
 200 154 200 154 67 -29 c 1,5,-1
 30 -29 l 1,6,7
 72 61 72 61 150 177 c 128,-1,8
 228 293 228 293 316.5 396 c 128,-1,9
 405 499 405 499 478 553 c 1,10,11
 421 600 421 600 361.5 693.5 c 128,-1,12
 302 787 302 787 255.5 893 c 128,-1,13
 209 999 209 999 189 1081 c 1,14,-1
 226 1081 l 1,15,0
 407 727 407 727 632 553 c 1,1,-1
970 553 m 1,17,-1
 970 551 l 1,18,19
 670 338 670 338 405 -29 c 1,20,-1
 368 -29 l 1,21,22
 410 61 410 61 488 177 c 128,-1,23
 566 293 566 293 654.5 396 c 128,-1,24
 743 499 743 499 816 553 c 1,25,26
 759 600 759 600 699.5 693.5 c 128,-1,27
 640 787 640 787 593.5 893 c 128,-1,28
 547 999 547 999 527 1081 c 1,29,-1
 564 1081 l 1,30,16
 745 727 745 727 970 553 c 1,17,-1
EndSplineSet
Substitution2: "'case' Case-Sensitive Forms lookup 25 subtable" guillemotright.case
Substitution2: "'smcp' Lowercase to Small Capitals lookup 24 subtable" guillemotright.smcp
Substitution2: "'c2sc' Capitals to Small Capitals lookup 23 subtable" guillemotright.smcp
AlternateSubs2: "'aalt' Access All Alternates lookup 1 subtable" guillemotright.smcp guillemotright.case
EndChar
StartChar: questiondown
Encoding: 191 191 683
Width: 913
Flags: W
LayerCount: 2
Back
Fore
SplineSet
431 1000.5 m 128,-1,1
 453 1037 453 1037 488.5 1059 c 128,-1,2
 524 1081 524 1081 562 1081 c 0,3,4
 608 1081 608 1081 637 1050.5 c 128,-1,5
 666 1020 666 1020 666 974 c 0,6,7
 666 934 666 934 644.5 898.5 c 128,-1,8
 623 863 623 863 587 841 c 128,-1,9
 551 819 551 819 512 819 c 0,10,11
 467 819 467 819 438 849 c 128,-1,12
 409 879 409 879 409 924 c 0,13,0
 409 964 409 964 431 1000.5 c 128,-1,1
408 -324 m 128,-1,15
 485 -298 485 -298 504 -250 c 1,16,17
 485 -245 485 -245 469 -221.5 c 128,-1,18
 453 -198 453 -198 453 -168 c 0,19,20
 453 -124 453 -124 484 -96 c 128,-1,21
 515 -68 515 -68 561 -68 c 0,22,23
 601 -68 601 -68 622 -91 c 128,-1,24
 643 -114 643 -114 643 -154 c 0,25,26
 643 -220 643 -220 581.5 -273 c 128,-1,27
 520 -326 520 -326 420.5 -355.5 c 128,-1,28
 321 -385 321 -385 213 -385 c 0,29,30
 78 -385 78 -385 -4 -332.5 c 128,-1,31
 -86 -280 -86 -280 -86 -184 c 0,32,33
 -86 -122 -86 -122 -54 -71.5 c 128,-1,34
 -22 -21 -22 -21 46.5 34 c 128,-1,35
 115 89 115 89 252 180 c 1,36,-1
 322 229 l 2,37,38
 408 290 408 290 447.5 321.5 c 128,-1,39
 487 353 487 353 509.5 389.5 c 128,-1,40
 532 426 532 426 532 473 c 0,41,42
 532 510 532 510 514.5 542 c 128,-1,43
 497 574 497 574 465.5 593 c 128,-1,44
 434 612 434 612 393 612 c 0,45,46
 328 612 328 612 265.5 587.5 c 128,-1,47
 203 563 203 563 178 522 c 1,48,49
 198 520 198 520 215 498.5 c 128,-1,50
 232 477 232 477 231 451 c 0,51,52
 231 418 231 418 205 392.5 c 128,-1,53
 179 367 179 367 139 367 c 0,54,55
 70 367 70 367 70 438 c 0,56,57
 70 499 70 499 126 547 c 128,-1,58
 182 595 182 595 267 621 c 128,-1,59
 352 647 352 647 434 647 c 0,60,61
 541 647 541 647 605.5 596 c 128,-1,62
 670 545 670 545 670 451 c 0,63,64
 670 383 670 383 634.5 327.5 c 128,-1,65
 599 272 599 272 542.5 225 c 128,-1,66
 486 178 486 178 378 102 c 0,67,68
 346 80 346 80 330 68 c 0,69,70
 231 2 231 2 178.5 -40 c 128,-1,71
 126 -82 126 -82 100 -122.5 c 128,-1,72
 74 -163 74 -163 74 -211 c 0,73,74
 74 -271 74 -271 121 -310.5 c 128,-1,75
 168 -350 168 -350 252 -350 c 0,76,14
 331 -350 331 -350 408 -324 c 128,-1,15
EndSplineSet
Substitution2: "'case' Case-Sensitive Forms lookup 25 subtable" questiondown.case
Substitution2: "'smcp' Lowercase to Small Capitals lookup 24 subtable" questiondown.smcp
Substitution2: "'c2sc' Capitals to Small Capitals lookup 23 subtable" questiondown.smcp
AlternateSubs2: "'aalt' Access All Alternates lookup 1 subtable" questiondown.smcp questiondown.case
EndChar
StartChar: AE
Encoding: 198 198 12
Width: 1837
GlyphClass: 2
Flags: W
AnchorPoint: "Anchor-5" 0 0 basechar 0
AnchorPoint: "Anchor-4" 1200 1450 basechar 0
AnchorPoint: "Anchor-3" 0 0 basechar 0
LayerCount: 2
Back
Fore
SplineSet
1913 1450 m 1,1,2
 1881 1361 1881 1361 1835 1208 c 0,3,4
 1816 1140 1816 1140 1808 1081 c 1,5,-1
 1763 1081 l 1,6,7
 1778 1167 1778 1167 1778 1226 c 0,8,9
 1778 1322 1778 1322 1735.5 1362.5 c 128,-1,10
 1693 1403 1693 1403 1597 1403 c 2,11,-1
 1407 1403 l 2,12,13
 1336 1403 1336 1403 1300.5 1391 c 128,-1,14
 1265 1379 1265 1379 1243.5 1344.5 c 128,-1,15
 1222 1310 1222 1310 1202 1233 c 2,16,-1
 1074 750 l 1,17,-1
 1294 750 l 2,18,19
 1352 750 1352 750 1390.5 780.5 c 128,-1,20
 1429 811 1429 811 1452.5 856.5 c 128,-1,21
 1476 902 1476 902 1505 979 c 1,22,-1
 1550 979 l 1,23,24
 1524 897 1524 897 1491 770 c 0,25,26
 1484 739 1484 739 1481 729 c 0,27,28
 1459 654 1459 654 1427 479 c 1,29,-1
 1382 479 l 1,30,31
 1382 490 1382 490 1387 542 c 0,32,33
 1393 586 1393 586 1393 606 c 0,34,35
 1393 651 1393 651 1370 678 c 128,-1,36
 1347 705 1347 705 1286 709 c 1,37,-1
 1063 709 l 1,38,-1
 932 217 l 2,39,40
 914 147 914 147 914 117 c 0,41,42
 914 88 914 88 927.5 73 c 128,-1,43
 941 58 941 58 969 52.5 c 128,-1,44
 997 47 997 47 1049 47 c 2,45,-1
 1260 47 l 2,46,47
 1359 47 1359 47 1422 81 c 128,-1,48
 1485 115 1485 115 1531.5 192 c 128,-1,49
 1578 269 1578 269 1626 410 c 1,50,-1
 1671 410 l 1,51,52
 1652 360 1652 360 1628 262 c 0,53,54
 1593 135 1593 135 1575 0 c 1,55,56
 1436 6 1436 6 1112 6 c 0,57,58
 723 6 723 6 522 0 c 1,59,-1
 530 41 l 1,60,61
 604 44 604 44 641 57 c 128,-1,62
 678 70 678 70 699.5 105 c 128,-1,63
 721 140 721 140 741 217 c 2,64,-1
 872 709 l 1,65,-1
 539 709 l 1,66,-1
 82 193 l 2,67,68
 23 126 23 126 23 96 c 0,69,70
 23 51 23 51 150 41 c 1,71,-1
 150 0 l 1,72,73
 95 6 95 6 -27 6 c 0,74,75
 -114 6 -114 6 -164 0 c 1,76,-1
 -164 41 l 1,77,78
 -99 44 -99 44 12 172 c 2,79,-1
 1029 1322 l 1,80,81
 1031 1356 1031 1356 1018 1374 c 128,-1,82
 1005 1392 1005 1392 975.5 1399 c 128,-1,83
 946 1406 946 1406 891 1409 c 1,84,-1
 901 1450 l 1,85,86
 1049 1446 1049 1446 1138 1446 c 1,87,-1
 1260 1583 l 1,88,-1
 1313 1583 l 1,89,-1
 1191 1445 l 1,90,91
 1278 1444 1278 1444 1354 1444 c 128,-1,92
 1430 1444 1430 1444 1489 1444 c 0,93,0
 1784 1444 1784 1444 1913 1450 c 1,1,2
1012 1233 m 1,94,-1
 1016 1247 l 1,95,-1
 575 750 l 1,96,-1
 883 750 l 1,97,-1
 1012 1233 l 1,94,-1
EndSplineSet
Substitution2: "'c2sc' Capitals to Small Capitals lookup 23 subtable" ae.smcp
Substitution2: "'aalt' Access All Alternates lookup 0 subtable" ae.smcp
Position2: "'cpsp' Capital Spacing lookup 0 subtable" dx=20 dy=0 dh=20 dv=0
EndChar
StartChar: Ccedilla
Encoding: 199 199 17
Width: 1372
GlyphClass: 2
Flags: W
AnchorPoint: "Anchor-5" 590 0 basechar 0
AnchorPoint: "Anchor-4" 1006 1450 basechar 0
AnchorPoint: "Anchor-3" 0 0 basechar 0
LayerCount: 2
Back
Fore
SplineSet
1326 979 m 1,1,-1
 1281 979 l 1,2,3
 1293 1058 1293 1058 1293 1119 c 0,4,5
 1293 1215 1293 1215 1261 1282 c 0,6,7
 1223 1358 1223 1358 1150.5 1400 c 128,-1,8
 1078 1442 1078 1442 992 1442 c 0,9,10
 822 1442 822 1442 663.5 1282 c 128,-1,11
 505 1122 505 1122 406.5 879.5 c 128,-1,12
 308 637 308 637 308 410 c 0,13,14
 308 212 308 212 385.5 110 c 128,-1,15
 463 8 463 8 601 8 c 0,16,17
 691 8 691 8 791.5 50 c 128,-1,18
 892 92 892 92 966 168 c 0,19,20
 1018 221 1018 221 1057.5 292 c 128,-1,21
 1097 363 1097 363 1150 492 c 1,22,-1
 1195 492 l 1,23,24
 1102 152 1102 152 1074 0 c 1,25,-1
 1029 0 l 1,26,27
 1035 43 1035 43 1035 70 c 0,28,29
 1035 122 1035 122 1011 122 c 0,30,31
 995 122 995 122 968 104 c 0,32,33
 897 58 897 58 850 33 c 128,-1,34
 803 8 803 8 741 -9.5 c 128,-1,35
 679 -27 679 -27 600 -29 c 1,36,-1
 544 -147 l 1,37,38
 595 -133 595 -133 648 -133 c 0,39,40
 699 -133 699 -133 728 -155 c 128,-1,41
 757 -177 757 -177 757 -215 c 0,42,43
 757 -271 757 -271 708.5 -309.5 c 128,-1,44
 660 -348 660 -348 587.5 -366.5 c 128,-1,45
 515 -385 515 -385 444 -385 c 0,46,47
 377 -385 377 -385 323 -372 c 128,-1,48
 269 -359 269 -359 239 -340 c 1,49,-1
 253 -309 l 1,50,51
 324 -336 324 -336 417 -336 c 0,52,53
 455 -336 455 -336 504 -326 c 128,-1,54
 553 -316 553 -316 589.5 -292.5 c 128,-1,55
 626 -269 626 -269 626 -231 c 0,56,57
 626 -182 626 -182 548 -182 c 0,58,59
 506 -182 506 -182 464 -197 c 1,60,-1
 545 -28 l 1,61,62
 333 -18 333 -18 218 104.5 c 128,-1,63
 103 227 103 227 103 453 c 0,64,65
 103 689 103 689 221 928.5 c 128,-1,66
 339 1168 339 1168 544.5 1323.5 c 128,-1,67
 750 1479 750 1479 996 1479 c 0,68,69
 1079 1479 1079 1479 1135 1461 c 128,-1,70
 1191 1443 1191 1443 1225.5 1416.5 c 128,-1,71
 1260 1390 1260 1390 1302 1346 c 0,72,73
 1320 1328 1320 1328 1333 1328 c 0,74,75
 1369 1328 1369 1328 1414 1450 c 1,76,-1
 1457 1450 l 1,77,0
 1389 1273 1389 1273 1326 979 c 1,1,-1
EndSplineSet
Substitution2: "'c2sc' Capitals to Small Capitals lookup 23 subtable" ccedilla.smcp
Substitution2: "'aalt' Access All Alternates lookup 0 subtable" ccedilla.smcp
Position2: "'cpsp' Capital Spacing lookup 0 subtable" dx=20 dy=0 dh=20 dv=0
EndChar
StartChar: Eth
Encoding: 208 208 21
Width: 1485
GlyphClass: 2
Flags: W
AnchorPoint: "Anchor-5" 0 0 basechar 0
AnchorPoint: "Anchor-4" 840 1450 basechar 0
AnchorPoint: "Anchor-3" 0 0 basechar 0
LayerCount: 2
Back
Fore
SplineSet
1297 1335 m 128,-1,1
 1442 1220 1442 1220 1442 997 c 0,2,3
 1442 741 1442 741 1315.5 511 c 128,-1,4
 1189 281 1189 281 966.5 140.5 c 128,-1,5
 744 0 744 0 471 0 c 0,6,7
 424 0 424 0 352 3 c 0,8,9
 181 6 181 6 184 6 c 1,10,11
 19 6 19 6 -61 0 c 1,12,-1
 -55 41 l 1,13,14
 15 44 15 44 50.5 57 c 128,-1,15
 86 70 86 70 108 105.5 c 128,-1,16
 130 141 130 141 150 217 c 2,17,-1
 279 707 l 1,18,-1
 135 707 l 1,19,-1
 147 759 l 1,20,-1
 293 759 l 1,21,-1
 418 1233 l 2,22,23
 437 1307 437 1307 437 1334 c 0,24,25
 437 1374 437 1374 407 1390.5 c 128,-1,26
 377 1407 377 1407 299 1409 c 1,27,-1
 305 1450 l 1,28,29
 415 1443 415 1443 505 1443 c 2,30,-1
 555 1444 l 1,31,-1
 639 1446 l 2,32,33
 799 1450 799 1450 864 1450 c 0,34,0
 1152 1450 1152 1450 1297 1335 c 128,-1,1
880.5 175.5 m 128,-1,36
 1061 314 1061 314 1153 544.5 c 128,-1,37
 1245 775 1245 775 1245 1049 c 0,38,39
 1245 1234 1245 1234 1141 1323.5 c 128,-1,40
 1037 1413 1037 1413 807 1413 c 0,41,42
 743 1413 743 1413 707 1398.5 c 128,-1,43
 671 1384 671 1384 649 1347 c 128,-1,44
 627 1310 627 1310 608 1237 c 2,45,-1
 483 759 l 1,46,-1
 868 759 l 1,47,-1
 856 707 l 1,48,-1
 469 707 l 1,49,-1
 340 213 l 2,50,51
 321 142 321 142 321 112 c 0,52,53
 321 73 321 73 349 55 c 128,-1,54
 377 37 377 37 446 37 c 0,55,35
 700 37 700 37 880.5 175.5 c 128,-1,36
EndSplineSet
Substitution2: "'c2sc' Capitals to Small Capitals lookup 23 subtable" eth.smcp
Substitution2: "'aalt' Access All Alternates lookup 0 subtable" eth.smcp
Position2: "'cpsp' Capital Spacing lookup 0 subtable" dx=20 dy=0 dh=20 dv=0
EndChar
StartChar: multiply
Encoding: 215 215 736
Width: 1051
Flags: W
LayerCount: 2
Back
Fore
SplineSet
255 1085 m 1,0,-1
 308 1122 l 1,1,-1
 560 764 l 1,2,-1
 1025 1126 l 1,3,-1
 1058 1081 l 1,4,-1
 593 721 l 1,5,-1
 849 367 l 1,6,-1
 798 330 l 1,7,-1
 544 684 l 1,8,-1
 85 328 l 1,9,-1
 54 373 l 1,10,-1
 511 727 l 1,11,-1
 255 1085 l 1,0,-1
EndSplineSet
EndChar
StartChar: Oslash
Encoding: 216 216 80
Width: 1493
GlyphClass: 2
Flags: W
AnchorPoint: "Anchor-5" 604 0 basechar 0
AnchorPoint: "Anchor-4" 748 1450 basechar 0
AnchorPoint: "Anchor-3" 0 0 basechar 0
LayerCount: 2
Back
Fore
SplineSet
1448 985 m 0,1,2
 1448 754 1448 754 1338 517.5 c 128,-1,3
 1228 281 1228 281 1032 126 c 128,-1,4
 836 -29 836 -29 592 -29 c 0,5,6
 359 -29 359 -29 233 105 c 1,7,-1
 -6 -150 l 1,8,-1
 -41 -121 l 1,9,-1
 204 139 l 1,10,11
 111 264 111 264 111 463 c 0,12,13
 111 695 111 695 220 932 c 128,-1,14
 329 1169 329 1169 524.5 1324 c 128,-1,15
 720 1479 720 1479 965 1479 c 0,16,17
 1212 1479 1212 1479 1339 1330 c 1,18,-1
 1581 1583 l 1,19,-1
 1612 1556 l 1,20,-1
 1365 1295 l 1,21,0
 1448 1174 1448 1174 1448 985 c 0,1,2
648.5 1294.5 m 128,-1,23
 505 1147 505 1147 416.5 913 c 128,-1,24
 328 679 328 679 328 436 c 0,25,26
 328 349 328 349 345 273 c 1,27,-1
 1206 1203 l 1,28,29
 1175 1317 1175 1317 1106.5 1379.5 c 128,-1,30
 1038 1442 1038 1442 946 1442 c 0,31,22
 792 1442 792 1442 648.5 1294.5 c 128,-1,23
908.5 155.5 m 128,-1,33
 1052 303 1052 303 1140.5 537 c 128,-1,34
 1229 771 1229 771 1229 1014 c 0,35,36
 1229 1089 1229 1089 1217 1152 c 1,37,-1
 359 222 l 1,38,39
 392 120 392 120 457.5 64 c 128,-1,40
 523 8 523 8 610 8 c 0,41,32
 765 8 765 8 908.5 155.5 c 128,-1,33
EndSplineSet
Substitution2: "'c2sc' Capitals to Small Capitals lookup 23 subtable" oslash.smcp
Substitution2: "'aalt' Access All Alternates lookup 0 subtable" oslash.smcp
Position2: "'cpsp' Capital Spacing lookup 0 subtable" dx=20 dy=0 dh=20 dv=0
EndChar
StartChar: Thorn
Encoding: 222 222 84
Width: 1239
GlyphClass: 2
Flags: W
AnchorPoint: "Anchor-5" 193 0 basechar 0
AnchorPoint: "Anchor-4" 610 1450 basechar 0
AnchorPoint: "Anchor-3" 453 0 basechar 0
LayerCount: 2
Back
Fore
SplineSet
340 217 m 2,0,1
 323 151 323 151 323 118 c 0,2,3
 323 88 323 88 336.5 72 c 128,-1,4
 350 56 350 56 379 49.5 c 128,-1,5
 408 43 408 43 461 41 c 1,6,-1
 453 0 l 1,7,8
 357 6 357 6 193 6 c 0,9,10
 22 6 22 6 -68 0 c 1,11,-1
 -57 41 l 1,12,13
 15 44 15 44 51 57 c 128,-1,14
 87 70 87 70 108.5 105.5 c 128,-1,15
 130 141 130 141 150 217 c 2,16,-1
 420 1233 l 2,17,18
 437 1298 437 1298 437 1331 c 0,19,20
 437 1362 437 1362 423 1378 c 128,-1,21
 409 1394 409 1394 380.5 1400.5 c 128,-1,22
 352 1407 352 1407 299 1409 c 1,23,-1
 309 1450 l 1,24,25
 393 1444 393 1444 569 1444 c 0,26,27
 734 1444 734 1444 831 1450 c 1,28,-1
 821 1409 l 1,29,30
 746 1406 746 1406 709.5 1393 c 128,-1,31
 673 1380 673 1380 651.5 1345 c 128,-1,32
 630 1310 630 1310 610 1233 c 2,33,-1
 595 1175 l 1,34,-1
 659 1176 l 2,35,36
 759 1178 759 1178 811 1178 c 0,37,38
 1012 1178 1012 1178 1115.5 1095 c 128,-1,39
 1219 1012 1219 1012 1219 868 c 0,40,41
 1219 709 1219 709 1121.5 582 c 128,-1,42
 1024 455 1024 455 848 383 c 128,-1,43
 672 311 672 311 446 311 c 2,44,-1
 365 312 l 1,45,-1
 340 217 l 2,0,1
467 352 m 2,46,47
 753 352 753 352 882.5 502 c 128,-1,48
 1012 652 1012 652 1012 901 c 0,49,50
 1012 1023 1012 1023 950 1081 c 128,-1,51
 888 1139 888 1139 752 1139 c 0,52,53
 665 1139 665 1139 583 1132 c 1,54,-1
 376 352 l 1,55,-1
 467 352 l 2,46,47
EndSplineSet
Substitution2: "'c2sc' Capitals to Small Capitals lookup 23 subtable" thorn.smcp
Substitution2: "'aalt' Access All Alternates lookup 0 subtable" thorn.smcp
Position2: "'cpsp' Capital Spacing lookup 0 subtable" dx=20 dy=0 dh=20 dv=0
EndChar
StartChar: germandbls
Encoding: 223 223 232
Width: 1120
GlyphClass: 2
Flags: W
LayerCount: 2
Back
Fore
SplineSet
647 1534.5 m 128,-1,1
 603 1498 603 1498 567 1419 c 128,-1,2
 531 1340 531 1340 496 1206 c 2,3,-1
 84 -356 l 1,4,5
 -24 -359 -24 -359 -100 -385 c 1,6,-1
 272 1038 l 2,7,8
 324 1235 324 1235 384.5 1355.5 c 128,-1,9
 445 1476 445 1476 540 1539 c 128,-1,10
 635 1602 635 1602 780 1602 c 0,11,12
 878 1602 878 1602 940 1573.5 c 128,-1,13
 1002 1545 1002 1545 1030.5 1498.5 c 128,-1,14
 1059 1452 1059 1452 1059 1395 c 0,15,16
 1059 1333 1059 1333 1028.5 1275.5 c 128,-1,17
 998 1218 998 1218 953.5 1171.5 c 128,-1,18
 909 1125 909 1125 837 1059 c 2,19,-1
 788 1014 l 2,20,21
 719 951 719 951 719 860 c 0,22,23
 719 799 719 799 744 751 c 128,-1,24
 769 703 769 703 821 637 c 2,25,-1
 854 594 l 2,26,27
 912 516 912 516 943.5 444.5 c 128,-1,28
 975 373 975 373 975 297 c 0,29,30
 975 201 975 201 926 127 c 128,-1,31
 877 53 877 53 793 12 c 128,-1,32
 709 -29 709 -29 608 -29 c 0,33,34
 540 -29 540 -29 480.5 -9.5 c 128,-1,35
 421 10 421 10 383.5 49.5 c 128,-1,36
 346 89 346 89 346 147 c 0,37,38
 346 192 346 192 368.5 219 c 128,-1,39
 391 246 391 246 426 246 c 0,40,41
 475 246 475 246 494.5 201.5 c 128,-1,42
 514 157 514 157 514 106 c 0,43,44
 514 77 514 77 502 29 c 1,45,46
 544 12 544 12 588 12 c 0,47,48
 650 12 650 12 698.5 37.5 c 128,-1,49
 747 63 747 63 775 111 c 128,-1,50
 803 159 803 159 803 225 c 0,51,52
 803 358 803 358 696 494 c 0,53,54
 682 512 682 512 674 521 c 0,55,56
 639 563 639 563 617 595 c 128,-1,57
 595 627 595 627 579 668.5 c 128,-1,58
 563 710 563 710 563 756 c 256,59,60
 563 802 563 802 579.5 837.5 c 128,-1,61
 596 873 596 873 621.5 900 c 128,-1,62
 647 927 647 927 692 965 c 0,63,64
 742 1009 742 1009 770 1038 c 0,65,66
 901 1176 901 1176 901 1354 c 0,67,68
 901 1462 901 1462 860 1516.5 c 128,-1,69
 819 1571 819 1571 750 1571 c 0,70,0
 691 1571 691 1571 647 1534.5 c 128,-1,1
EndSplineSet
Substitution2: "'smcp' Lowercase to Small Capitals lookup 24 subtable" germandbls.smcp
Substitution2: "'aalt' Access All Alternates lookup 0 subtable" germandbls.smcp
EndChar
StartChar: ae
Encoding: 230 230 144
Width: 1350
GlyphClass: 2
Flags: W
AnchorPoint: "Anchor-5" 0 0 basechar 0
AnchorPoint: "Anchor-4" 819 1053 basechar 0
AnchorPoint: "Anchor-3" 0 0 basechar 0
LayerCount: 2
Back
Fore
SplineSet
1135.5 647 m 128,-1,1
 950 529 950 529 706 451 c 1,2,3
 686 351 686 351 686 254 c 0,4,5
 686 57 686 57 827 57 c 0,6,7
 994 57 994 57 1135 262 c 1,8,-1
 1176 246 l 1,9,10
 1134 174 1134 174 1070 111.5 c 128,-1,11
 1006 49 1006 49 926.5 10 c 128,-1,12
 847 -29 847 -29 764 -29 c 0,13,14
 664 -29 664 -29 598 17.5 c 128,-1,15
 532 64 532 64 507 154 c 1,16,17
 390 -29 390 -29 211 -29 c 0,18,19
 109 -29 109 -29 57.5 33 c 128,-1,20
 6 95 6 95 6 199 c 0,21,22
 6 375 6 375 118 579 c 128,-1,23
 230 783 230 783 400.5 922 c 128,-1,24
 571 1061 571 1061 733 1061 c 0,25,26
 822 1061 822 1061 868 989 c 1,27,28
 994 1081 994 1081 1128 1081 c 0,29,30
 1214 1081 1214 1081 1267.5 1041 c 128,-1,31
 1321 1001 1321 1001 1321 926 c 0,32,0
 1321 765 1321 765 1135.5 647 c 128,-1,1
950 965 m 128,-1,34
 877 888 877 888 813 760.5 c 128,-1,35
 749 633 749 633 715 490 c 1,36,37
 917 560 917 560 997 623 c 0,38,39
 1073 682 1073 682 1115 766.5 c 128,-1,40
 1157 851 1157 851 1157 950 c 0,41,42
 1157 994 1157 994 1137.5 1018 c 128,-1,43
 1118 1042 1118 1042 1083 1042 c 0,44,33
 1023 1042 1023 1042 950 965 c 128,-1,34
386.5 77 m 128,-1,46
 446 117 446 117 498 200 c 1,47,48
 494 225 494 225 494 260 c 0,49,50
 494 367 494 367 538 501.5 c 128,-1,51
 582 636 582 636 661 761.5 c 128,-1,52
 740 887 740 887 841 969 c 1,53,54
 805 1018 805 1018 748 1018 c 0,55,56
 638 1018 638 1018 504.5 894 c 128,-1,57
 371 770 371 770 278.5 574 c 128,-1,58
 186 378 186 378 186 174 c 0,59,60
 186 110 186 110 208 73.5 c 128,-1,61
 230 37 230 37 276 37 c 0,62,45
 327 37 327 37 386.5 77 c 128,-1,46
EndSplineSet
Substitution2: "'smcp' Lowercase to Small Capitals lookup 24 subtable" ae.smcp
Substitution2: "'aalt' Access All Alternates lookup 0 subtable" ae.smcp
EndChar
StartChar: ccedilla
Encoding: 231 231 149
Width: 885
GlyphClass: 2
Flags: W
AnchorPoint: "Anchor-5" 293 0 basechar 0
AnchorPoint: "Anchor-4" 635 1053 basechar 0
AnchorPoint: "Anchor-3" 0 0 basechar 0
LayerCount: 2
Back
Fore
SplineSet
766.5 1060 m 128,-1,1
 817 1039 817 1039 847 999.5 c 128,-1,2
 877 960 877 960 877 907 c 0,3,4
 877 867 877 867 859 829 c 128,-1,5
 841 791 841 791 807.5 767 c 128,-1,6
 774 743 774 743 731 743 c 0,7,8
 690 743 690 743 668.5 766 c 128,-1,9
 647 789 647 789 647 823 c 0,10,11
 647 881 647 881 692.5 923.5 c 128,-1,12
 738 966 738 966 801 977 c 1,13,14
 757 1040 757 1040 662 1040 c 0,15,16
 559 1040 559 1040 457.5 929.5 c 128,-1,17
 356 819 356 819 291.5 637 c 128,-1,18
 227 455 227 455 227 254 c 0,19,20
 227 154 227 154 265 105.5 c 128,-1,21
 303 57 303 57 371 57 c 0,22,23
 537 57 537 57 678 262 c 1,24,-1
 719 246 l 1,25,26
 677 174 677 174 613 111.5 c 128,-1,27
 549 49 549 49 469.5 10 c 128,-1,28
 390 -29 390 -29 307 -29 c 1,29,-1
 252 -147 l 1,30,31
 290 -133 290 -133 336 -133 c 0,32,33
 377 -133 377 -133 400.5 -155 c 128,-1,34
 424 -177 424 -177 424 -215 c 0,35,36
 424 -271 424 -271 385 -309.5 c 128,-1,37
 346 -348 346 -348 287.5 -366.5 c 128,-1,38
 229 -385 229 -385 172 -385 c 0,39,40
 119 -385 119 -385 74.5 -371.5 c 128,-1,41
 30 -358 30 -358 8 -340 c 1,42,-1
 22 -309 l 1,43,44
 52 -322 52 -322 77 -329 c 128,-1,45
 102 -336 102 -336 145 -336 c 0,46,47
 172 -336 172 -336 206.5 -326 c 128,-1,48
 241 -316 241 -316 267 -292.5 c 128,-1,49
 293 -269 293 -269 293 -231 c 0,50,51
 293 -182 293 -182 235 -182 c 0,52,53
 202 -182 202 -182 172 -197 c 1,54,-1
 254 -25 l 1,55,56
 152 -10 152 -10 94.5 65.5 c 128,-1,57
 37 141 37 141 37 272 c 0,58,59
 37 438 37 438 115 629 c 128,-1,60
 193 820 193 820 334 950.5 c 128,-1,61
 475 1081 475 1081 655 1081 c 0,62,0
 716 1081 716 1081 766.5 1060 c 128,-1,1
EndSplineSet
Substitution2: "'smcp' Lowercase to Small Capitals lookup 24 subtable" ccedilla.smcp
Substitution2: "'aalt' Access All Alternates lookup 0 subtable" ccedilla.smcp
EndChar
StartChar: eth
Encoding: 240 240 153
Width: 997
GlyphClass: 2
Flags: W
LayerCount: 2
Back
Fore
SplineSet
914 807 m 0,1,2
 914 623 914 623 843 428 c 128,-1,3
 772 233 772 233 637.5 102 c 128,-1,4
 503 -29 503 -29 323 -29 c 0,5,6
 192 -29 192 -29 117 52.5 c 128,-1,7
 42 134 42 134 42 293 c 0,8,9
 42 453 42 453 112.5 639 c 128,-1,10
 183 825 183 825 314 953 c 128,-1,11
 445 1081 445 1081 615 1081 c 0,12,13
 677 1081 677 1081 723 1050 c 1,14,15
 695 1217 695 1217 610 1339 c 1,16,-1
 232 1171 l 1,17,-1
 220 1208 l 1,18,-1
 587 1370 l 1,19,20
 498 1484 498 1484 337 1567 c 1,21,-1
 361 1602 l 1,22,23
 553 1529 553 1529 677 1412 c 1,24,-1
 1005 1556 l 1,25,-1
 1017 1520 l 1,26,-1
 706 1383 l 1,27,0
 914 1162 914 1162 914 807 c 0,1,2
533 145 m 128,-1,29
 626 278 626 278 682 477.5 c 128,-1,30
 738 677 738 677 738 862 c 0,31,32
 738 941 738 941 729 1010 c 1,33,34
 690 1040 690 1040 615 1040 c 0,35,36
 513 1040 513 1040 421.5 906.5 c 128,-1,37
 330 773 330 773 274 573 c 128,-1,38
 218 373 218 373 218 190 c 0,39,40
 218 12 218 12 335 12 c 0,41,28
 440 12 440 12 533 145 c 128,-1,29
EndSplineSet
Substitution2: "'smcp' Lowercase to Small Capitals lookup 24 subtable" eth.smcp
Substitution2: "'aalt' Access All Alternates lookup 0 subtable" eth.smcp
EndChar
StartChar: divide
Encoding: 247 247 726
Width: 1346
Flags: W
LayerCount: 2
Back
Fore
SplineSet
739.5 1101.5 m 128,-1,1
 782 1135 782 1135 828 1135 c 0,2,3
 867 1135 867 1135 891 1112 c 128,-1,4
 915 1089 915 1089 915 1053 c 0,5,6
 915 1040 915 1040 910 1022 c 0,7,8
 897 974 897 974 854 941.5 c 128,-1,9
 811 909 811 909 763 909 c 0,10,11
 725 909 725 909 701.5 931.5 c 128,-1,12
 678 954 678 954 678 990 c 0,13,14
 678 1004 678 1004 683 1022 c 0,15,0
 697 1068 697 1068 739.5 1101.5 c 128,-1,1
1222 758 m 1,16,-1
 1203 696 l 1,17,-1
 177 696 l 1,18,-1
 196 758 l 1,19,-1
 1222 758 l 1,16,-1
569 511.5 m 128,-1,21
 612 545 612 545 658 545 c 0,22,23
 697 545 697 545 721 522.5 c 128,-1,24
 745 500 745 500 745 464 c 0,25,26
 745 450 745 450 740 432 c 0,27,28
 726 385 726 385 683 351 c 128,-1,29
 640 317 640 317 593 317 c 0,30,31
 555 317 555 317 531.5 340.5 c 128,-1,32
 508 364 508 364 508 400 c 0,33,34
 508 414 508 414 513 432 c 0,35,20
 526 478 526 478 569 511.5 c 128,-1,21
EndSplineSet
EndChar
StartChar: oslash
Encoding: 248 248 216
Width: 999
GlyphClass: 2
Flags: W
AnchorPoint: "Anchor-5" 317 0 basechar 0
AnchorPoint: "Anchor-4" 500 1053 basechar 0
AnchorPoint: "Anchor-3" 0 0 basechar 0
LayerCount: 2
Back
Fore
SplineSet
915 760 m 0,1,2
 915 599 915 599 843.5 413.5 c 128,-1,3
 772 228 772 228 637.5 99.5 c 128,-1,4
 503 -29 503 -29 324 -29 c 0,5,6
 193 -29 193 -29 120 50 c 1,7,-1
 -45 -150 l 1,8,-1
 -74 -123 l 1,9,-1
 95 82 l 1,10,11
 43 164 43 164 43 293 c 0,12,13
 43 454 43 454 114.5 639.5 c 128,-1,14
 186 825 186 825 321 953 c 128,-1,15
 456 1081 456 1081 635 1081 c 0,16,17
 773 1081 773 1081 846 993 c 1,18,-1
 1018 1200 l 1,19,-1
 1044 1176 l 1,20,-1
 869 961 l 1,21,0
 915 884 915 884 915 760 c 0,1,2
428 911.5 m 128,-1,23
 336 783 336 783 279.5 589 c 128,-1,24
 223 395 223 395 219 212 c 1,25,-1
 739 884 l 1,26,27
 735 965 735 965 706.5 1002.5 c 128,-1,28
 678 1040 678 1040 623 1040 c 0,29,22
 520 1040 520 1040 428 911.5 c 128,-1,23
528 136 m 128,-1,31
 618 260 618 260 674.5 449.5 c 128,-1,32
 731 639 731 639 738 821 c 1,33,-1
 221 147 l 1,34,35
 233 12 233 12 336 12 c 0,36,30
 438 12 438 12 528 136 c 128,-1,31
EndSplineSet
Substitution2: "'smcp' Lowercase to Small Capitals lookup 24 subtable" oslash.smcp
Substitution2: "'aalt' Access All Alternates lookup 0 subtable" oslash.smcp
EndChar
StartChar: Aogonek
Encoding: 260 260 9
Width: 1288
GlyphClass: 2
Flags: W
AnchorPoint: "Anchor-5" 0 0 basechar 0
AnchorPoint: "Anchor-4" 932 1450 basechar 0
AnchorPoint: "Anchor-3" 1102 0 basechar 0
LayerCount: 2
Back
Fore
SplineSet
877 -385 m 0,1,2
 803 -385 803 -385 764 -353 c 128,-1,3
 725 -321 725 -321 725 -266 c 0,4,5
 725 -175 725 -175 819.5 -107 c 128,-1,6
 914 -39 914 -39 1039 4 c 1,7,8
 951 6 951 6 901 6 c 0,9,10
 736 6 736 6 655 0 c 1,11,-1
 664 41 l 1,12,13
 734 44 734 44 772 58.5 c 128,-1,14
 810 73 810 73 826.5 108.5 c 128,-1,15
 843 144 843 144 840 213 c 2,16,-1
 821 549 l 1,17,-1
 318 549 l 1,18,-1
 164 332 l 2,19,20
 68 196 68 196 68 128 c 0,21,22
 68 44 68 44 219 41 c 1,23,-1
 209 0 l 1,24,25
 95 6 95 6 -25 6 c 0,26,27
 -114 6 -114 6 -178 0 c 1,28,-1
 -168 41 l 1,29,30
 -74 61 -74 61 37 219 c 2,31,-1
 920 1460 l 1,32,-1
 950 1460 l 1,33,-1
 1032 172 l 2,34,35
 1037 105 1037 105 1066.5 74 c 128,-1,36
 1096 43 1096 43 1133 41 c 1,37,-1
 1124 0 l 1,38,-1
 1106 1 l 1,39,40
 1015 -28 1015 -28 948 -82.5 c 128,-1,41
 881 -137 881 -137 881 -211 c 0,42,43
 881 -287 881 -287 961 -287 c 0,44,45
 1000 -287 1000 -287 1045.5 -270.5 c 128,-1,46
 1091 -254 1091 -254 1119 -233 c 1,47,-1
 1141 -268 l 1,48,0
 1018 -385 1018 -385 877 -385 c 0,1,2
785 1209 m 1,49,-1
 347 590 l 1,50,-1
 819 590 l 1,51,-1
 785 1209 l 1,49,-1
EndSplineSet
Substitution2: "'c2sc' Capitals to Small Capitals lookup 23 subtable" aogonek.smcp
Substitution2: "'aalt' Access All Alternates lookup 0 subtable" aogonek.smcp
Position2: "'cpsp' Capital Spacing lookup 0 subtable" dx=20 dy=0 dh=20 dv=0
EndChar
StartChar: aogonek
Encoding: 261 261 141
Width: 1071
GlyphClass: 2
Flags: W
AnchorPoint: "Anchor-5" 0 0 basechar 0
AnchorPoint: "Anchor-4" 684 1053 basechar 0
AnchorPoint: "Anchor-3" 772 0 basechar 0
LayerCount: 2
Back
Fore
SplineSet
970 334 m 1,0,-1
 919 184 l 2,1,2
 881 78 881 78 823 28 c 128,-1,3
 765 -22 765 -22 701 -28 c 1,4,5
 636 -60 636 -60 594 -106.5 c 128,-1,6
 552 -153 552 -153 552 -209 c 0,7,8
 552 -247 552 -247 572.5 -267 c 128,-1,9
 593 -287 593 -287 630 -287 c 0,10,11
 668 -287 668 -287 707 -269 c 128,-1,12
 746 -251 746 -251 769 -223 c 1,13,-1
 794 -246 l 1,14,15
 678 -385 678 -385 544 -385 c 0,16,17
 474 -385 474 -385 435 -352 c 128,-1,18
 396 -319 396 -319 396 -264 c 0,19,20
 396 -189 396 -189 465.5 -128.5 c 128,-1,21
 535 -68 535 -68 639 -23 c 1,22,23
 593 -11 593 -11 570 25 c 0,24,25
 553 55 553 55 553 97 c 0,26,27
 553 127 553 127 560 159.5 c 128,-1,28
 567 192 567 192 575 221.5 c 128,-1,29
 583 251 583 251 585 260 c 2,30,-1
 622 409 l 1,31,32
 524 179 524 179 422 75 c 128,-1,33
 320 -29 320 -29 210 -29 c 0,34,35
 116 -29 116 -29 66.5 38.5 c 128,-1,36
 17 106 17 106 17 219 c 0,37,38
 17 385 17 385 105.5 590 c 128,-1,39
 194 795 194 795 334.5 938 c 128,-1,40
 475 1081 475 1081 622 1081 c 0,41,42
 677 1081 677 1081 712 1041 c 128,-1,43
 747 1001 747 1001 753 928 c 1,44,-1
 785 1053 l 1,45,46
 899 1056 899 1056 974 1081 c 1,47,-1
 718 176 l 2,48,49
 703 122 703 122 703 100 c 0,50,51
 703 49 703 49 749 49 c 0,52,53
 839 49 839 49 906 258 c 2,54,-1
 931 334 l 1,55,-1
 970 334 l 1,0,-1
405.5 124.5 m 128,-1,57
 485 212 485 212 561.5 358 c 128,-1,58
 638 504 638 504 688 670 c 1,59,-1
 726 819 l 1,60,61
 728 851 728 851 728 864 c 0,62,63
 728 946 728 946 698.5 994 c 128,-1,64
 669 1042 669 1042 615 1042 c 0,65,66
 528 1042 528 1042 429.5 906.5 c 128,-1,67
 331 771 331 771 264.5 571 c 128,-1,68
 198 371 198 371 198 195 c 0,69,70
 198 110 198 110 216 73.5 c 128,-1,71
 234 37 234 37 269 37 c 0,72,56
 326 37 326 37 405.5 124.5 c 128,-1,57
EndSplineSet
Substitution2: "'smcp' Lowercase to Small Capitals lookup 24 subtable" aogonek.smcp
Substitution2: "'aalt' Access All Alternates lookup 0 subtable" aogonek.smcp
EndChar
StartChar: dcroat
Encoding: 273 273 155
Width: 1110
GlyphClass: 2
Flags: W
LayerCount: 2
Back
Fore
SplineSet
743 104 m 0,1,2
 743 47 743 47 792 47 c 0,3,4
 833 47 833 47 867.5 94.5 c 128,-1,5
 902 142 902 142 941 256 c 2,6,-1
 966 332 l 1,7,-1
 1005 332 l 1,8,-1
 957 182 l 2,9,10
 922 68 922 68 857.5 19.5 c 128,-1,11
 793 -29 793 -29 720 -29 c 0,12,13
 657 -29 657 -29 624 4 c 128,-1,14
 591 37 591 37 591 99 c 0,15,16
 591 154 591 154 617 258 c 2,17,-1
 644 361 l 1,18,19
 547 155 547 155 448 63 c 128,-1,20
 349 -29 349 -29 237 -29 c 0,21,22
 137 -29 137 -29 80.5 39 c 128,-1,23
 24 107 24 107 24 242 c 0,24,25
 24 411 24 411 113 609.5 c 128,-1,26
 202 808 202 808 354 944.5 c 128,-1,27
 506 1081 506 1081 685 1081 c 0,28,29
 725 1081 725 1081 760.5 1055 c 128,-1,30
 796 1029 796 1029 810 983 c 1,31,-1
 880 1245 l 1,32,-1
 538 1245 l 1,33,-1
 550 1286 l 1,34,-1
 891 1286 l 1,35,-1
 912 1366 l 2,36,37
 921 1398 921 1398 921 1421 c 0,38,39
 921 1462 921 1462 889 1481.5 c 128,-1,40
 857 1501 857 1501 781 1501 c 1,41,-1
 794 1544 l 1,42,43
 903 1545 903 1545 989 1566 c 128,-1,44
 1075 1587 1075 1587 1156 1628 c 1,45,-1
 1062 1286 l 1,46,-1
 1254 1286 l 1,47,-1
 1242 1245 l 1,48,-1
 1050 1245 l 1,49,-1
 755 174 l 2,50,0
 743 133 743 133 743 104 c 0,1,2
435 120.5 m 128,-1,52
 515 204 515 204 592 344.5 c 128,-1,53
 669 485 669 485 720 646 c 1,54,-1
 796 930 l 1,55,56
 783 983 783 983 754 1008.5 c 128,-1,57
 725 1034 725 1034 687 1034 c 0,58,59
 563 1034 563 1034 452 901.5 c 128,-1,60
 341 769 341 769 273.5 575.5 c 128,-1,61
 206 382 206 382 206 215 c 0,62,63
 206 37 206 37 296 37 c 0,64,51
 355 37 355 37 435 120.5 c 128,-1,52
EndSplineSet
Substitution2: "'smcp' Lowercase to Small Capitals lookup 24 subtable" dcroat.smcp
Substitution2: "'aalt' Access All Alternates lookup 0 subtable" dcroat.smcp
EndChar
StartChar: Eogonek
Encoding: 280 280 33
Width: 1249
GlyphClass: 2
Flags: W
AnchorPoint: "Anchor-5" 543 0 basechar 0
AnchorPoint: "Anchor-4" 860 1450 basechar 0
AnchorPoint: "Anchor-3" 961 0 basechar 0
LayerCount: 2
Back
Fore
SplineSet
1315 1450 m 1,1,2
 1261 1302 1261 1302 1237 1208 c 0,3,4
 1214 1127 1214 1127 1208 1081 c 1,5,-1
 1161 1081 l 1,6,7
 1179 1191 1179 1191 1179 1246 c 0,8,9
 1179 1305 1179 1305 1160 1338.5 c 128,-1,10
 1141 1372 1141 1372 1096.5 1387.5 c 128,-1,11
 1052 1403 1052 1403 973 1403 c 2,12,-1
 823 1403 l 2,13,14
 750 1403 750 1403 713.5 1391 c 128,-1,15
 677 1379 677 1379 655 1344.5 c 128,-1,16
 633 1310 633 1310 612 1233 c 2,17,-1
 483 750 l 1,18,-1
 618 750 l 2,19,20
 690 750 690 750 737 784 c 128,-1,21
 784 818 784 818 810.5 863.5 c 128,-1,22
 837 909 837 909 864 978 c 0,23,24
 880 1017 880 1017 881 1020 c 2,25,-1
 928 1020 l 1,26,27
 884 885 884 885 853 765 c 2,28,-1
 844 729 l 2,29,30
 817 633 817 633 778 438 c 1,31,-1
 731 438 l 1,32,-1
 735 464 l 2,33,34
 747 542 747 542 747 577 c 0,35,36
 747 640 747 640 716 674.5 c 128,-1,37
 685 709 685 709 606 709 c 2,38,-1
 472 709 l 1,39,-1
 340 217 l 2,40,41
 322 152 322 152 322 118 c 0,42,43
 322 88 322 88 336 73 c 128,-1,44
 350 58 350 58 379 52.5 c 128,-1,45
 408 47 408 47 461 47 c 2,46,-1
 610 47 l 2,47,48
 738 47 738 47 813.5 81 c 128,-1,49
 889 115 889 115 939 190 c 128,-1,50
 989 265 989 265 1042 410 c 1,51,-1
 1090 410 l 1,52,53
 1070 360 1070 360 1044 262 c 0,54,55
 1014 152 1014 152 989 0 c 1,56,-1
 965 1 l 1,57,58
 874 -28 874 -28 807 -82.5 c 128,-1,59
 740 -137 740 -137 740 -211 c 0,60,61
 740 -287 740 -287 820 -287 c 0,62,63
 859 -287 859 -287 904.5 -270.5 c 128,-1,64
 950 -254 950 -254 978 -233 c 1,65,-1
 1000 -268 l 1,66,67
 877 -385 877 -385 736 -385 c 0,68,69
 662 -385 662 -385 623 -353 c 128,-1,70
 584 -321 584 -321 584 -266 c 0,71,72
 584 -176 584 -176 677.5 -107.5 c 128,-1,73
 771 -39 771 -39 895 3 c 1,74,75
 771 6 771 6 520 6 c 0,76,77
 127 6 127 6 -72 0 c 1,78,-1
 -61 41 l 1,79,80
 13 44 13 44 49 57 c 128,-1,81
 85 70 85 70 107 105 c 128,-1,82
 129 140 129 140 150 217 c 2,83,-1
 422 1233 l 2,84,85
 440 1298 440 1298 440 1333 c 0,86,87
 440 1363 440 1363 426.5 1378.5 c 128,-1,88
 413 1394 413 1394 384.5 1400.5 c 128,-1,89
 356 1407 356 1407 303 1409 c 1,90,-1
 313 1450 l 1,91,92
 514 1444 514 1444 907 1444 c 0,93,0
 1194 1444 1194 1444 1315 1450 c 1,1,2
EndSplineSet
Substitution2: "'c2sc' Capitals to Small Capitals lookup 23 subtable" eogonek.smcp
Substitution2: "'aalt' Access All Alternates lookup 0 subtable" eogonek.smcp
Position2: "'cpsp' Capital Spacing lookup 0 subtable" dx=20 dy=0 dh=20 dv=0
EndChar
StartChar: eogonek
Encoding: 281 281 165
Width: 879
GlyphClass: 2
Flags: W
AnchorPoint: "Anchor-5" 315 0 basechar 0
AnchorPoint: "Anchor-4" 633 1053 basechar 0
AnchorPoint: "Anchor-3" 424 0 basechar 0
LayerCount: 2
Back
Fore
SplineSet
666.5 657 m 128,-1,1
 482 534 482 534 239 452 c 1,2,3
 216 352 216 352 216 254 c 0,4,5
 216 57 216 57 357 57 c 0,6,7
 532 57 532 57 673 262 c 1,8,-1
 706 246 l 1,9,10
 651 152 651 152 561.5 77.5 c 128,-1,11
 472 3 472 3 370 -20 c 1,12,13
 299 -52 299 -52 251.5 -100.5 c 128,-1,14
 204 -149 204 -149 204 -209 c 0,15,16
 204 -247 204 -247 224.5 -267 c 128,-1,17
 245 -287 245 -287 282 -287 c 0,18,19
 320 -287 320 -287 359 -269 c 128,-1,20
 398 -251 398 -251 421 -223 c 1,21,-1
 446 -246 l 1,22,23
 330 -385 330 -385 196 -385 c 0,24,25
 126 -385 126 -385 87 -352 c 128,-1,26
 48 -319 48 -319 48 -264 c 0,27,28
 48 -191 48 -191 114 -132 c 128,-1,29
 180 -73 180 -73 279 -29 c 1,30,31
 159 -24 159 -24 91.5 50 c 128,-1,32
 24 124 24 124 24 260 c 0,33,34
 24 415 24 415 115 610.5 c 128,-1,35
 206 806 206 806 361.5 943.5 c 128,-1,36
 517 1081 517 1081 699 1081 c 0,37,38
 765 1081 765 1081 808 1046 c 128,-1,39
 851 1011 851 1011 851 946 c 0,40,0
 851 780 851 780 666.5 657 c 128,-1,1
507 965.5 m 128,-1,42
 426 889 426 889 355.5 761.5 c 128,-1,43
 285 634 285 634 248 491 c 1,44,45
 451 562 451 562 527 623 c 0,46,47
 603 682 603 682 645 766.5 c 128,-1,48
 687 851 687 851 687 950 c 0,49,50
 687 1005 687 1005 679 1023.5 c 128,-1,51
 671 1042 671 1042 654 1042 c 0,52,41
 588 1042 588 1042 507 965.5 c 128,-1,42
EndSplineSet
Substitution2: "'smcp' Lowercase to Small Capitals lookup 24 subtable" eogonek.smcp
Substitution2: "'aalt' Access All Alternates lookup 0 subtable" eogonek.smcp
EndChar
